<?xml version="1.0" encoding="UTF-8" standalone="no"?>
<!-- Created with Inkscape (http://www.inkscape.org/) -->

<svg
   version="1.1"
   id="svg1"
   width="845.58594"
   height="930.64844"
   viewBox="0 0 845.58594 930.64844"
   xmlns="http://www.w3.org/2000/svg"
   xmlns:svg="http://www.w3.org/2000/svg">
  <defs
     id="defs1">
    <clipPath
       clipPathUnits="userSpaceOnUse"
       id="clipPath3">
      <path
         d="m 246.27701,152.621 5.785,1.594 -1.593,5.785 -5.785,-1.594 z"
         id="path3" />
    </clipPath>
    <clipPath
       clipPathUnits="userSpaceOnUse"
       id="clipPath5">
      <path
         d="m 267.98365,78.813748 5.78519,6.62e-4 2.6e-4,5.784927 -5.78518,-6.63e-4 z"
         id="path5" />
    </clipPath>
    <clipPath
       clipPathUnits="userSpaceOnUse"
       id="clipPath7">
      <path
         d="m 325.33333,202.66667 h 12 v 10.66666 h -12 z"
         id="path7" />
    </clipPath>
    <clipPath
       clipPathUnits="userSpaceOnUse"
       id="clipPath10">
      <path
         d="m 137.328,-314.09401 v -6 h 6 v 6 z"
         id="path10" />
    </clipPath>
    <clipPath
       clipPathUnits="userSpaceOnUse"
       id="clipPath12">
      <path
         d="m 389.50801,158.406 -5.785,1.594 -1.594,-5.785 5.785,-1.594 z"
         id="path12" />
    </clipPath>
    <clipPath
       clipPathUnits="userSpaceOnUse"
       id="clipPath14">
      <path
         d="m -321.49356,-246.9508 5.78518,-6.6e-4 6.7e-4,5.78518 -5.78519,6.6e-4 z"
         id="path14" />
    </clipPath>
    <clipPath
       clipPathUnits="userSpaceOnUse"
       id="clipPath16">
      <path
         d="M 509.33333,202.66667 H 520 v 10.66666 h -10.66667 z"
         id="path16" />
    </clipPath>
    <clipPath
       clipPathUnits="userSpaceOnUse"
       id="clipPath19">
      <path
         d="m 261.15201,-314.09401 v -6 h 6 v 6 z"
         id="path19" />
    </clipPath>
    <clipPath
       clipPathUnits="userSpaceOnUse"
       id="clipPath22">
      <path
         d="m 384.98001,-314.09401 v -6 h 6 v 6 z"
         id="path22" />
    </clipPath>
    <clipPath
       clipPathUnits="userSpaceOnUse"
       id="clipPath25">
      <path
         d="m 525.30501,-84.656002 v -6 h 6 v 6 z"
         id="path25" />
    </clipPath>
    <clipPath
       clipPathUnits="userSpaceOnUse"
       id="clipPath28">
      <path
         d="m 525.30501,-314.09401 v -6 h 6 v 6 z"
         id="path28" />
    </clipPath>
    <clipPath
       clipPathUnits="userSpaceOnUse"
       id="clipPath31">
      <path
         d="m 525.30501,-543.53501 v -6 h 6 v 6 z"
         id="path31" />
    </clipPath>
    <clipPath
       clipPathUnits="userSpaceOnUse"
       id="clipPath33">
      <path
         d="m 226.64501,672.82802 5.793,1.555 -1.555,5.793 -5.793,-1.555 z"
         id="path33" />
    </clipPath>
    <clipPath
       clipPathUnits="userSpaceOnUse"
       id="clipPath35">
      <path
         d="m 379.86392,570.8752 5.79305,1.9e-4 -1.9e-4,5.79305 -5.79305,-1.9e-4 z"
         id="path35" />
    </clipPath>
    <clipPath
       clipPathUnits="userSpaceOnUse"
       id="clipPath37">
      <path
         d="m 300,896 h 10.66667 v 10.66667 H 300 Z"
         id="path37" />
    </clipPath>
    <clipPath
       clipPathUnits="userSpaceOnUse"
       id="clipPath39">
      <path
         d="m 259.82001,674.26202 -5.23,2.941 -2.942,-5.23 5.231,-2.942 z"
         id="path39" />
    </clipPath>
    <clipPath
       clipPathUnits="userSpaceOnUse"
       id="clipPath41">
      <path
         d="m 90.542115,-623.37354 5.230649,-10e-4 0.0019,5.23108 -5.231836,10e-4 z"
         id="path41" />
    </clipPath>
    <clipPath
       clipPathUnits="userSpaceOnUse"
       id="clipPath43">
      <path
         d="m 334.66667,892 h 12 v 9.33333 h -12 z"
         id="path43" />
    </clipPath>
    <clipPath
       clipPathUnits="userSpaceOnUse"
       id="clipPath46">
      <path
         d="m 662.63302,-543.53501 v -6 h 6 v 6 z"
         id="path46" />
    </clipPath>
  </defs>
  <g
     id="g1">
    <path
       id="path1"
       d="M 6,6 H 628.188 V 608.633 H 6 Z"
       style="fill:#ffffde;fill-opacity:1;fill-rule:nonzero;stroke:#aaaa33;stroke-width:1.875;stroke-linecap:butt;stroke-linejoin:miter;stroke-miterlimit:4;stroke-dasharray:none;stroke-opacity:1"
       transform="scale(1.3333333)" />
    <text
       id="text1"
       xml:space="preserve"
       transform="matrix(1.3333333,0,0,1.3333333,339.85417,27.998047)"><tspan
         id="tspan1"
         style="font-variant:normal;font-weight:normal;font-size:15px;font-family:'Trebuchet MS';writing-mode:lr-tb;fill:#333333;fill-opacity:1;fill-rule:nonzero;stroke:none"
         x="0"
         y="0">BatchedDetection</tspan></text>
    <path
       id="path2"
       d="m 92.301,83.328 v 4.996 c 0,5.004 0,15 26.011,27.168 26.016,12.164 78.036,26.492 104.047,33.656 l 26.012,7.164"
       style="fill:none;stroke:#333333;stroke-width:2.25;stroke-linecap:butt;stroke-linejoin:miter;stroke-miterlimit:4;stroke-dasharray:none;stroke-opacity:1"
       transform="scale(1.3333333)" />
    <g
       id="g4">
      <path
         d="m 246.277,152.621 4.989,4.488 -6.582,1.297 z"
         style="fill:#333333;fill-opacity:1;fill-rule:nonzero;stroke:none"
         transform="scale(1.3333333)"
         clip-path="url(#clipPath3)"
         id="path4" />
    </g>
    <g
       id="g6"
       clip-path="url(#clipPath7)">
      <path
         d="m 267.984,78.814 5.786,2.895 -5.786,2.89 z"
         style="fill:none;stroke:#333333;stroke-width:1.73538;stroke-linecap:butt;stroke-linejoin:miter;stroke-miterlimit:4;stroke-dasharray:none;stroke-opacity:1"
         transform="matrix(1.3333333,0.36722267,-0.36722267,1.3333333,0,0)"
         clip-path="url(#clipPath5)"
         id="path6" />
    </g>
    <path
       id="path8"
       d="m 317.094,83.328 v 4.996 c 0,5.004 0,15 0,24.504 0,9.5 0,18.5 0,23 v 4.5"
       style="fill:none;stroke:#333333;stroke-width:2.25;stroke-linecap:butt;stroke-linejoin:miter;stroke-miterlimit:4;stroke-dasharray:none;stroke-opacity:1"
       transform="scale(1.3333333)" />
    <path
       id="path9"
       d="m 137.328,-320.094 6,3 -6,3 z"
       style="fill:#333333;fill-opacity:1;fill-rule:nonzero;stroke:#333333;stroke-width:1.8;stroke-linecap:butt;stroke-linejoin:miter;stroke-miterlimit:4;stroke-dasharray:none;stroke-opacity:1"
       transform="matrix(0,1.3333333,-1.3333333,0,0,0)"
       clip-path="url(#clipPath10)" />
    <path
       id="path11"
       d="m 541.887,83.328 v 4.996 c 0,5.004 0,15 -26.012,27.168 -26.012,12.164 -78.035,26.492 -104.047,33.656 l -26.012,7.164"
       style="fill:none;stroke:#333333;stroke-width:2.25;stroke-linecap:butt;stroke-linejoin:miter;stroke-miterlimit:4;stroke-dasharray:none;stroke-opacity:1"
       transform="scale(1.3333333)" />
    <g
       id="g13">
      <path
         d="m 389.508,158.406 -6.582,-1.297 4.988,-4.488 z"
         style="fill:#333333;fill-opacity:1;fill-rule:nonzero;stroke:none"
         transform="scale(1.3333333)"
         clip-path="url(#clipPath12)"
         id="path13" />
    </g>
    <g
       id="g15"
       clip-path="url(#clipPath16)">
      <path
         d="m -321.493,-246.951 5.786,2.891 -5.786,2.894 z"
         style="fill:none;stroke:#333333;stroke-width:1.73538;stroke-linecap:butt;stroke-linejoin:miter;stroke-miterlimit:4;stroke-dasharray:none;stroke-opacity:1"
         transform="matrix(-1.3333333,0.36722267,-0.36722267,-1.3333333,0,0)"
         clip-path="url(#clipPath14)"
         id="path15" />
    </g>
    <path
       id="path17"
       d="m 317.094,207.152 v 5 c 0,5 0,15 0,24.5 0,9.5 0,18.5 0,23 v 4.5"
       style="fill:none;stroke:#333333;stroke-width:2.25;stroke-linecap:butt;stroke-linejoin:miter;stroke-miterlimit:4;stroke-dasharray:none;stroke-opacity:1"
       transform="scale(1.3333333)" />
    <path
       id="path18"
       d="m 261.152,-320.094 6,3 -6,3 z"
       style="fill:#333333;fill-opacity:1;fill-rule:nonzero;stroke:#333333;stroke-width:1.8;stroke-linecap:butt;stroke-linejoin:miter;stroke-miterlimit:4;stroke-dasharray:none;stroke-opacity:1"
       transform="matrix(0,1.3333333,-1.3333333,0,0,0)"
       clip-path="url(#clipPath19)" />
    <path
       id="path20"
       d="m 317.094,330.98 v 4.997 c 0,5 0,15 0,24.5 0,9.503 0,18.503 0,23.003 v 4.5"
       style="fill:none;stroke:#333333;stroke-width:2.25;stroke-linecap:butt;stroke-linejoin:miter;stroke-miterlimit:4;stroke-dasharray:none;stroke-opacity:1"
       transform="scale(1.3333333)" />
    <path
       id="path21"
       d="m 384.98,-320.094 6,3 -6,3 z"
       style="fill:#333333;fill-opacity:1;fill-rule:nonzero;stroke:#333333;stroke-width:1.8;stroke-linecap:butt;stroke-linejoin:miter;stroke-miterlimit:4;stroke-dasharray:none;stroke-opacity:1"
       transform="matrix(0,1.3333333,-1.3333333,0,0,0)"
       clip-path="url(#clipPath22)" />
    <path
       id="path23"
       d="m 220.539,460.668 -22.148,6.773 c -22.149,6.774 -66.442,20.317 -88.586,31.59 -22.149,11.274 -22.149,20.274 -22.149,24.774 v 4.5"
       style="fill:none;stroke:#333333;stroke-width:2.25;stroke-linecap:butt;stroke-linejoin:miter;stroke-miterlimit:4;stroke-dasharray:none;stroke-opacity:1"
       transform="scale(1.3333333)" />
    <path
       id="path24"
       d="m 525.305,-90.656 6,3 -6,3 z"
       style="fill:#333333;fill-opacity:1;fill-rule:nonzero;stroke:#333333;stroke-width:1.8;stroke-linecap:butt;stroke-linejoin:miter;stroke-miterlimit:4;stroke-dasharray:none;stroke-opacity:1"
       transform="matrix(0,1.3333333,-1.3333333,0,0,0)"
       clip-path="url(#clipPath25)" />
    <path
       id="path26"
       d="m 317.094,471.305 v 5 c 0,5 0,15 0,24.5 0,9.5 0,18.5 0,23 v 4.5"
       style="fill:none;stroke:#333333;stroke-width:2.25;stroke-linecap:butt;stroke-linejoin:miter;stroke-miterlimit:4;stroke-dasharray:none;stroke-opacity:1"
       transform="scale(1.3333333)" />
    <path
       id="path27"
       d="m 525.305,-320.094 6,3 -6,3 z"
       style="fill:#333333;fill-opacity:1;fill-rule:nonzero;stroke:#333333;stroke-width:1.8;stroke-linecap:butt;stroke-linejoin:miter;stroke-miterlimit:4;stroke-dasharray:none;stroke-opacity:1"
       transform="matrix(0,1.3333333,-1.3333333,0,0,0)"
       clip-path="url(#clipPath28)" />
    <path
       id="path29"
       d="m 413.652,460.668 22.145,6.773 c 22.148,6.774 66.441,20.317 88.59,31.59 22.148,11.274 22.148,20.274 22.148,24.774 v 4.5"
       style="fill:none;stroke:#333333;stroke-width:2.25;stroke-linecap:butt;stroke-linejoin:miter;stroke-miterlimit:4;stroke-dasharray:none;stroke-opacity:1"
       transform="scale(1.3333333)" />
    <path
       id="path30"
       d="m 525.305,-549.535 6,3 -6,3 z"
       style="fill:#333333;fill-opacity:1;fill-rule:nonzero;stroke:#333333;stroke-width:1.8;stroke-linecap:butt;stroke-linejoin:miter;stroke-miterlimit:4;stroke-dasharray:none;stroke-opacity:1"
       transform="matrix(0,1.3333333,-1.3333333,0,0,0)"
       clip-path="url(#clipPath31)" />
    <path
       id="path32"
       d="m 87.656,578.633 v 4.996 c 0,5 0,15 0,25.004 0,9.996 0,19.996 23.52,31.308 23.515,11.313 70.551,23.938 94.07,30.25 l 23.516,6.313"
       style="fill:none;stroke:#333333;stroke-width:2.25;stroke-linecap:butt;stroke-linejoin:miter;stroke-miterlimit:4;stroke-dasharray:none;stroke-opacity:1"
       transform="scale(1.3333333)" />
    <g
       id="g34">
      <path
         d="m 226.645,672.828 5.015,4.453 -6.574,1.344 z"
         style="fill:#333333;fill-opacity:1;fill-rule:nonzero;stroke:none"
         transform="scale(1.3333333)"
         clip-path="url(#clipPath33)"
         id="path34" />
    </g>
    <g
       id="g36"
       clip-path="url(#clipPath37)">
      <path
         d="m 379.864,570.875 5.793,2.899 -5.796,2.899 z"
         style="fill:none;stroke:#333333;stroke-width:1.73847;stroke-linecap:butt;stroke-linejoin:miter;stroke-miterlimit:4;stroke-dasharray:none;stroke-opacity:1"
         transform="matrix(1.3333333,0.35785733,-0.35785733,1.3333333,0,0)"
         clip-path="url(#clipPath35)"
         id="path36" />
    </g>
    <path
       id="path38"
       d="m 317.094,578.633 v 4.996 c 0,5 0,15 0,25.004 0,9.996 0,19.996 -10.227,30.746 -10.226,10.746 -30.679,22.242 -40.906,27.992 l -10.227,5.746"
       style="fill:none;stroke:#333333;stroke-width:2.25;stroke-linecap:butt;stroke-linejoin:miter;stroke-miterlimit:4;stroke-dasharray:none;stroke-opacity:1"
       transform="scale(1.3333333)" />
    <g
       id="g40">
      <path
         d="m 259.82,674.262 -6.703,0.324 3.762,-5.555 z"
         style="fill:#333333;fill-opacity:1;fill-rule:nonzero;stroke:none"
         transform="scale(1.3333333)"
         clip-path="url(#clipPath39)"
         id="path40" />
    </g>
    <g
       id="g42"
       clip-path="url(#clipPath43)">
      <path
         d="m 90.542,-623.374 5.232,2.617 -5.231,2.615 z"
         style="fill:none;stroke:#333333;stroke-width:1.56914;stroke-linecap:butt;stroke-linejoin:miter;stroke-miterlimit:4;stroke-dasharray:none;stroke-opacity:1"
         transform="matrix(-1.3333333,0.74938933,-0.74938933,-1.3333333,0,0)"
         clip-path="url(#clipPath41)"
         id="path42" />
    </g>
    <path
       id="path44"
       d="m 546.535,578.633 v 4.996 c 0,5 0,15 0,25.004 0,9.996 0,19.996 0,29.496 0,9.504 0,18.504 0,23.004 v 4.5"
       style="fill:none;stroke:#333333;stroke-width:2.25;stroke-linecap:butt;stroke-linejoin:miter;stroke-miterlimit:4;stroke-dasharray:none;stroke-opacity:1"
       transform="scale(1.3333333)" />
    <path
       id="path45"
       d="m 662.633,-549.535 6,3 -6,3 z"
       style="fill:#333333;fill-opacity:1;fill-rule:nonzero;stroke:#333333;stroke-width:1.8;stroke-linecap:butt;stroke-linejoin:miter;stroke-miterlimit:4;stroke-dasharray:none;stroke-opacity:1"
       transform="matrix(0,1.3333333,-1.3333333,0,0,0)"
       clip-path="url(#clipPath46)" />
    <path
       id="path47"
       d="M 36,36 H 148.605 V 83.328 H 36 Z"
       style="fill:#ececff;fill-opacity:1;fill-rule:nonzero;stroke:#9370db;stroke-width:1.875;stroke-linecap:butt;stroke-linejoin:miter;stroke-miterlimit:4;stroke-dasharray:none;stroke-opacity:1"
       transform="scale(1.3333333)" />
    <text
       id="text47"
       xml:space="preserve"
       transform="matrix(1.3333333,0,0,1.3333333,91.015625,87.998047)"><tspan
         id="tspan47"
         style="font-variant:normal;font-weight:normal;font-size:15px;font-family:'Trebuchet MS';writing-mode:lr-tb;fill:#333333;fill-opacity:1;fill-rule:nonzero;stroke:none"
         x="0"
         y="0">Image1</tspan></text>
    <path
       id="path48"
       d="M 260.793,36 H 373.398 V 83.328 H 260.793 Z"
       style="fill:#ececff;fill-opacity:1;fill-rule:nonzero;stroke:#9370db;stroke-width:1.875;stroke-linecap:butt;stroke-linejoin:miter;stroke-miterlimit:4;stroke-dasharray:none;stroke-opacity:1"
       transform="scale(1.3333333)" />
    <text
       id="text48"
       xml:space="preserve"
       transform="matrix(1.3333333,0,0,1.3333333,390.73958,87.998047)"><tspan
         id="tspan48"
         style="font-variant:normal;font-weight:normal;font-size:15px;font-family:'Trebuchet MS';writing-mode:lr-tb;fill:#333333;fill-opacity:1;fill-rule:nonzero;stroke:none"
         x="0"
         y="0">Image2</tspan></text>
    <path
       id="path49"
       d="M 485.586,36 H 598.188 V 83.328 H 485.586 Z"
       style="fill:#ececff;fill-opacity:1;fill-rule:nonzero;stroke:#9370db;stroke-width:1.875;stroke-linecap:butt;stroke-linejoin:miter;stroke-miterlimit:4;stroke-dasharray:none;stroke-opacity:1"
       transform="scale(1.3333333)" />
    <text
       id="text49"
       xml:space="preserve"
       transform="matrix(1.3333333,0,0,1.3333333,690.45833,87.998047)"><tspan
         id="tspan49"
         style="font-variant:normal;font-weight:normal;font-size:15px;font-family:'Trebuchet MS';writing-mode:lr-tb;fill:#333333;fill-opacity:1;fill-rule:nonzero;stroke:none"
         x="0"
         y="0">Image3</tspan></text>
    <path
       id="path50"
       d="m 251.266,143.328 h 131.66 v 63.824 h -131.66 z"
       style="fill:#ececff;fill-opacity:1;fill-rule:nonzero;stroke:#9370db;stroke-width:1.875;stroke-linecap:butt;stroke-linejoin:miter;stroke-miterlimit:4;stroke-dasharray:none;stroke-opacity:1"
       transform="scale(1.3333333)" />
    <text
       id="text50"
       xml:space="preserve"
       transform="matrix(1.3333333,0,0,1.3333333,375.02083,231.10221)"><tspan
         id="tspan50"
         style="font-variant:normal;font-weight:normal;font-size:15px;font-family:'Trebuchet MS';writing-mode:lr-tb;fill:#333333;fill-opacity:1;fill-rule:nonzero;stroke:none"
         x="0"
         dx="0 -0.70499998"
         y="0">Preprocess</tspan><tspan
         id="tspan51"
         style="font-variant:normal;font-weight:normal;font-size:15px;font-family:'Trebuchet MS';writing-mode:lr-tb;fill:#333333;fill-opacity:1;fill-rule:nonzero;stroke:none"
         x="4.2695251"
         y="16.5">allimages</tspan></text>
    <path
       id="path51"
       d="m 244.66,267.152 h 144.867 v 63.824 H 244.66 Z"
       style="fill:#ececff;fill-opacity:1;fill-rule:nonzero;stroke:#9370db;stroke-width:1.875;stroke-linecap:butt;stroke-linejoin:miter;stroke-miterlimit:4;stroke-dasharray:none;stroke-opacity:1"
       transform="scale(1.3333333)" />
    <text
       id="text51"
       xml:space="preserve"
       transform="matrix(1.3333333,0,0,1.3333333,366.21875,396.20117)"><tspan
         id="tspan52"
         style="font-variant:normal;font-weight:normal;font-size:15px;font-family:'Trebuchet MS';writing-mode:lr-tb;fill:#333333;fill-opacity:1;fill-rule:nonzero;stroke:none"
         x="0"
         y="0">Concatenate</tspan><tspan
         id="tspan53"
         style="font-variant:normal;font-weight:normal;font-size:15px;font-family:'Trebuchet MS';writing-mode:lr-tb;fill:#333333;fill-opacity:1;fill-rule:nonzero;stroke:none"
         x="1.070313"
         y="16.5">pixel_values</tspan></text>
    <path
       id="path53"
       d="m 220.539,390.977 h 193.113 v 80.328 H 220.539 Z"
       style="fill:#ececff;fill-opacity:1;fill-rule:nonzero;stroke:#9370db;stroke-width:1.875;stroke-linecap:butt;stroke-linejoin:miter;stroke-miterlimit:4;stroke-dasharray:none;stroke-opacity:1"
       transform="scale(1.3333333)" />
    <text
       id="text53"
       xml:space="preserve"
       transform="matrix(1.3333333,0,0,1.3333333,334.05208,561.30534)"><tspan
         id="tspan54"
         style="font-variant:normal;font-weight:normal;font-size:15px;font-family:'Trebuchet MS';writing-mode:lr-tb;fill:#333333;fill-opacity:1;fill-rule:nonzero;stroke:none"
         x="0"
         y="0">model.batch_chat()</tspan><tspan
         id="tspan55"
         style="font-variant:normal;font-weight:normal;font-size:15px;font-family:'Trebuchet MS';writing-mode:lr-tb;fill:#333333;fill-opacity:1;fill-rule:nonzero;stroke:none"
         x="16.410151"
         y="16.5">Samedetection</tspan><tspan
         id="tspan56"
         style="font-variant:normal;font-weight:normal;font-size:15px;font-family:'Trebuchet MS';writing-mode:lr-tb;fill:#333333;fill-opacity:1;fill-rule:nonzero;stroke:none"
         x="33.515625"
         y="33">promptxN</tspan></text>
    <path
       id="path56"
       d="m 36,531.305 h 103.312 v 47.328 H 36 Z"
       style="fill:#ececff;fill-opacity:1;fill-rule:nonzero;stroke:#9370db;stroke-width:1.875;stroke-linecap:butt;stroke-linejoin:miter;stroke-miterlimit:4;stroke-dasharray:none;stroke-opacity:1"
       transform="scale(1.3333333)" />
    <text
       id="text56"
       xml:space="preserve"
       transform="matrix(1.3333333,0,0,1.3333333,91.020833,748.4043)"><tspan
         id="tspan57"
         style="font-variant:normal;font-weight:normal;font-size:15px;font-family:'Trebuchet MS';writing-mode:lr-tb;fill:#333333;fill-opacity:1;fill-rule:nonzero;stroke:none"
         x="0"
         dx="0 -1.725"
         y="0">Type1</tspan></text>
    <path
       id="path57"
       d="M 265.438,531.305 H 368.75 v 47.328 H 265.438 Z"
       style="fill:#ececff;fill-opacity:1;fill-rule:nonzero;stroke:#9370db;stroke-width:1.875;stroke-linecap:butt;stroke-linejoin:miter;stroke-miterlimit:4;stroke-dasharray:none;stroke-opacity:1"
       transform="scale(1.3333333)" />
    <text
       id="text57"
       xml:space="preserve"
       transform="matrix(1.3333333,0,0,1.3333333,396.9375,748.4043)"><tspan
         id="tspan58"
         style="font-variant:normal;font-weight:normal;font-size:15px;font-family:'Trebuchet MS';writing-mode:lr-tb;fill:#333333;fill-opacity:1;fill-rule:nonzero;stroke:none"
         x="0"
         dx="0 -1.725"
         y="0">Type2</tspan></text>
    <path
       id="path58"
       d="m 494.875,531.305 h 103.312 v 47.328 H 494.875 Z"
       style="fill:#ececff;fill-opacity:1;fill-rule:nonzero;stroke:#9370db;stroke-width:1.875;stroke-linecap:butt;stroke-linejoin:miter;stroke-miterlimit:4;stroke-dasharray:none;stroke-opacity:1"
       transform="scale(1.3333333)" />
    <text
       id="text58"
       xml:space="preserve"
       transform="matrix(1.3333333,0,0,1.3333333,702.85417,748.4043)"><tspan
         id="tspan59"
         style="font-variant:normal;font-weight:normal;font-size:15px;font-family:'Trebuchet MS';writing-mode:lr-tb;fill:#333333;fill-opacity:1;fill-rule:nonzero;stroke:none"
         x="0"
         dx="0 -1.725"
         y="0">Type3</tspan></text>
    <path
       id="path59"
       d="m 254.617,680.309 c 0,6.449 -5.23,11.675 -11.679,11.675 -6.45,0 -11.676,-5.226 -11.676,-11.675 0,-6.45 5.226,-11.676 11.676,-11.676 6.449,0 11.679,5.226 11.679,11.676 z"
       style="fill:#ececff;fill-opacity:1;fill-rule:nonzero;stroke:#9370db;stroke-width:1.875;stroke-linecap:butt;stroke-linejoin:miter;stroke-miterlimit:4;stroke-dasharray:none;stroke-opacity:1"
       transform="scale(1.3333333)" />
    <text
       id="text59"
       xml:space="preserve"
       transform="matrix(1.3333333,0,0,1.3333333,318.35417,915.57617)"><tspan
         id="tspan60"
         style="font-variant:normal;font-weight:normal;font-size:15px;font-family:'Trebuchet MS';writing-mode:lr-tb;fill:#333333;fill-opacity:1;fill-rule:nonzero;stroke:none"
         x="0"
         y="0">X</tspan></text>
    <path
       id="path60"
       d="m 558.211,680.309 c 0,6.449 -5.227,11.675 -11.68,11.675 -6.449,0 -11.676,-5.226 -11.676,-11.675 0,-6.45 5.227,-11.676 11.676,-11.676 6.453,0 11.68,5.226 11.68,11.676 z"
       style="fill:#ececff;fill-opacity:1;fill-rule:nonzero;stroke:#9370db;stroke-width:1.875;stroke-linecap:butt;stroke-linejoin:miter;stroke-miterlimit:4;stroke-dasharray:none;stroke-opacity:1"
       transform="scale(1.3333333)" />
    <text
       id="text60"
       xml:space="preserve"
       transform="matrix(1.3333333,0,0,1.3333333,723.14583,915.57617)"><tspan
         id="tspan61"
         style="font-variant:normal;font-weight:normal;font-size:15px;font-family:'Trebuchet MS';writing-mode:lr-tb;fill:#333333;fill-opacity:1;fill-rule:nonzero;stroke:none"
         x="0"
         y="0">X</tspan></text>
  </g>
</svg>
