<?xml version="1.0" encoding="UTF-8" standalone="no"?>
<!-- Created with Inkscape (http://www.inkscape.org/) -->

<svg
   version="1.1"
   id="svg1"
   width="713.76562"
   height="101"
   viewBox="0 0 713.76562 101"
   xmlns="http://www.w3.org/2000/svg"
   xmlns:svg="http://www.w3.org/2000/svg">
  <defs
     id="defs1">
    <clipPath
       clipPathUnits="userSpaceOnUse"
       id="clipPath3">
      <path
         d="m 261.86701,34.875001 h 6 v 6 h -6 z"
         id="path3" />
    </clipPath>
    <clipPath
       clipPathUnits="userSpaceOnUse"
       id="clipPath6">
      <path
         d="m 499.34801,34.875001 h 6 v 6 h -6 z"
         id="path6" />
    </clipPath>
  </defs>
  <g
     id="g1">
    <path
       id="path1"
       d="m 120.035,37.875 h 12.32 c 12.317,0 36.957,0 61.098,0 24.137,0 47.774,0 59.594,0 h 11.82"
       style="fill:none;stroke:#333333;stroke-width:2.25;stroke-linecap:butt;stroke-linejoin:miter;stroke-miterlimit:4;stroke-dasharray:none;stroke-opacity:1"
       transform="scale(1.3333333)" />
    <path
       id="path2"
       d="m 261.867,34.875 6,3 -6,3 z"
       style="fill:#333333;fill-opacity:1;fill-rule:nonzero;stroke:#333333;stroke-width:1.8;stroke-linecap:butt;stroke-linejoin:miter;stroke-miterlimit:4;stroke-dasharray:none;stroke-opacity:1"
       transform="scale(1.3333333)"
       clip-path="url(#clipPath3)" />
    <path
       id="path4"
       d="m 445.348,37.875 h 5 c 5,0 15,0 24.5,0 9.5,0 18.5,0 23,0 h 4.5"
       style="fill:none;stroke:#333333;stroke-width:2.25;stroke-linecap:butt;stroke-linejoin:miter;stroke-miterlimit:4;stroke-dasharray:none;stroke-opacity:1"
       transform="scale(1.3333333)" />
    <path
       id="path5"
       d="m 499.348,34.875 6,3 -6,3 z"
       style="fill:#333333;fill-opacity:1;fill-rule:nonzero;stroke:#333333;stroke-width:1.8;stroke-linecap:butt;stroke-linejoin:miter;stroke-miterlimit:4;stroke-dasharray:none;stroke-opacity:1"
       transform="scale(1.3333333)"
       clip-path="url(#clipPath6)" />
    <path
       d="m 148.535,27 h 87.832 v 20.25 h -87.832 z"
       style="fill:#ffffff;fill-opacity:1;fill-rule:nonzero;stroke:none"
       transform="scale(1.3333333)"
       opacity="0.5"
       id="path7" />
    <text
       id="text7"
       xml:space="preserve"
       transform="matrix(1.3333333,0,0,1.3333333,200.04687,55.001303)"><tspan
         id="tspan7"
         style="font-variant:normal;font-weight:300;font-size:13.5px;font-family:'Hiragino Sans';writing-mode:lr-tb;fill:#333333;fill-opacity:1;fill-rule:nonzero;stroke:none"
         x="0"
         y="0">①</tspan><tspan
         id="tspan8"
         style="font-variant:normal;font-weight:normal;font-size:13.5px;font-family:'Trebuchet MS';writing-mode:lr-tb;fill:#333333;fill-opacity:1;fill-rule:nonzero;stroke:none"
         x="13.5"
         y="0">Loadtiles</tspan></text>
    <path
       id="path8"
       d="M 6,6 H 120.035 V 69.75 H 6 Z"
       style="fill:#ff9800;fill-opacity:1;fill-rule:nonzero;stroke:#e65100;stroke-width:2.25;stroke-linecap:butt;stroke-linejoin:miter;stroke-miterlimit:4;stroke-dasharray:none;stroke-opacity:1"
       transform="scale(1.3333333)" />
    <text
       id="text8"
       xml:space="preserve"
       transform="matrix(1.3333333,0,0,1.3333333,58.291667,47.998047)"><tspan
         id="tspan9"
         style="font-variant:normal;font-weight:normal;font-size:15px;font-family:'Trebuchet MS';writing-mode:lr-tb;fill:#ffffff;fill-opacity:1;fill-rule:nonzero;stroke:none"
         x="0"
         dx="0 -0.405"
         y="0">Q,K,V</tspan><tspan
         id="tspan10"
         style="font-variant:normal;font-weight:normal;font-size:15px;font-family:'Trebuchet MS';writing-mode:lr-tb;fill:#ffffff;fill-opacity:1;fill-rule:nonzero;stroke:none"
         x="-5.4531298"
         y="16.5">inVRAM</tspan></text>
    <path
       id="path10"
       d="m 267.867,6 h 177.48 v 63.75 h -177.48 z"
       style="fill:#bbdefb;fill-opacity:1;fill-rule:nonzero;stroke:#1565c0;stroke-width:2.25;stroke-linecap:butt;stroke-linejoin:miter;stroke-miterlimit:4;stroke-dasharray:none;stroke-opacity:1"
       transform="scale(1.3333333)" />
    <text
       id="text10"
       xml:space="preserve"
       transform="matrix(1.3333333,0,0,1.3333333,451.85417,47.998047)"><tspan
         id="tspan11"
         style="font-variant:normal;font-weight:normal;font-size:15px;font-family:'Trebuchet MS';writing-mode:lr-tb;fill:#333333;fill-opacity:1;fill-rule:nonzero;stroke:none"
         x="0"
         y="0">SRAM</tspan><tspan
         id="tspan12"
         style="font-variant:normal;font-weight:normal;font-size:15px;font-family:'Trebuchet MS';writing-mode:lr-tb;fill:#333333;fill-opacity:1;fill-rule:nonzero;stroke:none"
         x="-31.972651"
         dx="0 0 0 0 0 -0.41999999"
         y="16.5">LoadQ,K,Vtiles</tspan></text>
    <path
       id="path12"
       d="m 529.324,37.875 c 0,6.621 -5.367,11.988 -11.988,11.988 -6.621,0 -11.988,-5.367 -11.988,-11.988 0,-6.621 5.367,-11.988 11.988,-11.988 6.621,0 11.988,5.367 11.988,11.988 z"
       style="fill:#ececff;fill-opacity:1;fill-rule:nonzero;stroke:#9370db;stroke-width:1.875;stroke-linecap:butt;stroke-linejoin:miter;stroke-miterlimit:4;stroke-dasharray:none;stroke-opacity:1"
       transform="scale(1.3333333)" />
    <text
       id="text12"
       xml:space="preserve"
       transform="matrix(1.3333333,0,0,1.3333333,683.80208,58.998047)"><tspan
         id="tspan13"
         style="font-variant:normal;font-weight:normal;font-size:15px;font-family:'Trebuchet MS';writing-mode:lr-tb;fill:#333333;fill-opacity:1;fill-rule:nonzero;stroke:none"
         x="0"
         y="0">C</tspan></text>
  </g>
</svg>
