<?xml version="1.0" encoding="UTF-8" standalone="no"?>
<!-- Created with Inkscape (http://www.inkscape.org/) -->

<svg
   version="1.1"
   id="svg1"
   width="1550.8281"
   height="252.62695"
   viewBox="0 0 1550.8281 252.62695"
   xmlns="http://www.w3.org/2000/svg"
   xmlns:svg="http://www.w3.org/2000/svg">
  <defs
     id="defs1">
    <clipPath
       clipPathUnits="userSpaceOnUse"
       id="clipPath4">
      <path
         d="m 113.977,64.895002 h 6 v 6 h -6 z"
         id="path4" />
    </clipPath>
    <clipPath
       clipPathUnits="userSpaceOnUse"
       id="clipPath7">
      <path
         d="m 311.23801,64.895002 h 6 v 6 h -6 z"
         id="path7" />
    </clipPath>
    <clipPath
       clipPathUnits="userSpaceOnUse"
       id="clipPath10">
      <path
         d="m 484.69901,64.895002 h 6 v 6 h -6 z"
         id="path10" />
    </clipPath>
    <clipPath
       clipPathUnits="userSpaceOnUse"
       id="clipPath12">
      <path
         d="m 659.27002,73.891002 5.64,2.043 -2.043,5.64 -5.64,-2.043 z"
         id="path12" />
    </clipPath>
    <clipPath
       clipPathUnits="userSpaceOnUse"
       id="clipPath14">
      <path
         d="m 606.48854,-145.7464 5.64016,4.4e-4 -4.4e-4,5.64016 -5.64016,-4.4e-4 z"
         id="path14" />
    </clipPath>
    <clipPath
       clipPathUnits="userSpaceOnUse"
       id="clipPath16">
      <path
         d="m 876,97.333333 h 10.66667 V 108 H 876 Z"
         id="path16" />
    </clipPath>
    <clipPath
       clipPathUnits="userSpaceOnUse"
       id="clipPath18">
      <path
         d="m 29.688001,117.902 -4.555,-3.906 3.906,-4.555 4.555,3.907 z"
         id="path18" />
    </clipPath>
    <clipPath
       clipPathUnits="userSpaceOnUse"
       id="clipPath20">
      <path
         d="m -75.367046,-53.247855 4.55424,-8.87e-4 8.86e-4,4.55424 -4.554734,3.1e-4 z"
         id="path20" />
    </clipPath>
    <clipPath
       clipPathUnits="userSpaceOnUse"
       id="clipPath22">
      <path
         d="m 33.333333,146.66667 h 12 v 10.66666 h -12 z"
         id="path22" />
    </clipPath>
    <clipPath
       clipPathUnits="userSpaceOnUse"
       id="clipPath25">
      <path
         d="m 1029.727,100.914 h 6 v 6 h -6 z"
         id="path25" />
    </clipPath>
  </defs>
  <g
     id="g1">
    <path
       id="path1"
       d="M 89.977,6 H 832.875 V 183.469 H 89.977 Z"
       style="fill:#e8f5e9;fill-opacity:1;fill-rule:nonzero;stroke:#2e7d32;stroke-width:2.25;stroke-linecap:butt;stroke-linejoin:miter;stroke-miterlimit:4;stroke-dasharray:none;stroke-opacity:1"
       transform="scale(1.3333333)" />
    <text
       id="text1"
       xml:space="preserve"
       transform="matrix(1.3333333,0,0,1.3333333,531.13542,27.998047)"><tspan
         id="tspan1"
         style="font-variant:normal;font-weight:normal;font-size:15px;font-family:'Trebuchet MS';writing-mode:lr-tb;fill:#333333;fill-opacity:1;fill-rule:nonzero;stroke:none"
         x="0"
         dx="0 0 0 0 0 0 0 0 0 0 -0.465"
         y="0">FusedSRAMKernel</tspan></text>
    <path
       id="path2"
       d="m 27.086,96.105 5.484,-4.699 c 5.481,-4.703 16.442,-14.109 26.926,-18.808 10.481,-4.703 20.481,-4.703 29.981,-4.703 9.5,0 18.5,0 23,0 h 4.5"
       style="fill:none;stroke:#333333;stroke-width:2.25;stroke-linecap:butt;stroke-linejoin:miter;stroke-miterlimit:4;stroke-dasharray:none;stroke-opacity:1"
       transform="scale(1.3333333)" />
    <path
       id="path3"
       d="m 113.977,64.895 6,3 -6,3 z"
       style="fill:#333333;fill-opacity:1;fill-rule:nonzero;stroke:#333333;stroke-width:1.8;stroke-linecap:butt;stroke-linejoin:miter;stroke-miterlimit:4;stroke-dasharray:none;stroke-opacity:1"
       transform="scale(1.3333333)"
       clip-path="url(#clipPath4)" />
    <path
       id="path5"
       d="m 257.238,67.895 h 5 c 5,0 15,0 24.5,0 9.5,0 18.5,0 23,0 h 4.5"
       style="fill:none;stroke:#333333;stroke-width:2.25;stroke-linecap:butt;stroke-linejoin:miter;stroke-miterlimit:4;stroke-dasharray:none;stroke-opacity:1"
       transform="scale(1.3333333)" />
    <path
       id="path6"
       d="m 311.238,64.895 6,3 -6,3 z"
       style="fill:#333333;fill-opacity:1;fill-rule:nonzero;stroke:#333333;stroke-width:1.8;stroke-linecap:butt;stroke-linejoin:miter;stroke-miterlimit:4;stroke-dasharray:none;stroke-opacity:1"
       transform="scale(1.3333333)"
       clip-path="url(#clipPath7)" />
    <path
       id="path8"
       d="m 430.699,67.895 h 5 c 5,0 15,0 24.5,0 9.5,0 18.5,0 23,0 h 4.5"
       style="fill:none;stroke:#333333;stroke-width:2.25;stroke-linecap:butt;stroke-linejoin:miter;stroke-miterlimit:4;stroke-dasharray:none;stroke-opacity:1"
       transform="scale(1.3333333)" />
    <path
       id="path9"
       d="m 484.699,64.895 6,3 -6,3 z"
       style="fill:#333333;fill-opacity:1;fill-rule:nonzero;stroke:#333333;stroke-width:1.8;stroke-linecap:butt;stroke-linejoin:miter;stroke-miterlimit:4;stroke-dasharray:none;stroke-opacity:1"
       transform="scale(1.3333333)"
       clip-path="url(#clipPath10)" />
    <path
       id="path11"
       d="m 603.891,67.895 h 5 c 5,0 15,0 24.531,1.64 9.527,1.641 18.59,4.918 23.117,6.559 l 4.531,1.64"
       style="fill:none;stroke:#333333;stroke-width:2.25;stroke-linecap:butt;stroke-linejoin:miter;stroke-miterlimit:4;stroke-dasharray:none;stroke-opacity:1"
       transform="scale(1.3333333)" />
    <g
       id="g13">
      <path
         d="m 659.27,73.891 4.621,4.863 -6.664,0.777 z"
         style="fill:#333333;fill-opacity:1;fill-rule:nonzero;stroke:none"
         transform="scale(1.3333333)"
         clip-path="url(#clipPath12)"
         id="path13" />
    </g>
    <g
       id="g15"
       clip-path="url(#clipPath16)">
      <path
         d="m 606.488,-145.747 5.642,2.82 -5.642,2.821 z"
         style="fill:none;stroke:#333333;stroke-width:1.69244;stroke-linecap:butt;stroke-linejoin:miter;stroke-miterlimit:4;stroke-dasharray:none;stroke-opacity:1"
         transform="matrix(1.3333333,0.48286133,-0.48286133,1.3333333,0,0)"
         clip-path="url(#clipPath14)"
         id="path15" />
    </g>
    <path
       id="path17"
       d="m 663.891,129.07 -5,1.813 c -5,1.808 -15,5.429 -34.434,7.238 -19.43,1.813 -48.297,1.813 -77.16,1.813 -28.867,0 -57.731,0 -86.621,0 -28.887,0 -57.797,0 -86.707,0 -28.91,0 -57.821,0 -88.715,0 -30.895,0 -63.77,0 -96.645,0 -32.879,0 -65.754,0 -87.195,0 -21.437,0 -31.437,0 -41.539,-4.379 C 49.773,131.18 39.57,122.426 34.465,118.047 l -5.102,-4.375"
       style="fill:none;stroke:#333333;stroke-width:2.25;stroke-linecap:butt;stroke-linejoin:miter;stroke-miterlimit:4;stroke-dasharray:1.5, 1.5;stroke-dashoffset:0;stroke-opacity:1"
       transform="scale(1.3333333)" />
    <g
       id="g19">
      <path
         d="m 29.688,117.902 -2.602,-6.183 6.508,1.629 z"
         style="fill:#333333;fill-opacity:1;fill-rule:nonzero;stroke:none"
         transform="scale(1.3333333)"
         clip-path="url(#clipPath18)"
         id="path19" />
    </g>
    <g
       id="g21"
       clip-path="url(#clipPath22)">
      <path
         d="m -75.367,-53.248 4.555,2.276 -4.554,2.278 z"
         style="fill:none;stroke:#333333;stroke-width:1.36618;stroke-linecap:butt;stroke-linejoin:miter;stroke-miterlimit:4;stroke-dasharray:none;stroke-opacity:1"
         transform="matrix(-1.3333333,-1.1438093,1.1438093,-1.3333333,0,0)"
         clip-path="url(#clipPath20)"
         id="path21" />
    </g>
    <path
       id="path23"
       d="m 802.875,103.914 h 5 c 5,0 15,0 36.902,0 21.907,0 55.715,0 89.024,0 33.308,0 66.117,0 82.519,0 h 16.407"
       style="fill:none;stroke:#333333;stroke-width:2.25;stroke-linecap:butt;stroke-linejoin:miter;stroke-miterlimit:4;stroke-dasharray:none;stroke-opacity:1"
       transform="scale(1.3333333)" />
    <path
       id="path24"
       d="m 1029.727,100.914 6,3 -6,3 z"
       style="fill:#333333;fill-opacity:1;fill-rule:nonzero;stroke:#333333;stroke-width:1.8;stroke-linecap:butt;stroke-linejoin:miter;stroke-miterlimit:4;stroke-dasharray:none;stroke-opacity:1"
       transform="scale(1.3333333)"
       clip-path="url(#clipPath25)" />
    <path
       d="m 339.812,129.02 h 65.312 v 20.324 h -65.312 z"
       style="fill:#ffffff;fill-opacity:1;fill-rule:nonzero;stroke:none"
       transform="scale(1.3333333)"
       opacity="0.5"
       id="path26" />
    <text
       id="text26"
       xml:space="preserve"
       transform="matrix(1.3333333,0,0,1.3333333,455.08333,191.02637)"><tspan
         id="tspan26"
         style="font-variant:normal;font-weight:normal;font-size:13.5px;font-family:'Trebuchet MS';writing-mode:lr-tb;fill:#333333;fill-opacity:1;fill-rule:nonzero;stroke:none"
         x="0"
         y="0">looptiles</tspan></text>
    <path
       d="m 861.375,93 h 142.852 v 20.328 H 861.375 Z"
       style="fill:#ffffff;fill-opacity:1;fill-rule:nonzero;stroke:none"
       transform="scale(1.3333333)"
       opacity="0.5"
       id="path27" />
    <text
       id="text27"
       xml:space="preserve"
       transform="matrix(1.3333333,0,0,1.3333333,1150.5,143.0013)"><tspan
         id="tspan27"
         style="font-variant:normal;font-weight:300;font-size:13.5px;font-family:'Hiragino Sans';writing-mode:lr-tb;fill:#333333;fill-opacity:1;fill-rule:nonzero;stroke:none"
         x="0"
         y="0">②</tspan><tspan
         id="tspan28"
         style="font-variant:normal;font-weight:normal;font-size:13.5px;font-family:'Trebuchet MS';writing-mode:lr-tb;fill:#333333;fill-opacity:1;fill-rule:nonzero;stroke:none"
         x="13.5"
         dx="0 -0.67500001"
         y="0">Writefinaloutput</tspan></text>
    <path
       id="path28"
       d="m 29.977,103.914 c 0,6.621 -5.368,11.988 -11.989,11.988 C 11.367,115.902 6,110.535 6,103.914 6,97.293 11.367,91.926 17.988,91.926 c 6.621,0 11.989,5.367 11.989,11.988 z"
       style="fill:#ececff;fill-opacity:1;fill-rule:nonzero;stroke:#9370db;stroke-width:1.875;stroke-linecap:butt;stroke-linejoin:miter;stroke-miterlimit:4;stroke-dasharray:none;stroke-opacity:1"
       transform="scale(1.3333333)" />
    <text
       id="text28"
       xml:space="preserve"
       transform="matrix(1.3333333,0,0,1.3333333,18.005208,147.05013)"><tspan
         id="tspan29"
         style="font-variant:normal;font-weight:normal;font-size:15px;font-family:'Trebuchet MS';writing-mode:lr-tb;fill:#333333;fill-opacity:1;fill-rule:nonzero;stroke:none"
         x="0"
         y="0">C</tspan></text>
    <path
       id="path29"
       d="M 119.977,36.02 H 257.239 V 99.77 H 119.977 Z"
       style="fill:#c8e6c9;fill-opacity:1;fill-rule:nonzero;stroke:#2e7d32;stroke-width:1.875;stroke-linecap:butt;stroke-linejoin:miter;stroke-miterlimit:4;stroke-dasharray:none;stroke-opacity:1"
       transform="scale(1.3333333)" />
    <text
       id="text29"
       xml:space="preserve"
       transform="matrix(1.3333333,0,0,1.3333333,220.95833,88.024088)"><tspan
         id="tspan30"
         style="font-variant:normal;font-weight:normal;font-size:15px;font-family:'Trebuchet MS';writing-mode:lr-tb;fill:#333333;fill-opacity:1;fill-rule:nonzero;stroke:none"
         x="0"
         y="0">S_tile=</tspan><tspan
         id="tspan31"
         style="font-variant:normal;font-weight:normal;font-size:15px;font-family:'Trebuchet MS';writing-mode:lr-tb;fill:#333333;fill-opacity:1;fill-rule:nonzero;stroke:none"
         x="-6.8281202"
         dx="0 -0.405"
         y="16.5">Q×KT/√d</tspan></text>
    <path
       id="path31"
       d="M 317.238,36.02 H 430.699 V 99.77 H 317.238 Z"
       style="fill:#c8e6c9;fill-opacity:1;fill-rule:nonzero;stroke:#2e7d32;stroke-width:1.875;stroke-linecap:butt;stroke-linejoin:miter;stroke-miterlimit:4;stroke-dasharray:none;stroke-opacity:1"
       transform="scale(1.3333333)" />
    <text
       id="text31"
       xml:space="preserve"
       transform="matrix(1.3333333,0,0,1.3333333,469.70313,88.024088)"><tspan
         id="tspan32"
         style="font-variant:normal;font-weight:normal;font-size:15px;font-family:'Trebuchet MS';writing-mode:lr-tb;fill:#333333;fill-opacity:1;fill-rule:nonzero;stroke:none"
         x="0"
         y="0">Online</tspan><tspan
         id="tspan33"
         style="font-variant:normal;font-weight:normal;font-size:15px;font-family:'Trebuchet MS';writing-mode:lr-tb;fill:#333333;fill-opacity:1;fill-rule:nonzero;stroke:none"
         x="-5.0390701"
         y="16.5">softmax</tspan></text>
    <path
       id="path33"
       d="M 490.699,36.02 H 603.89 V 99.77 H 490.699 Z"
       style="fill:#c8e6c9;fill-opacity:1;fill-rule:nonzero;stroke:#2e7d32;stroke-width:1.875;stroke-linecap:butt;stroke-linejoin:miter;stroke-miterlimit:4;stroke-dasharray:none;stroke-opacity:1"
       transform="scale(1.3333333)" />
    <text
       id="text33"
       xml:space="preserve"
       transform="matrix(1.3333333,0,0,1.3333333,697.28125,88.024088)"><tspan
         id="tspan34"
         style="font-variant:normal;font-weight:normal;font-size:15px;font-family:'Trebuchet MS';writing-mode:lr-tb;fill:#333333;fill-opacity:1;fill-rule:nonzero;stroke:none"
         x="0"
         y="0">O_tile=</tspan><tspan
         id="tspan35"
         style="font-variant:normal;font-weight:normal;font-size:15px;font-family:'Trebuchet MS';writing-mode:lr-tb;fill:#333333;fill-opacity:1;fill-rule:nonzero;stroke:none"
         x="11.8125"
         y="16.5">P×V</tspan></text>
    <path
       id="path35"
       d="m 663.891,72 h 138.984 v 63.828 H 663.891 Z"
       style="fill:#c8e6c9;fill-opacity:1;fill-rule:nonzero;stroke:#2e7d32;stroke-width:1.875;stroke-linecap:butt;stroke-linejoin:miter;stroke-miterlimit:4;stroke-dasharray:none;stroke-opacity:1"
       transform="scale(1.3333333)" />
    <text
       id="text35"
       xml:space="preserve"
       transform="matrix(1.3333333,0,0,1.3333333,925.19271,135.99805)"><tspan
         id="tspan36"
         style="font-variant:normal;font-weight:normal;font-size:15px;font-family:'Trebuchet MS';writing-mode:lr-tb;fill:#333333;fill-opacity:1;fill-rule:nonzero;stroke:none"
         x="0"
         y="0">Accumulate</tspan><tspan
         id="tspan37"
         style="font-variant:normal;font-weight:normal;font-size:15px;font-family:'Trebuchet MS';writing-mode:lr-tb;fill:#333333;fill-opacity:1;fill-rule:nonzero;stroke:none"
         x="17.140619"
         y="16.5">output</tspan></text>
    <path
       id="path37"
       d="m 1035.727,72.039 h 121.395 v 63.75 h -121.395 z"
       style="fill:#4caf50;fill-opacity:1;fill-rule:nonzero;stroke:#2e7d32;stroke-width:2.25;stroke-linecap:butt;stroke-linejoin:miter;stroke-miterlimit:4;stroke-dasharray:none;stroke-opacity:1"
       transform="scale(1.3333333)" />
    <text
       id="text37"
       xml:space="preserve"
       transform="matrix(1.3333333,0,0,1.3333333,1423.9948,136.05013)"><tspan
         id="tspan38"
         style="font-variant:normal;font-weight:normal;font-size:15px;font-family:'Trebuchet MS';writing-mode:lr-tb;fill:#ffffff;fill-opacity:1;fill-rule:nonzero;stroke:none"
         x="0"
         y="0">OutputO</tspan><tspan
         id="tspan39"
         style="font-variant:normal;font-weight:normal;font-size:15px;font-family:'Trebuchet MS';writing-mode:lr-tb;fill:#ffffff;fill-opacity:1;fill-rule:nonzero;stroke:none"
         x="3.6757801"
         y="16.5">inVRAM</tspan></text>
  </g>
</svg>
