<?xml version="1.0" encoding="UTF-8" standalone="no"?>
<!-- Created with Inkscape (http://www.inkscape.org/) -->

<svg
   version="1.1"
   id="svg1"
   width="554.73438"
   height="965.57812"
   viewBox="0 0 554.73438 965.57812"
   xmlns="http://www.w3.org/2000/svg"
   xmlns:svg="http://www.w3.org/2000/svg">
  <defs
     id="defs1">
    <clipPath
       clipPathUnits="userSpaceOnUse"
       id="clipPath2">
      <path
         d="m 110.16767,-200.42481 5.99999,9.5e-4 -9.5e-4,5.99999 -5.99999,-9.5e-4 z"
         id="path2" />
    </clipPath>
    <clipPath
       clipPathUnits="userSpaceOnUse"
       id="clipPath4">
      <path
         d="m 260,142.66667 h 9.33333 V 152 H 260 Z"
         id="path4" />
    </clipPath>
    <clipPath
       clipPathUnits="userSpaceOnUse"
       id="clipPath6">
      <path
         d="m 82.895002,664.36302 1.246,5.867 -5.868,1.247 -1.246,-5.868 z"
         id="path6" />
    </clipPath>
    <clipPath
       clipPathUnits="userSpaceOnUse"
       id="clipPath8">
      <path
         d="m 652.52022,55.740755 5.8669,4.92e-4 2.6e-4,5.868056 -5.86785,-6.96e-4 z"
         id="path8" />
    </clipPath>
    <clipPath
       clipPathUnits="userSpaceOnUse"
       id="clipPath10">
      <path
         d="m 102.66667,885.33333 h 10.66666 V 896 h -10.66666 z"
         id="path10" />
    </clipPath>
    <clipPath
       clipPathUnits="userSpaceOnUse"
       id="clipPath12">
      <path
         d="m 377.33009,-291.88034 6,4.4e-4 -4.5e-4,6 -5.99999,-4.4e-4 z"
         id="path12" />
    </clipPath>
    <clipPath
       clipPathUnits="userSpaceOnUse"
       id="clipPath14">
      <path
         d="m 385.33333,498.66667 h 9.33334 V 508 h -9.33334 z"
         id="path14" />
    </clipPath>
    <clipPath
       clipPathUnits="userSpaceOnUse"
       id="clipPath16">
      <path
         d="m 127.59,669.95702 -4.957,3.379 -3.379,-4.957 4.957,-3.379 z"
         id="path16" />
    </clipPath>
    <clipPath
       clipPathUnits="userSpaceOnUse"
       id="clipPath18">
      <path
         d="m 224.73902,-516.71602 4.95654,6.8e-4 -6.8e-4,4.95654 -4.95654,-6.8e-4 z"
         id="path18" />
    </clipPath>
    <clipPath
       clipPathUnits="userSpaceOnUse"
       id="clipPath20">
      <path
         d="m 158.66667,886.66667 h 12 V 896 h -12 z"
         id="path20" />
    </clipPath>
    <clipPath
       clipPathUnits="userSpaceOnUse"
       id="clipPath23">
      <path
         d="m 664.89502,-307.76601 v -6 h 6 v 6 z"
         id="path23" />
    </clipPath>
  </defs>
  <g
     id="g1">
    <path
       id="path1"
       d="m 198.5,53.328 v 4.996 c 0,5.004 0,15 0.059,24.563 0.054,9.562 0.168,18.691 0.222,23.25 l 0.059,4.566"
       style="fill:none;stroke:#333333;stroke-width:2.25;stroke-linecap:butt;stroke-linejoin:miter;stroke-miterlimit:4;stroke-dasharray:none;stroke-opacity:1"
       transform="scale(1.3333333)" />
    <g
       id="g3"
       clip-path="url(#clipPath4)">
      <path
         d="m 110.168,-200.425 6.001,3.001 -6.002,2.999 z"
         style="fill:#333333;fill-opacity:1;fill-rule:nonzero;stroke:#333333;stroke-width:1.79986;stroke-linecap:butt;stroke-linejoin:miter;stroke-miterlimit:4;stroke-dasharray:none;stroke-opacity:1"
         transform="matrix(0.01665573,1.3333333,-1.3333333,0.01665573,0,0)"
         clip-path="url(#clipPath2)"
         id="path3" />
    </g>
    <path
       id="path5"
       d="m 153.578,255.113 -13.484,14.172 C 126.609,283.461 99.645,311.809 86.164,350.199 72.68,388.59 72.68,437.016 72.68,485.445 c 0,48.43 0,96.86 1.316,127.27 1.32,30.414 3.953,42.812 5.27,49.008 l 1.32,6.199"
       style="fill:none;stroke:#333333;stroke-width:2.25;stroke-linecap:butt;stroke-linejoin:miter;stroke-miterlimit:4;stroke-dasharray:none;stroke-opacity:1"
       transform="scale(1.3333333)" />
    <g
       id="g7">
      <path
         d="m 82.895,664.363 -1.688,6.496 -4.18,-5.246 z"
         style="fill:#333333;fill-opacity:1;fill-rule:nonzero;stroke:none"
         transform="scale(1.3333333)"
         clip-path="url(#clipPath6)"
         id="path7" />
    </g>
    <g
       id="g9"
       clip-path="url(#clipPath10)">
      <path
         d="m 652.52,55.741 5.873,2.936 -5.869,2.932 z"
         style="fill:none;stroke:#333333;stroke-width:1.7607;stroke-linecap:butt;stroke-linejoin:miter;stroke-miterlimit:4;stroke-dasharray:none;stroke-opacity:1"
         transform="matrix(0.28328267,1.3333333,-1.3333333,0.28328267,0,0)"
         clip-path="url(#clipPath8)"
         id="path9" />
    </g>
    <path
       id="path11"
       d="m 237.344,261.941 9.117,13.039 c 9.117,13.036 27.351,39.11 36.527,58.395 9.176,19.285 9.293,31.785 9.352,38.035 l 0.055,6.25"
       style="fill:none;stroke:#333333;stroke-width:2.25;stroke-linecap:butt;stroke-linejoin:miter;stroke-miterlimit:4;stroke-dasharray:none;stroke-opacity:1"
       transform="scale(1.3333333)" />
    <g
       id="g13"
       clip-path="url(#clipPath14)">
      <path
         d="m 377.33,-291.881 6,3.001 -6.001,2.999 z"
         style="fill:#333333;fill-opacity:1;fill-rule:nonzero;stroke:#333333;stroke-width:1.79992;stroke-linecap:butt;stroke-linejoin:miter;stroke-miterlimit:4;stroke-dasharray:none;stroke-opacity:1"
         transform="matrix(0.01232049,1.3333333,-1.3333333,0.01232049,0,0)"
         clip-path="url(#clipPath12)"
         id="path13" />
    </g>
    <path
       id="path15"
       d="m 246.586,545.145 -11.133,14.265 c -11.133,14.262 -33.402,42.793 -53.93,63.465 -20.527,20.668 -39.316,33.48 -48.707,39.887 l -9.394,6.406"
       style="fill:none;stroke:#333333;stroke-width:2.25;stroke-linecap:butt;stroke-linejoin:miter;stroke-miterlimit:4;stroke-dasharray:none;stroke-opacity:1"
       transform="scale(1.3333333)" />
    <g
       id="g17">
      <path
         d="m 127.59,669.957 -6.649,0.898 3.266,-5.855 z"
         style="fill:#333333;fill-opacity:1;fill-rule:nonzero;stroke:none"
         transform="scale(1.3333333)"
         clip-path="url(#clipPath16)"
         id="path17" />
    </g>
    <g
       id="g19"
       clip-path="url(#clipPath20)">
      <path
         d="m 224.739,-516.716 4.957,2.481 -4.955,2.477 z"
         style="fill:none;stroke:#333333;stroke-width:1.48718;stroke-linecap:butt;stroke-linejoin:miter;stroke-miterlimit:4;stroke-dasharray:none;stroke-opacity:1"
         transform="matrix(-1.3333333,0.90914933,-0.90914933,-1.3333333,0,0)"
         clip-path="url(#clipPath18)"
         id="path19" />
    </g>
    <path
       id="path21"
       d="m 304.426,578.98 1.054,8.625 c 1.055,8.625 3.172,25.875 4.227,40.696 1.059,14.82 1.059,27.207 1.059,33.402 v 6.192"
       style="fill:none;stroke:#333333;stroke-width:2.25;stroke-linecap:butt;stroke-linejoin:miter;stroke-miterlimit:4;stroke-dasharray:none;stroke-opacity:1"
       transform="scale(1.3333333)" />
    <path
       id="path22"
       d="m 664.895,-313.766 6,3 -6,3 z"
       style="fill:#333333;fill-opacity:1;fill-rule:nonzero;stroke:#333333;stroke-width:1.8;stroke-linecap:butt;stroke-linejoin:miter;stroke-miterlimit:4;stroke-dasharray:none;stroke-opacity:1"
       transform="matrix(0,1.3333333,-1.3333333,0,0,0)"
       clip-path="url(#clipPath23)" />
    <path
       d="m 59.062,474.57 h 24.234 v 20.25 H 59.062 Z"
       style="fill:#ffffff;fill-opacity:1;fill-rule:nonzero;stroke:none"
       transform="scale(1.3333333)"
       opacity="0.5"
       id="path24" />
    <text
       id="text24"
       xml:space="preserve"
       transform="matrix(1.3333333,0,0,1.3333333,80.75,651.76074)"><tspan
         id="tspan24"
         style="font-variant:normal;font-weight:normal;font-size:13.5px;font-family:'Trebuchet MS';writing-mode:lr-tb;fill:#333333;fill-opacity:1;fill-rule:nonzero;stroke:none"
         x="0"
         dx="0 -1.4175"
         y="0">Yes</tspan></text>
    <path
       d="m 280.234,329.285 h 20.625 v 20.25 h -20.625 z"
       style="fill:#ffffff;fill-opacity:1;fill-rule:nonzero;stroke:none"
       transform="scale(1.3333333)"
       opacity="0.5"
       id="path25" />
    <text
       id="text25"
       xml:space="preserve"
       transform="matrix(1.3333333,0,0,1.3333333,375.64583,458.0472)"><tspan
         id="tspan25"
         style="font-variant:normal;font-weight:normal;font-size:13.5px;font-family:'Trebuchet MS';writing-mode:lr-tb;fill:#333333;fill-opacity:1;fill-rule:nonzero;stroke:none"
         x="0"
         y="0">No</tspan></text>
    <path
       d="m 166.168,619.859 h 24.234 v 20.25 h -24.234 z"
       style="fill:#ffffff;fill-opacity:1;fill-rule:nonzero;stroke:none"
       transform="scale(1.3333333)"
       opacity="0.5"
       id="path26" />
    <text
       id="text26"
       xml:space="preserve"
       transform="matrix(1.3333333,0,0,1.3333333,223.55729,845.47428)"><tspan
         id="tspan26"
         style="font-variant:normal;font-weight:normal;font-size:13.5px;font-family:'Trebuchet MS';writing-mode:lr-tb;fill:#333333;fill-opacity:1;fill-rule:nonzero;stroke:none"
         x="0"
         dx="0 -1.4175"
         y="0">Yes</tspan></text>
    <path
       d="m 298.953,619.859 h 20.625 v 20.25 h -20.625 z"
       style="fill:#ffffff;fill-opacity:1;fill-rule:nonzero;stroke:none"
       transform="scale(1.3333333)"
       opacity="0.5"
       id="path27" />
    <text
       id="text27"
       xml:space="preserve"
       transform="matrix(1.3333333,0,0,1.3333333,400.60417,845.47428)"><tspan
         id="tspan27"
         style="font-variant:normal;font-weight:normal;font-size:13.5px;font-family:'Trebuchet MS';writing-mode:lr-tb;fill:#333333;fill-opacity:1;fill-rule:nonzero;stroke:none"
         x="0"
         y="0">No</tspan></text>
    <path
       id="path28"
       d="M 121.738,6 H 275.265 V 53.328 H 121.738 Z"
       style="fill:#ececff;fill-opacity:1;fill-rule:nonzero;stroke:#9370db;stroke-width:1.875;stroke-linecap:butt;stroke-linejoin:miter;stroke-miterlimit:4;stroke-dasharray:none;stroke-opacity:1"
       transform="scale(1.3333333)" />
    <text
       id="text28"
       xml:space="preserve"
       transform="matrix(1.3333333,0,0,1.3333333,205.33333,47.998047)"><tspan
         id="tspan28"
         style="font-variant:normal;font-weight:normal;font-size:15px;font-family:'Trebuchet MS';writing-mode:lr-tb;fill:#333333;fill-opacity:1;fill-rule:nonzero;stroke:none"
         x="0"
         dx="0 0 0 0 -0.61500001"
         y="0">RawResponse</tspan></text>
    <path
       id="path29"
       d="M 198.5,300.035 291.855,206.68 198.5,113.328 105.148,206.68 Z"
       style="fill:#ececff;fill-opacity:1;fill-rule:nonzero;stroke:#9370db;stroke-width:1.875;stroke-linecap:butt;stroke-linejoin:miter;stroke-miterlimit:4;stroke-dasharray:none;stroke-opacity:1"
       transform="scale(1.3333333)" />
    <text
       id="text29"
       xml:space="preserve"
       transform="matrix(1.3333333,0,0,1.3333333,199.8125,262.02409)"><tspan
         id="tspan29"
         style="font-variant:normal;font-weight:normal;font-size:15px;font-family:'Trebuchet MS';writing-mode:lr-tb;fill:#333333;fill-opacity:1;fill-rule:nonzero;stroke:none"
         x="0"
         y="0">Exactsubstring</tspan><tspan
         id="tspan30"
         style="font-variant:normal;font-weight:normal;font-size:15px;font-family:'Trebuchet MS';writing-mode:lr-tb;fill:#333333;fill-opacity:1;fill-rule:nonzero;stroke:none"
         x="21.453119"
         y="16.5">matchin</tspan><tspan
         id="tspan31"
         style="font-variant:normal;font-weight:normal;font-size:15px;font-family:'Trebuchet MS';writing-mode:lr-tb;fill:#333333;fill-opacity:1;fill-rule:nonzero;stroke:none"
         x="-4.546875"
         y="33">type_mappings?</tspan></text>
    <path
       id="path31"
       d="m 6,670.859 h 160.477 v 47.324 H 6 Z"
       style="fill:#ececff;fill-opacity:1;fill-rule:nonzero;stroke:#9370db;stroke-width:1.875;stroke-linecap:butt;stroke-linejoin:miter;stroke-miterlimit:4;stroke-dasharray:none;stroke-opacity:1"
       transform="scale(1.3333333)" />
    <text
       id="text31"
       xml:space="preserve"
       transform="matrix(1.3333333,0,0,1.3333333,50.838541,934.47721)"><tspan
         id="tspan32"
         style="font-variant:normal;font-weight:normal;font-size:15px;font-family:'Trebuchet MS';writing-mode:lr-tb;fill:#333333;fill-opacity:1;fill-rule:nonzero;stroke:none"
         x="0"
         dx="0 0 0 0 0 0 0 0 0 0 -1.725"
         y="0">CanonicalType</tspan></text>
    <path
       id="path32"
       d="M 292.047,590.609 397.211,485.445 292.047,380.285 186.887,485.445 Z"
       style="fill:#ececff;fill-opacity:1;fill-rule:nonzero;stroke:#9370db;stroke-width:1.875;stroke-linecap:butt;stroke-linejoin:miter;stroke-miterlimit:4;stroke-dasharray:none;stroke-opacity:1"
       transform="scale(1.3333333)" />
    <text
       id="text32"
       xml:space="preserve"
       transform="matrix(1.3333333,0,0,1.3333333,323.36979,644.71159)"><tspan
         id="tspan33"
         style="font-variant:normal;font-weight:normal;font-size:15px;font-family:'Trebuchet MS';writing-mode:lr-tb;fill:#333333;fill-opacity:1;fill-rule:nonzero;stroke:none"
         x="0"
         dx="0 -0.465"
         y="0">Keywordmatch</tspan><tspan
         id="tspan34"
         style="font-variant:normal;font-weight:normal;font-size:15px;font-family:'Trebuchet MS';writing-mode:lr-tb;fill:#333333;fill-opacity:1;fill-rule:nonzero;stroke:none"
         x="-21.460936"
         y="16.5">infallback_keywords?</tspan></text>
    <path
       id="path34"
       d="m 211.477,670.895 h 198.574 v 47.25 H 211.477 Z"
       style="fill:#ececff;fill-opacity:1;fill-rule:nonzero;stroke:#9370db;stroke-width:1.875;stroke-linecap:butt;stroke-linejoin:miter;stroke-miterlimit:4;stroke-dasharray:none;stroke-opacity:1"
       transform="scale(1.3333333)" />
    <text
       id="text34"
       xml:space="preserve"
       transform="matrix(1.3333333,0,0,1.3333333,324.98437,934.5293)"><tspan
         id="tspan35"
         style="font-variant:normal;font-weight:normal;font-size:15px;font-family:'Trebuchet MS';writing-mode:lr-tb;fill:#333333;fill-opacity:1;fill-rule:nonzero;stroke:none"
         x="0"
         y="0">Fallback:UNIVERSAL</tspan></text>
  </g>
</svg>
