<?xml version="1.0" encoding="UTF-8" standalone="no"?>
<!-- Created with Inkscape (http://www.inkscape.org/) -->

<svg
   version="1.1"
   id="svg1"
   width="569.35938"
   height="767.85156"
   viewBox="0 0 569.35938 767.85156"
   xmlns="http://www.w3.org/2000/svg"
   xmlns:svg="http://www.w3.org/2000/svg">
  <defs
     id="defs1">
    <clipPath
       clipPathUnits="userSpaceOnUse"
       id="clipPath3">
      <path
         d="m 107.328,-160.66 v -6 h 6 v 6 z"
         id="path3" />
    </clipPath>
    <clipPath
       clipPathUnits="userSpaceOnUse"
       id="clipPath5">
      <path
         d="m 166.957,231.55101 0.074,6 -6,0.074 -0.074,-6 z"
         id="path5" />
    </clipPath>
    <clipPath
       clipPathUnits="userSpaceOnUse"
       id="clipPath7">
      <path
         d="m 233.60015,-164.03892 5.99999,9.5e-4 -9.6e-4,5.99999 -5.99998,-9.5e-4 z"
         id="path7" />
    </clipPath>
    <clipPath
       clipPathUnits="userSpaceOnUse"
       id="clipPath9">
      <path
         d="M 213.33333,308 H 224 v 9.33333 h -10.66667 z"
         id="path9" />
    </clipPath>
    <clipPath
       clipPathUnits="userSpaceOnUse"
       id="clipPath11">
      <path
         d="m 95.734002,545.37501 4.878998,3.496 -3.495998,4.879 -4.879,-3.496 z"
         id="path11" />
    </clipPath>
    <clipPath
       clipPathUnits="userSpaceOnUse"
       id="clipPath13">
      <path
         d="m 321.46708,315.0281 4.87898,-3e-5 2e-5,4.87898 -4.87898,3e-5 z"
         id="path13" />
    </clipPath>
    <clipPath
       clipPathUnits="userSpaceOnUse"
       id="clipPath15">
      <path
         d="m 122.66667,726.66667 h 12 v 10.66666 h -12 z"
         id="path15" />
    </clipPath>
    <clipPath
       clipPathUnits="userSpaceOnUse"
       id="clipPath18">
      <path
         d="m 540.43401,-105.359 v -6 h 6 v 6 z"
         id="path18" />
    </clipPath>
    <clipPath
       clipPathUnits="userSpaceOnUse"
       id="clipPath21">
      <path
         d="m 540.33201,-358.53501 v -6 h 6 v 6 z"
         id="path21" />
    </clipPath>
    <clipPath
       clipPathUnits="userSpaceOnUse"
       id="clipPath23">
      <path
         d="m 125.637,553.31601 -5.43,2.551 -2.551,-5.429 5.43,-2.551 z"
         id="path23" />
    </clipPath>
    <clipPath
       clipPathUnits="userSpaceOnUse"
       id="clipPath25">
      <path
         d="m 109.84891,-501.76194 5.431,-0.002 0.003,5.43018 -5.431,0.002 z"
         id="path25" />
    </clipPath>
    <clipPath
       clipPathUnits="userSpaceOnUse"
       id="clipPath27">
      <path
         d="m 156,729.33333 h 12 V 740 h -12 z"
         id="path27" />
    </clipPath>
  </defs>
  <g
     id="g1">
    <path
       id="path1"
       d="m 163.66,53.328 v 4.996 c 0,5.004 0,15 0,24.504 0,9.5 0,18.5 0,23 v 4.5"
       style="fill:none;stroke:#333333;stroke-width:2.25;stroke-linecap:butt;stroke-linejoin:miter;stroke-miterlimit:4;stroke-dasharray:none;stroke-opacity:1"
       transform="scale(1.3333333)" />
    <path
       id="path2"
       d="m 107.328,-166.66 6,3 -6,3 z"
       style="fill:#333333;fill-opacity:1;fill-rule:nonzero;stroke:#333333;stroke-width:1.8;stroke-linecap:butt;stroke-linejoin:miter;stroke-miterlimit:4;stroke-dasharray:none;stroke-opacity:1"
       transform="matrix(0,1.3333333,-1.3333333,0,0,0)"
       clip-path="url(#clipPath3)" />
    <path
       id="path4"
       d="m 163.66,177.211 v 5 c 0,5 0,15 0.055,24.562 0.055,9.563 0.168,18.688 0.226,23.25 l 0.055,4.563"
       style="fill:none;stroke:#333333;stroke-width:2.25;stroke-linecap:butt;stroke-linejoin:miter;stroke-miterlimit:4;stroke-dasharray:none;stroke-opacity:1"
       transform="scale(1.3333333)" />
    <g
       id="g6">
      <path
         d="m 166.957,231.551 -2.922,6.035 -3.074,-5.961 z"
         style="fill:#333333;fill-opacity:1;fill-rule:nonzero;stroke:none"
         transform="scale(1.3333333)"
         clip-path="url(#clipPath5)"
         id="path6" />
    </g>
    <g
       id="g8"
       clip-path="url(#clipPath9)">
      <path
         d="m 233.6,-164.039 5.998,2.997 -5.999,2.999 z"
         style="fill:none;stroke:#333333;stroke-width:1.79986;stroke-linecap:butt;stroke-linejoin:miter;stroke-miterlimit:4;stroke-dasharray:none;stroke-opacity:1"
         transform="matrix(0.01665573,1.3333333,-1.3333333,0.01665573,0,0)"
         clip-path="url(#clipPath7)"
         id="path8" />
    </g>
    <path
       id="path10"
       d="m 112.254,414.68 -12.723,15.254 c -12.722,15.254 -38.164,45.765 -40.801,68.246 -2.64,22.48 17.528,36.929 27.614,44.156 l 10.082,7.226"
       style="fill:none;stroke:#333333;stroke-width:2.25;stroke-linecap:butt;stroke-linejoin:miter;stroke-miterlimit:4;stroke-dasharray:none;stroke-opacity:1"
       transform="scale(1.3333333)" />
    <g
       id="g12">
      <path
         d="m 95.734,545.375 3.133,5.934 -6.625,-1.055 z"
         style="fill:#333333;fill-opacity:1;fill-rule:nonzero;stroke:none"
         transform="scale(1.3333333)"
         clip-path="url(#clipPath11)"
         id="path12" />
    </g>
    <g
       id="g14"
       clip-path="url(#clipPath15)">
      <path
         d="m 321.467,315.028 4.88,2.437 -4.877,2.44 z"
         style="fill:none;stroke:#333333;stroke-width:1.46315;stroke-linecap:butt;stroke-linejoin:miter;stroke-miterlimit:4;stroke-dasharray:none;stroke-opacity:1"
         transform="matrix(1.3333333,0.95539867,-0.95539867,1.3333333,0,0)"
         clip-path="url(#clipPath13)"
         id="path14" />
    </g>
    <path
       id="path16"
       d="m 133.879,436.305 -4.254,11.648 c -4.254,11.652 -12.762,34.953 -17.016,52.809 -4.25,17.855 -4.25,30.265 -4.25,36.468 v 6.204"
       style="fill:none;stroke:#333333;stroke-width:2.25;stroke-linecap:butt;stroke-linejoin:miter;stroke-miterlimit:4;stroke-dasharray:none;stroke-opacity:1"
       transform="scale(1.3333333)" />
    <path
       id="path17"
       d="m 540.434,-111.359 6,3 -6,3 z"
       style="fill:#333333;fill-opacity:1;fill-rule:nonzero;stroke:#333333;stroke-width:1.8;stroke-linecap:butt;stroke-linejoin:miter;stroke-miterlimit:4;stroke-dasharray:none;stroke-opacity:1"
       transform="matrix(0,1.3333333,-1.3333333,0,0,0)"
       clip-path="url(#clipPath18)" />
    <path
       id="path19"
       d="m 228.285,402.207 22.207,17.336 c 22.207,17.332 66.625,52 88.836,75.519 22.207,23.52 22.207,35.895 22.207,42.083 v 6.187"
       style="fill:none;stroke:#333333;stroke-width:2.25;stroke-linecap:butt;stroke-linejoin:miter;stroke-miterlimit:4;stroke-dasharray:none;stroke-opacity:1"
       transform="scale(1.3333333)" />
    <path
       id="path20"
       d="m 540.332,-364.535 6,3 -6,3 z"
       style="fill:#333333;fill-opacity:1;fill-rule:nonzero;stroke:#333333;stroke-width:1.8;stroke-linecap:butt;stroke-linejoin:miter;stroke-miterlimit:4;stroke-dasharray:none;stroke-opacity:1"
       transform="matrix(0,1.3333333,-1.3333333,0,0,0)"
       clip-path="url(#clipPath21)" />
    <path
       id="path22"
       d="m 194.188,436.305 4.128,11.648 c 4.129,11.652 12.387,34.953 0.293,54.215 -12.089,19.262 -44.527,34.484 -60.746,42.098 l -16.218,7.609"
       style="fill:none;stroke:#333333;stroke-width:2.25;stroke-linecap:butt;stroke-linejoin:miter;stroke-miterlimit:4;stroke-dasharray:none;stroke-opacity:1"
       transform="scale(1.3333333)" />
    <g
       id="g24">
      <path
         d="m 125.637,553.316 -6.707,-0.164 4.156,-5.265 z"
         style="fill:#333333;fill-opacity:1;fill-rule:nonzero;stroke:none"
         transform="scale(1.3333333)"
         clip-path="url(#clipPath23)"
         id="path24" />
    </g>
    <g
       id="g26"
       clip-path="url(#clipPath27)">
      <path
         d="m 109.849,-501.762 5.434,2.714 -5.432,2.716 z"
         style="fill:none;stroke:#333333;stroke-width:1.62947;stroke-linecap:butt;stroke-linejoin:miter;stroke-miterlimit:4;stroke-dasharray:none;stroke-opacity:1"
         transform="matrix(-1.3333333,0.62575733,-0.62575733,-1.3333333,0,0)"
         clip-path="url(#clipPath25)"
         id="path26" />
    </g>
    <path
       d="m 6,495.336 h 56.848 v 20.25 H 6 Z"
       style="fill:#ffffff;fill-opacity:1;fill-rule:nonzero;stroke:none"
       transform="scale(1.3333333)"
       opacity="0.5"
       id="path28" />
    <text
       id="text28"
       xml:space="preserve"
       transform="matrix(1.3333333,0,0,1.3333333,10,679.44303)"><tspan
         id="tspan28"
         style="font-variant:normal;font-weight:normal;font-size:13.5px;font-family:'Trebuchet MS';writing-mode:lr-tb;fill:#333333;fill-opacity:1;fill-rule:nonzero;stroke:none"
         x="0"
         y="0">INVOICE</tspan></text>
    <path
       d="m 77.848,495.336 h 58.02 v 20.25 h -58.02 z"
       style="fill:#ffffff;fill-opacity:1;fill-rule:nonzero;stroke:none"
       transform="scale(1.3333333)"
       opacity="0.5"
       id="path29" />
    <text
       id="text29"
       xml:space="preserve"
       transform="matrix(1.3333333,0,0,1.3333333,105.79687,679.44303)"><tspan
         id="tspan29"
         style="font-variant:normal;font-weight:normal;font-size:13.5px;font-family:'Trebuchet MS';writing-mode:lr-tb;fill:#333333;fill-opacity:1;fill-rule:nonzero;stroke:none"
         x="0"
         y="0">RECEIPT</tspan></text>
    <path
       d="M 299.051,495.336 H 421.02 v 20.25 H 299.051 Z"
       style="fill:#ffffff;fill-opacity:1;fill-rule:nonzero;stroke:none"
       transform="scale(1.3333333)"
       opacity="0.5"
       id="path30" />
    <text
       id="text30"
       xml:space="preserve"
       transform="matrix(1.3333333,0,0,1.3333333,400.73437,679.44303)"><tspan
         id="tspan30"
         style="font-variant:normal;font-weight:normal;font-size:13.5px;font-family:'Trebuchet MS';writing-mode:lr-tb;fill:#333333;fill-opacity:1;fill-rule:nonzero;stroke:none"
         x="0"
         dx="0 0 0 0 0 0 0 -1.323 -1.3095"
         y="0">BANK_STATEMENT</tspan></text>
    <path
       d="m 150.867,495.336 h 133.184 v 20.25 H 150.867 Z"
       style="fill:#ffffff;fill-opacity:1;fill-rule:nonzero;stroke:none"
       transform="scale(1.3333333)"
       opacity="0.5"
       id="path31" />
    <text
       id="text31"
       xml:space="preserve"
       transform="matrix(1.3333333,0,0,1.3333333,203.15625,679.44303)"><tspan
         id="tspan31"
         style="font-variant:normal;font-weight:normal;font-size:13.5px;font-family:'Trebuchet MS';writing-mode:lr-tb;fill:#333333;fill-opacity:1;fill-rule:nonzero;stroke:none"
         x="0"
         y="0">UNIVERSALfallback</tspan></text>
    <path
       id="path32"
       d="M 93.852,6 H 233.469 V 53.328 H 93.852 Z"
       style="fill:#ececff;fill-opacity:1;fill-rule:nonzero;stroke:#9370db;stroke-width:1.875;stroke-linecap:butt;stroke-linejoin:miter;stroke-miterlimit:4;stroke-dasharray:none;stroke-opacity:1"
       transform="scale(1.3333333)" />
    <text
       id="text32"
       xml:space="preserve"
       transform="matrix(1.3333333,0,0,1.3333333,168.15104,47.998047)"><tspan
         id="tspan32"
         style="font-variant:normal;font-weight:normal;font-size:15px;font-family:'Trebuchet MS';writing-mode:lr-tb;fill:#333333;fill-opacity:1;fill-rule:nonzero;stroke:none"
         x="0"
         y="0">InputImage</tspan></text>
    <path
       id="path33"
       d="m 58.891,113.328 h 209.531 v 63.883 H 58.891 Z"
       style="fill:#ececff;fill-opacity:1;fill-rule:nonzero;stroke:#9370db;stroke-width:1.875;stroke-linecap:butt;stroke-linejoin:miter;stroke-miterlimit:4;stroke-dasharray:none;stroke-opacity:1"
       transform="scale(1.3333333)" />
    <text
       id="text33"
       xml:space="preserve"
       transform="matrix(1.3333333,0,0,1.3333333,118.52604,191.10221)"><tspan
         id="tspan33"
         style="font-variant:normal;font-weight:normal;font-size:15px;font-family:'Trebuchet MS';writing-mode:lr-tb;fill:#333333;fill-opacity:1;fill-rule:nonzero;stroke:none"
         x="0"
         dx="0 0 0 0 0 0 0 0 0 0 0 -0.090000004 0 0 0 0 0 0 0 0 -0.075000003"
         y="0">detect_and_classify_d</tspan><tspan
         id="tspan34"
         style="font-variant:normal;font-weight:normal;font-size:15px;font-family:'Trebuchet MS';writing-mode:lr-tb;fill:#333333;fill-opacity:1;fill-rule:nonzero;stroke:none"
         x="40.03125"
         y="16.5">ocument()</tspan></text>
    <path
       id="path34"
       d="M 163.656,466.086 278.094,351.648 163.656,237.211 49.223,351.648 Z"
       style="fill:#ececff;fill-opacity:1;fill-rule:nonzero;stroke:#9370db;stroke-width:1.875;stroke-linecap:butt;stroke-linejoin:miter;stroke-miterlimit:4;stroke-dasharray:none;stroke-opacity:1"
       transform="scale(1.3333333)" />
    <text
       id="text34"
       xml:space="preserve"
       transform="matrix(1.3333333,0,0,1.3333333,155.16667,455.27409)"><tspan
         id="tspan35"
         style="font-variant:normal;font-weight:normal;font-size:15px;font-family:'Trebuchet MS';writing-mode:lr-tb;fill:#333333;fill-opacity:1;fill-rule:nonzero;stroke:none"
         x="0"
         dx="0 -0.70499998"
         y="0">Parseresponse</tspan><tspan
         id="tspan36"
         style="font-variant:normal;font-weight:normal;font-size:15px;font-family:'Trebuchet MS';writing-mode:lr-tb;fill:#333333;fill-opacity:1;fill-rule:nonzero;stroke:none"
         x="-26.92968"
         dx="0 0 0 0 0 0 0 -0.090000004"
         y="16.5">_parse_document_typ</tspan><tspan
         id="tspan37"
         style="font-variant:normal;font-weight:normal;font-size:15px;font-family:'Trebuchet MS';writing-mode:lr-tb;fill:#333333;fill-opacity:1;fill-rule:nonzero;stroke:none"
         x="4.2812548"
         y="33">e_response()</tspan></text>
    <path
       id="path37"
       d="m 120.035,558.109 c 0,6.453 -5.226,11.68 -11.676,11.68 -6.453,0 -11.679,-5.227 -11.679,-11.68 0,-6.449 5.226,-11.675 11.679,-11.675 6.45,0 11.676,5.226 11.676,11.675 z"
       style="fill:#ececff;fill-opacity:1;fill-rule:nonzero;stroke:#9370db;stroke-width:1.875;stroke-linecap:butt;stroke-linejoin:miter;stroke-miterlimit:4;stroke-dasharray:none;stroke-opacity:1"
       transform="scale(1.3333333)" />
    <text
       id="text37"
       xml:space="preserve"
       transform="matrix(1.3333333,0,0,1.3333333,138.91146,752.64909)"><tspan
         id="tspan38"
         style="font-variant:normal;font-weight:normal;font-size:15px;font-family:'Trebuchet MS';writing-mode:lr-tb;fill:#333333;fill-opacity:1;fill-rule:nonzero;stroke:none"
         x="0"
         y="0">X</tspan></text>
    <path
       id="path38"
       d="m 373.312,558.109 c 0,6.508 -5.273,11.782 -11.777,11.782 -6.504,0 -11.777,-5.274 -11.777,-11.782 0,-6.504 5.273,-11.773 11.777,-11.773 6.504,0 11.777,5.269 11.777,11.773 z"
       style="fill:#ececff;fill-opacity:1;fill-rule:nonzero;stroke:#9370db;stroke-width:1.875;stroke-linecap:butt;stroke-linejoin:miter;stroke-miterlimit:4;stroke-dasharray:none;stroke-opacity:1"
       transform="scale(1.3333333)" />
    <text
       id="text38"
       xml:space="preserve"
       transform="matrix(1.3333333,0,0,1.3333333,476.34375,752.64909)"><tspan
         id="tspan39"
         style="font-variant:normal;font-weight:normal;font-size:15px;font-family:'Trebuchet MS';writing-mode:lr-tb;fill:#333333;fill-opacity:1;fill-rule:nonzero;stroke:none"
         x="0"
         y="0">Y</tspan></text>
  </g>
</svg>
