<?xml version="1.0" encoding="UTF-8" standalone="no"?>
<!-- Created with Inkscape (http://www.inkscape.org/) -->

<svg
   version="1.1"
   id="svg1"
   width="760"
   height="569"
   viewBox="0 0 760 569"
   xmlns="http://www.w3.org/2000/svg"
   xmlns:svg="http://www.w3.org/2000/svg">
  <defs
     id="defs1">
    <clipPath
       clipPathUnits="userSpaceOnUse"
       id="clipPath19">
      <path
         d="m 151.477,108.922 -8.879,-1.481 1.48,-8.878998 8.879,1.480998 z"
         id="path19" />
    </clipPath>
    <clipPath
       clipPathUnits="userSpaceOnUse"
       id="clipPath21">
      <path
         d="m -165.04608,-81.414267 8.87919,0.0011 -1.6e-4,8.879027 -8.87919,-0.0011 z"
         id="path21" />
    </clipPath>
    <clipPath
       clipPathUnits="userSpaceOnUse"
       id="clipPath23">
      <path
         d="M 190.66667,133.33333 H 204 v 12 h -13.33333 z"
         id="path23" />
    </clipPath>
    <clipPath
       clipPathUnits="userSpaceOnUse"
       id="clipPath33">
      <path
         d="m 151.477,164.422 -8.879,-1.481 1.48,-8.879 8.879,1.481 z"
         id="path33" />
    </clipPath>
    <clipPath
       clipPathUnits="userSpaceOnUse"
       id="clipPath35">
      <path
         d="m -174.04609,-135.41426 8.87919,0.001 -1.6e-4,8.87903 -8.87919,-0.001 z"
         id="path35" />
    </clipPath>
    <clipPath
       clipPathUnits="userSpaceOnUse"
       id="clipPath37">
      <path
         d="M 190.66667,208 H 204 v 12 h -13.33333 z"
         id="path37" />
    </clipPath>
    <clipPath
       clipPathUnits="userSpaceOnUse"
       id="clipPath46">
      <path
         d="m 317.32401,196.5 h 7.676 v 7.50001 h -7.676 z"
         id="path46" />
    </clipPath>
    <clipPath
       clipPathUnits="userSpaceOnUse"
       id="clipPath55">
      <path
         d="m 146,229.00001 h 8.426 v 8 H 146 Z"
         id="path55" />
    </clipPath>
    <clipPath
       clipPathUnits="userSpaceOnUse"
       id="clipPath57">
      <path
         d="m -145.426,-228.00001 h -9 v -9 h 9 z"
         id="path57" />
    </clipPath>
    <clipPath
       clipPathUnits="userSpaceOnUse"
       id="clipPath61">
      <path
         d="m 151.477,285.92201 -8.879,-1.481 1.48,-8.879 8.879,1.481 z"
         id="path61" />
    </clipPath>
    <clipPath
       clipPathUnits="userSpaceOnUse"
       id="clipPath63">
      <path
         d="m -193.74883,-253.63047 8.87918,0.001 -1.6e-4,8.87903 -8.87918,-0.001 z"
         id="path63" />
    </clipPath>
    <clipPath
       clipPathUnits="userSpaceOnUse"
       id="clipPath65">
      <path
         d="M 190.66667,369.33333 H 204 v 12 h -13.33333 z"
         id="path65" />
    </clipPath>
    <clipPath
       clipPathUnits="userSpaceOnUse"
       id="clipPath68">
      <path
         d="m 467.32401,318.00001 h 7.676 v 8 h -7.676 z"
         id="path68" />
    </clipPath>
    <clipPath
       clipPathUnits="userSpaceOnUse"
       id="clipPath75">
      <path
         d="m 146,351.00001 h 8.426 v 7.5 H 146 Z"
         id="path75" />
    </clipPath>
    <clipPath
       clipPathUnits="userSpaceOnUse"
       id="clipPath77">
      <path
         d="m -145.426,-350.00001 h -9 v -8.5 h 9 z"
         id="path77" />
    </clipPath>
  </defs>
  <g
     id="g1">
    <path
       id="path1"
       d="m 422.25,369.75 h 108 c 1.242,0 2.25,1.008 2.25,2.25 v 44.25 c 0,1.242 -1.008,2.25 -2.25,2.25 h -108 c -1.242,0 -2.25,-1.008 -2.25,-2.25 V 372 c 0,-1.242 1.008,-2.25 2.25,-2.25 z"
       style="fill:#ececff;fill-opacity:1;fill-rule:nonzero;stroke:#dacef3;stroke-width:0.75;stroke-linecap:butt;stroke-linejoin:miter;stroke-miterlimit:4;stroke-dasharray:none;stroke-opacity:1"
       transform="scale(1.3333333)" />
    <text
       id="text1"
       xml:space="preserve"
       transform="matrix(1.3333333,0,0,1.3333333,607.44792,531.23177)"><tspan
         id="tspan1"
         style="font-variant:normal;font-weight:normal;font-size:12px;font-family:'Trebuchet MS';writing-mode:lr-tb;fill:#000000;fill-opacity:1;fill-rule:nonzero;stroke:none"
         x="0"
         y="0">Cleaner</tspan></text>
    <path
       id="path2"
       d="m 272.25,369.75 h 108 c 1.242,0 2.25,1.008 2.25,2.25 v 44.25 c 0,1.242 -1.008,2.25 -2.25,2.25 h -108 c -1.242,0 -2.25,-1.008 -2.25,-2.25 V 372 c 0,-1.242 1.008,-2.25 2.25,-2.25 z"
       style="fill:#ececff;fill-opacity:1;fill-rule:nonzero;stroke:#dacef3;stroke-width:0.75;stroke-linecap:butt;stroke-linejoin:miter;stroke-miterlimit:4;stroke-dasharray:none;stroke-opacity:1"
       transform="scale(1.3333333)" />
    <text
       id="text2"
       xml:space="preserve"
       transform="matrix(1.3333333,0,0,1.3333333,400.44271,531.23177)"><tspan
         id="tspan2"
         style="font-variant:normal;font-weight:normal;font-size:12px;font-family:'Trebuchet MS';writing-mode:lr-tb;fill:#000000;fill-opacity:1;fill-rule:nonzero;stroke:none"
         x="0"
         y="0">InternVL3</tspan></text>
    <path
       id="path3"
       d="m 91.5,369.75 h 108 c 1.242,0 2.25,1.008 2.25,2.25 v 44.25 c 0,1.242 -1.008,2.25 -2.25,2.25 h -108 c -1.242,0 -2.25,-1.008 -2.25,-2.25 V 372 c 0,-1.242 1.008,-2.25 2.25,-2.25 z"
       style="fill:#ececff;fill-opacity:1;fill-rule:nonzero;stroke:#dacef3;stroke-width:0.75;stroke-linecap:butt;stroke-linejoin:miter;stroke-miterlimit:4;stroke-dasharray:none;stroke-opacity:1"
       transform="scale(1.3333333)" />
    <text
       id="text3"
       xml:space="preserve"
       transform="matrix(1.3333333,0,0,1.3333333,165.4375,531.23177)"><tspan
         id="tspan3"
         style="font-variant:normal;font-weight:normal;font-size:12px;font-family:'Trebuchet MS';writing-mode:lr-tb;fill:#000000;fill-opacity:1;fill-rule:nonzero;stroke:none"
         x="0"
         dx="0 -0.56400001"
         y="0">Pipeline</tspan></text>
    <path
       id="path4"
       d="m 476.25,56.25 v 313.5"
       style="fill:none;stroke:#dacef3;stroke-width:1.875;stroke-linecap:butt;stroke-linejoin:miter;stroke-miterlimit:4;stroke-dasharray:none;stroke-opacity:1"
       transform="scale(1.3333333)" />
    <path
       id="path5"
       d="m 422.25,7.5 h 108 c 1.242,0 2.25,1.008 2.25,2.25 V 54 c 0,1.242 -1.008,2.25 -2.25,2.25 h -108 C 421.008,56.25 420,55.242 420,54 V 9.75 c 0,-1.242 1.008,-2.25 2.25,-2.25 z"
       style="fill:#ececff;fill-opacity:1;fill-rule:nonzero;stroke:#dacef3;stroke-width:0.75;stroke-linecap:butt;stroke-linejoin:miter;stroke-miterlimit:4;stroke-dasharray:none;stroke-opacity:1"
       transform="scale(1.3333333)" />
    <text
       id="text5"
       xml:space="preserve"
       transform="matrix(1.3333333,0,0,1.3333333,607.44792,48.231771)"><tspan
         id="tspan5"
         style="font-variant:normal;font-weight:normal;font-size:12px;font-family:'Trebuchet MS';writing-mode:lr-tb;fill:#000000;fill-opacity:1;fill-rule:nonzero;stroke:none"
         x="0"
         y="0">Cleaner</tspan></text>
    <path
       id="path6"
       d="m 326.25,56.25 v 313.5"
       style="fill:none;stroke:#dacef3;stroke-width:1.875;stroke-linecap:butt;stroke-linejoin:miter;stroke-miterlimit:4;stroke-dasharray:none;stroke-opacity:1"
       transform="scale(1.3333333)" />
    <path
       id="path7"
       d="m 272.25,7.5 h 108 c 1.242,0 2.25,1.008 2.25,2.25 V 54 c 0,1.242 -1.008,2.25 -2.25,2.25 h -108 C 271.008,56.25 270,55.242 270,54 V 9.75 c 0,-1.242 1.008,-2.25 2.25,-2.25 z"
       style="fill:#ececff;fill-opacity:1;fill-rule:nonzero;stroke:#dacef3;stroke-width:0.75;stroke-linecap:butt;stroke-linejoin:miter;stroke-miterlimit:4;stroke-dasharray:none;stroke-opacity:1"
       transform="scale(1.3333333)" />
    <text
       id="text7"
       xml:space="preserve"
       transform="matrix(1.3333333,0,0,1.3333333,400.44271,48.231771)"><tspan
         id="tspan7"
         style="font-variant:normal;font-weight:normal;font-size:12px;font-family:'Trebuchet MS';writing-mode:lr-tb;fill:#000000;fill-opacity:1;fill-rule:nonzero;stroke:none"
         x="0"
         y="0">InternVL3</tspan></text>
    <path
       id="path8"
       d="m 145.5,56.25 v 313.5"
       style="fill:none;stroke:#dacef3;stroke-width:1.875;stroke-linecap:butt;stroke-linejoin:miter;stroke-miterlimit:4;stroke-dasharray:none;stroke-opacity:1"
       transform="scale(1.3333333)" />
    <path
       id="path9"
       d="m 91.5,7.5 h 108 c 1.242,0 2.25,1.008 2.25,2.25 V 54 c 0,1.242 -1.008,2.25 -2.25,2.25 h -108 c -1.242,0 -2.25,-1.008 -2.25,-2.25 V 9.75 c 0,-1.242 1.008,-2.25 2.25,-2.25 z"
       style="fill:#ececff;fill-opacity:1;fill-rule:nonzero;stroke:#dacef3;stroke-width:0.75;stroke-linecap:butt;stroke-linejoin:miter;stroke-miterlimit:4;stroke-dasharray:none;stroke-opacity:1"
       transform="scale(1.3333333)" />
    <text
       id="text9"
       xml:space="preserve"
       transform="matrix(1.3333333,0,0,1.3333333,165.4375,48.231771)"><tspan
         id="tspan9"
         style="font-variant:normal;font-weight:normal;font-size:12px;font-family:'Trebuchet MS';writing-mode:lr-tb;fill:#000000;fill-opacity:1;fill-rule:nonzero;stroke:none"
         x="0"
         dx="0 -0.56400001"
         y="0">Pipeline</tspan></text>
    <text
       id="text10"
       xml:space="preserve"
       transform="matrix(1.3333333,0,0,1.3333333,60.838541,111.5026)"><tspan
         id="tspan10"
         style="font-variant:normal;font-weight:normal;font-size:12px;font-family:'Trebuchet MS';writing-mode:lr-tb;fill:#333333;fill-opacity:1;fill-rule:nonzero;stroke:none"
         x="0"
         y="0">Load</tspan></text>
    <g
       id="g10"
       aria-label=" type-specific"
       transform="matrix(1.3333333,0,0,1.3333333,94.846354,111.5026)">
      <path
         id="path10"
         d=""
         style="fill:#333333;fill-opacity:1;fill-rule:nonzero;stroke:none" />
      <path
         id="path11"
         d=""
         style="fill:#333333;fill-opacity:1;fill-rule:nonzero;stroke:none" />
    </g>
    <g
       id="g11"
       aria-label=" prompt"
       transform="matrix(1.3333333,0,0,1.3333333,192.41667,111.5026)">
      <path
         id="path12"
         d=""
         style="fill:#333333;fill-opacity:1;fill-rule:nonzero;stroke:none" />
      <path
         id="path13"
         d=""
         style="fill:#333333;fill-opacity:1;fill-rule:nonzero;stroke:none" />
    </g>
    <g
       id="g13"
       aria-label=" from"
       transform="matrix(1.3333333,0,0,1.3333333,249.49481,111.5026)">
      <path
         id="path14"
         d=""
         style="fill:#333333;fill-opacity:1;fill-rule:nonzero;stroke:none" />
      <path
         id="path15"
         d=""
         style="fill:#333333;fill-opacity:1;fill-rule:nonzero;stroke:none" />
    </g>
    <g
       id="g15"
       aria-label=" YAML"
       transform="matrix(1.3333333,0,0,1.3333333,288.31513,111.5026)">
      <path
         id="path16"
         d=""
         style="fill:#333333;fill-opacity:1;fill-rule:nonzero;stroke:none" />
      <path
         id="path17"
         d=""
         style="fill:#333333;fill-opacity:1;fill-rule:nonzero;stroke:none" />
    </g>
    <path
       id="path18"
       d="m 146.25,89.25 c 45,-7.5 45,22.5 0,15"
       style="fill:none;stroke:#333333;stroke-width:1.875;stroke-linecap:butt;stroke-linejoin:miter;stroke-miterlimit:4;stroke-dasharray:none;stroke-opacity:1"
       transform="scale(1.3333333)" />
    <g
       id="g20">
      <path
         d="m 152.219,109.047 -7.524,-5.055 8.016,-2.469 z"
         style="fill:#333333;fill-opacity:1;fill-rule:nonzero;stroke:none"
         transform="scale(1.3333333)"
         clip-path="url(#clipPath19)"
         id="path20" />
    </g>
    <g
       id="g22"
       clip-path="url(#clipPath23)">
      <path
         d="m -165.788,-81.416 8.14,3.699 -7.399,3.701 z"
         style="fill:none;stroke:#333333;stroke-width:0.739795;stroke-linecap:butt;stroke-linejoin:miter;stroke-miterlimit:4;stroke-dasharray:none;stroke-opacity:1"
         transform="matrix(-1.3333333,-0.22222267,0.22222267,-1.3333333,0,0)"
         clip-path="url(#clipPath21)"
         id="path22" />
    </g>
    <text
       id="text23"
       xml:space="preserve"
       transform="matrix(1.3333333,0,0,1.3333333,47.135416,185.5026)"><tspan
         id="tspan23"
         style="font-variant:normal;font-weight:normal;font-size:12px;font-family:'Trebuchet MS';writing-mode:lr-tb;fill:#333333;fill-opacity:1;fill-rule:nonzero;stroke:none"
         x="0"
         y="0">Calculate</tspan></text>
    <g
       id="g23"
       aria-label=" max_tokens"
       transform="matrix(1.3333333,0,0,1.3333333,114.6901,185.5026)">
      <path
         id="path24"
         d=""
         style="fill:#333333;fill-opacity:1;fill-rule:nonzero;stroke:none" />
      <path
         id="path25"
         d=""
         style="fill:#333333;fill-opacity:1;fill-rule:nonzero;stroke:none" />
    </g>
    <g
       id="g25"
       aria-label=" for"
       transform="matrix(1.3333333,0,0,1.3333333,204.46949,185.5026)">
      <path
         id="path26"
         d=""
         style="fill:#333333;fill-opacity:1;fill-rule:nonzero;stroke:none" />
      <path
         id="path27"
         d=""
         style="fill:#333333;fill-opacity:1;fill-rule:nonzero;stroke:none" />
    </g>
    <g
       id="g27"
       aria-label=" document"
       transform="matrix(1.3333333,0,0,1.3333333,230.00856,185.5026)">
      <path
         id="path28"
         d=""
         style="fill:#333333;fill-opacity:1;fill-rule:nonzero;stroke:none" />
      <path
         id="path29"
         d=""
         style="fill:#333333;fill-opacity:1;fill-rule:nonzero;stroke:none" />
    </g>
    <g
       id="g29"
       aria-label=" type"
       transform="matrix(1.3333333,0,0,1.3333333,306.08669,185.5026)">
      <path
         id="path30"
         d=""
         style="fill:#333333;fill-opacity:1;fill-rule:nonzero;stroke:none" />
      <path
         id="path31"
         d=""
         style="fill:#333333;fill-opacity:1;fill-rule:nonzero;stroke:none" />
    </g>
    <path
       id="path32"
       d="m 146.25,144.75 c 45,-7.5 45,22.5 0,15"
       style="fill:none;stroke:#333333;stroke-width:1.875;stroke-linecap:butt;stroke-linejoin:miter;stroke-miterlimit:4;stroke-dasharray:none;stroke-opacity:1"
       transform="scale(1.3333333)" />
    <g
       id="g34">
      <path
         d="m 152.219,164.547 -7.524,-5.055 8.016,-2.469 z"
         style="fill:#333333;fill-opacity:1;fill-rule:nonzero;stroke:none"
         transform="scale(1.3333333)"
         clip-path="url(#clipPath33)"
         id="path34" />
    </g>
    <g
       id="g36"
       clip-path="url(#clipPath37)">
      <path
         d="m -174.788,-135.416 8.14,3.699 -7.399,3.701 z"
         style="fill:none;stroke:#333333;stroke-width:0.739795;stroke-linecap:butt;stroke-linejoin:miter;stroke-miterlimit:4;stroke-dasharray:none;stroke-opacity:1"
         transform="matrix(-1.3333333,-0.22222267,0.22222267,-1.3333333,0,0)"
         clip-path="url(#clipPath35)"
         id="path36" />
    </g>
    <text
       id="text37"
       xml:space="preserve"
       transform="matrix(1.3333333,0,0,1.3333333,217.0625,259.5026)"><tspan
         id="tspan37"
         style="font-variant:normal;font-weight:normal;font-size:12px;font-family:'Trebuchet MS';writing-mode:lr-tb;fill:#333333;fill-opacity:1;fill-rule:nonzero;stroke:none"
         x="0"
         y="0">Image</tspan></text>
    <g
       id="g37"
       aria-label=" +"
       transform="matrix(1.3333333,0,0,1.3333333,259.96094,259.5026)">
      <path
         id="path38"
         d=""
         style="fill:#333333;fill-opacity:1;fill-rule:nonzero;stroke:none" />
      <path
         id="path39"
         d=""
         style="fill:#333333;fill-opacity:1;fill-rule:nonzero;stroke:none" />
    </g>
    <g
       id="g39"
       aria-label=" extraction"
       transform="matrix(1.3333333,0,0,1.3333333,273.17188,259.5026)">
      <path
         id="path40"
         d=""
         style="fill:#333333;fill-opacity:1;fill-rule:nonzero;stroke:none" />
      <path
         id="path41"
         d=""
         style="fill:#333333;fill-opacity:1;fill-rule:nonzero;stroke:none" />
    </g>
    <g
       id="g41"
       aria-label=" prompt"
       transform="matrix(1.3333333,0,0,1.3333333,351.85939,259.5026)">
      <path
         id="path42"
         d=""
         style="fill:#333333;fill-opacity:1;fill-rule:nonzero;stroke:none" />
      <path
         id="path43"
         d=""
         style="fill:#333333;fill-opacity:1;fill-rule:nonzero;stroke:none" />
    </g>
    <path
       id="path44"
       d="m 146.25,200.25 h 177"
       style="fill:none;stroke:#333333;stroke-width:1.875;stroke-linecap:butt;stroke-linejoin:miter;stroke-miterlimit:4;stroke-dasharray:none;stroke-opacity:1"
       transform="scale(1.3333333)" />
    <path
       id="path45"
       d="m 316.574,196.5 8.25,3.75 -7.5,3.75 z"
       style="fill:#333333;fill-opacity:1;fill-rule:nonzero;stroke:#333333;stroke-width:0.75;stroke-linecap:butt;stroke-linejoin:miter;stroke-miterlimit:4;stroke-dasharray:none;stroke-opacity:1"
       transform="scale(1.3333333)"
       clip-path="url(#clipPath46)" />
    <text
       id="text46"
       xml:space="preserve"
       transform="matrix(1.3333333,0,0,1.3333333,227.61458,303.5026)"><tspan
         id="tspan46"
         style="font-variant:normal;font-weight:normal;font-size:12px;font-family:'Trebuchet MS';writing-mode:lr-tb;fill:#333333;fill-opacity:1;fill-rule:nonzero;stroke:none"
         x="0"
         y="0">Raw</tspan></text>
    <g
       id="g46"
       aria-label=" KEY:"
       transform="matrix(1.3333333,0,0,1.3333333,257.23958,303.5026)">
      <path
         id="path47"
         d=""
         style="fill:#333333;fill-opacity:1;fill-rule:nonzero;stroke:none" />
      <path
         id="path48"
         d=""
         style="fill:#333333;fill-opacity:1;fill-rule:nonzero;stroke:none" />
    </g>
    <g
       id="g48"
       aria-label=" value"
       transform="matrix(1.3333333,0,0,1.3333333,293.44915,303.5026)">
      <path
         id="path49"
         d=""
         style="fill:#333333;fill-opacity:1;fill-rule:nonzero;stroke:none" />
      <path
         id="path50"
         d=""
         style="fill:#333333;fill-opacity:1;fill-rule:nonzero;stroke:none" />
    </g>
    <g
       id="g50"
       aria-label=" response"
       transform="matrix(1.3333333,0,0,1.3333333,336.69916,303.5026)">
      <path
         id="path51"
         d=""
         style="fill:#333333;fill-opacity:1;fill-rule:nonzero;stroke:none" />
      <path
         id="path52"
         d=""
         style="fill:#333333;fill-opacity:1;fill-rule:nonzero;stroke:none" />
    </g>
    <path
       id="path53"
       d="m 325.5,233.25 h -177"
       style="fill:none;stroke:#333333;stroke-width:1.875;stroke-linecap:butt;stroke-linejoin:miter;stroke-miterlimit:4;stroke-dasharray:2.25, 2.25;stroke-dashoffset:0;stroke-opacity:1"
       transform="scale(1.3333333)" />
    <path
       id="path54"
       d="m 155.176,237 -8.25,-3.75 7.5,-3.75 z"
       style="fill:#333333;fill-opacity:1;fill-rule:nonzero;stroke:none"
       transform="scale(1.3333333)"
       clip-path="url(#clipPath55)" />
    <path
       id="path56"
       d="m -155.176,-237 8.25,3.75 -7.5,3.75 z"
       style="fill:none;stroke:#333333;stroke-width:0.75;stroke-linecap:butt;stroke-linejoin:miter;stroke-miterlimit:4;stroke-dasharray:none;stroke-opacity:1"
       transform="scale(-1.3333333)"
       clip-path="url(#clipPath57)" />
    <text
       id="text57"
       xml:space="preserve"
       transform="matrix(1.3333333,0,0,1.3333333,32.546875,347.5026)"><tspan
         id="tspan57"
         style="font-variant:normal;font-weight:normal;font-size:12px;font-family:'Trebuchet MS';writing-mode:lr-tb;fill:#333333;fill-opacity:1;fill-rule:nonzero;stroke:none"
         x="0"
         dx="0 0 0 0 0 0 0 0 0 0 0 0 0 -0.071999997 0 0 0 0 0 0 0 0 0 0 0 -1.272"
         y="0">hybrid_parse_response(raw,</tspan></text>
    <g
       id="g57"
       aria-label=" expected_fields)"
       transform="matrix(1.3333333,0,0,1.3333333,232.58894,347.5026)">
      <path
         id="path58"
         d=""
         style="fill:#333333;fill-opacity:1;fill-rule:nonzero;stroke:none" />
      <path
         id="path59"
         d=""
         style="fill:#333333;fill-opacity:1;fill-rule:nonzero;stroke:none" />
    </g>
    <path
       id="path60"
       d="m 146.25,266.25 c 45,-7.5 45,22.5 0,15"
       style="fill:none;stroke:#333333;stroke-width:1.875;stroke-linecap:butt;stroke-linejoin:miter;stroke-miterlimit:4;stroke-dasharray:none;stroke-opacity:1"
       transform="scale(1.3333333)" />
    <g
       id="g62">
      <path
         d="m 152.219,286.047 -7.524,-5.055 8.016,-2.469 z"
         style="fill:#333333;fill-opacity:1;fill-rule:nonzero;stroke:none"
         transform="scale(1.3333333)"
         clip-path="url(#clipPath61)"
         id="path62" />
    </g>
    <g
       id="g64"
       clip-path="url(#clipPath65)">
      <path
         d="m -194.491,-253.632 8.14,3.698 -7.399,3.702 z"
         style="fill:none;stroke:#333333;stroke-width:0.739795;stroke-linecap:butt;stroke-linejoin:miter;stroke-miterlimit:4;stroke-dasharray:none;stroke-opacity:1"
         transform="matrix(-1.3333333,-0.22222267,0.22222267,-1.3333333,0,0)"
         clip-path="url(#clipPath63)"
         id="path64" />
    </g>
    <text
       id="text65"
       xml:space="preserve"
       transform="matrix(1.3333333,0,0,1.3333333,277.52604,421.5026)"><tspan
         id="tspan65"
         style="font-variant:normal;font-weight:normal;font-size:12px;font-family:'Trebuchet MS';writing-mode:lr-tb;fill:#333333;fill-opacity:1;fill-rule:nonzero;stroke:none"
         x="0"
         dx="0 0 0 0 0 0 0 0 0 0 0 0 0 0 0 0 0 -1.596 0 0 0 0 0 0 0 0 0 0 0 0 0 -0.071999997"
         y="0">ExtractionCleaner.clean(parsed_data)</tspan></text>
    <path
       id="path66"
       d="m 146.25,321.75 h 327"
       style="fill:none;stroke:#333333;stroke-width:1.875;stroke-linecap:butt;stroke-linejoin:miter;stroke-miterlimit:4;stroke-dasharray:none;stroke-opacity:1"
       transform="scale(1.3333333)" />
    <path
       id="path67"
       d="m 466.574,318 8.25,3.75 -7.5,3.75 z"
       style="fill:#333333;fill-opacity:1;fill-rule:nonzero;stroke:#333333;stroke-width:0.75;stroke-linecap:butt;stroke-linejoin:miter;stroke-miterlimit:4;stroke-dasharray:none;stroke-opacity:1"
       transform="scale(1.3333333)"
       clip-path="url(#clipPath68)" />
    <text
       id="text68"
       xml:space="preserve"
       transform="matrix(1.3333333,0,0,1.3333333,331.08333,465.5026)"><tspan
         id="tspan68"
         style="font-variant:normal;font-weight:normal;font-size:12px;font-family:'Trebuchet MS';writing-mode:lr-tb;fill:#333333;fill-opacity:1;fill-rule:nonzero;stroke:none"
         x="0"
         y="0">Cleaned</tspan></text>
    <g
       id="g68"
       aria-label=" structured"
       transform="matrix(1.3333333,0,0,1.3333333,388.88802,465.5026)">
      <path
         id="path69"
         d=""
         style="fill:#333333;fill-opacity:1;fill-rule:nonzero;stroke:none" />
      <path
         id="path70"
         d=""
         style="fill:#333333;fill-opacity:1;fill-rule:nonzero;stroke:none" />
    </g>
    <g
       id="g70"
       aria-label=" dict"
       transform="matrix(1.3333333,0,0,1.3333333,468.35678,465.5026)">
      <path
         id="path71"
         d=""
         style="fill:#333333;fill-opacity:1;fill-rule:nonzero;stroke:none" />
      <path
         id="path72"
         d=""
         style="fill:#333333;fill-opacity:1;fill-rule:nonzero;stroke:none" />
    </g>
    <path
       id="path73"
       d="m 475.5,354.75 h -327"
       style="fill:none;stroke:#333333;stroke-width:1.875;stroke-linecap:butt;stroke-linejoin:miter;stroke-miterlimit:4;stroke-dasharray:2.25, 2.25;stroke-dashoffset:0;stroke-opacity:1"
       transform="scale(1.3333333)" />
    <path
       id="path74"
       d="m 155.176,358.5 -8.25,-3.75 7.5,-3.75 z"
       style="fill:#333333;fill-opacity:1;fill-rule:nonzero;stroke:none"
       transform="scale(1.3333333)"
       clip-path="url(#clipPath75)" />
    <path
       id="path76"
       d="m -155.176,-358.5 8.25,3.75 -7.5,3.75 z"
       style="fill:none;stroke:#333333;stroke-width:0.75;stroke-linecap:butt;stroke-linejoin:miter;stroke-miterlimit:4;stroke-dasharray:none;stroke-opacity:1"
       transform="scale(-1.3333333)"
       clip-path="url(#clipPath77)" />
  </g>
</svg>
