<?xml version="1.0" encoding="UTF-8" standalone="no"?>
<!-- Created with Inkscape (http://www.inkscape.org/) -->

<svg
   version="1.1"
   id="svg1"
   width="749.63281"
   height="860.38281"
   viewBox="0 0 749.63281 860.38281"
   xmlns="http://www.w3.org/2000/svg"
   xmlns:svg="http://www.w3.org/2000/svg">
  <defs
     id="defs1">
    <clipPath
       clipPathUnits="userSpaceOnUse"
       id="clipPath2">
      <path
         d="m 86.149651,-224.71883 6,-3e-5 2.4e-5,6 -6.000001,3e-5 z"
         id="path2" />
    </clipPath>
    <clipPath
       clipPathUnits="userSpaceOnUse"
       id="clipPath4">
      <path
         d="m 292,110.66667 h 9.33333 V 120 H 292 Z"
         id="path4" />
    </clipPath>
    <clipPath
       clipPathUnits="userSpaceOnUse"
       id="clipPath7">
      <path
         d="m 349.23401,-104.578 v -6 h 6 v 6 z"
         id="path7" />
    </clipPath>
    <clipPath
       clipPathUnits="userSpaceOnUse"
       id="clipPath9">
      <path
         d="m 309.66842,-337.8419 5.99999,4.3e-4 -4.3e-4,6 -6,-4.4e-4 z"
         id="path9" />
    </clipPath>
    <clipPath
       clipPathUnits="userSpaceOnUse"
       id="clipPath11">
      <path
         d="m 445.33333,408 h 9.33334 v 9.33333 h -9.33334 z"
         id="path11" />
    </clipPath>
    <clipPath
       clipPathUnits="userSpaceOnUse"
       id="clipPath14">
      <path
         d="m 552.90201,-211.68801 v -6 h 6 v 6 z"
         id="path14" />
    </clipPath>
    <clipPath
       clipPathUnits="userSpaceOnUse"
       id="clipPath17">
      <path
         d="m 561.15201,-457.07801 v -6 h 6 v 6 z"
         id="path17" />
    </clipPath>
  </defs>
  <g
     id="g1">
    <path
       id="path1"
       d="m 222.48,29.039 v 5 c 0,5 0,15 0.055,24.563 0.059,9.562 0.172,18.687 0.227,23.25 l 0.054,4.562"
       style="fill:none;stroke:#333333;stroke-width:2.25;stroke-linecap:butt;stroke-linejoin:miter;stroke-miterlimit:4;stroke-dasharray:none;stroke-opacity:1"
       transform="scale(1.3333333)" />
    <g
       id="g3"
       clip-path="url(#clipPath4)">
      <path
         d="m 86.15,-224.719 5.998,3 -5.998,3 z"
         style="fill:#333333;fill-opacity:1;fill-rule:nonzero;stroke:#333333;stroke-width:1.79986;stroke-linecap:butt;stroke-linejoin:miter;stroke-miterlimit:4;stroke-dasharray:none;stroke-opacity:1"
         transform="matrix(0.0164392,1.3333333,-1.3333333,0.0164392,0,0)"
         clip-path="url(#clipPath2)"
         id="path3" />
    </g>
    <path
       id="path5"
       d="m 186.605,196.074 -13.171,12.664 c -13.172,12.668 -39.512,38.004 -52.684,64.028 -13.172,26.027 -13.172,52.746 -13.172,66.109 v 13.359"
       style="fill:none;stroke:#333333;stroke-width:2.25;stroke-linecap:butt;stroke-linejoin:miter;stroke-miterlimit:4;stroke-dasharray:none;stroke-opacity:1"
       transform="scale(1.3333333)" />
    <path
       id="path6"
       d="m 349.234,-110.578 6,3 -6,3 z"
       style="fill:#333333;fill-opacity:1;fill-rule:nonzero;stroke:#333333;stroke-width:1.8;stroke-linecap:butt;stroke-linejoin:miter;stroke-miterlimit:4;stroke-dasharray:none;stroke-opacity:1"
       transform="matrix(0,1.3333333,-1.3333333,0,0,0)"
       clip-path="url(#clipPath7)" />
    <path
       id="path8"
       d="m 259.105,196.074 13.047,12.664 c 13.047,12.668 39.141,38.004 52.243,56.918 13.105,18.918 13.218,31.418 13.277,37.668 l 0.058,6.25"
       style="fill:none;stroke:#333333;stroke-width:2.25;stroke-linecap:butt;stroke-linejoin:miter;stroke-miterlimit:4;stroke-dasharray:none;stroke-opacity:1"
       transform="scale(1.3333333)" />
    <g
       id="g10"
       clip-path="url(#clipPath11)">
      <path
         d="m 309.668,-337.842 6,3.001 -6,2.999 z"
         style="fill:#333333;fill-opacity:1;fill-rule:nonzero;stroke:#333333;stroke-width:1.79992;stroke-linecap:butt;stroke-linejoin:miter;stroke-miterlimit:4;stroke-dasharray:none;stroke-opacity:1"
         transform="matrix(0.01231901,1.3333333,-1.3333333,0.01231901,0,0)"
         clip-path="url(#clipPath9)"
         id="path10" />
    </g>
    <path
       id="path12"
       d="m 296.254,437.523 -13.594,13.543 c -13.594,13.543 -40.785,40.625 -54.379,60.356 -13.593,19.73 -13.593,32.105 -13.593,38.293 v 6.187"
       style="fill:none;stroke:#333333;stroke-width:2.25;stroke-linecap:butt;stroke-linejoin:miter;stroke-miterlimit:4;stroke-dasharray:none;stroke-opacity:1"
       transform="scale(1.3333333)" />
    <path
       id="path13"
       d="m 552.902,-217.687 6,3 -6,3 z"
       style="fill:#333333;fill-opacity:1;fill-rule:nonzero;stroke:#333333;stroke-width:1.8;stroke-linecap:butt;stroke-linejoin:miter;stroke-miterlimit:4;stroke-dasharray:none;stroke-opacity:1"
       transform="matrix(0,1.3333333,-1.3333333,0,0,0)"
       clip-path="url(#clipPath14)" />
    <path
       id="path15"
       d="m 379.262,437.523 13.468,13.543 c 13.469,13.543 40.407,40.625 53.879,61.731 13.469,21.105 13.469,36.23 13.469,43.793 v 7.562"
       style="fill:none;stroke:#333333;stroke-width:2.25;stroke-linecap:butt;stroke-linejoin:miter;stroke-miterlimit:4;stroke-dasharray:none;stroke-opacity:1"
       transform="scale(1.3333333)" />
    <path
       id="path16"
       d="m 561.152,-463.078 6,3 -6,3 z"
       style="fill:#333333;fill-opacity:1;fill-rule:nonzero;stroke:#333333;stroke-width:1.8;stroke-linecap:butt;stroke-linejoin:miter;stroke-miterlimit:4;stroke-dasharray:none;stroke-opacity:1"
       transform="matrix(0,1.3333333,-1.3333333,0,0,0)"
       clip-path="url(#clipPath17)" />
    <path
       d="m 93.961,261.199 h 24.234 v 20.25 H 93.961 Z"
       style="fill:#ffffff;fill-opacity:1;fill-rule:nonzero;stroke:none"
       transform="scale(1.3333333)"
       opacity="0.5"
       id="path18" />
    <text
       id="text18"
       xml:space="preserve"
       transform="matrix(1.3333333,0,0,1.3333333,127.28125,367.26595)"><tspan
         id="tspan18"
         style="font-variant:normal;font-weight:normal;font-size:13.5px;font-family:'Trebuchet MS';writing-mode:lr-tb;fill:#333333;fill-opacity:1;fill-rule:nonzero;stroke:none"
         x="0"
         dx="0 -1.4175"
         y="0">Yes</tspan></text>
    <path
       d="m 325.57,261.199 h 20.625 v 20.25 H 325.57 Z"
       style="fill:#ffffff;fill-opacity:1;fill-rule:nonzero;stroke:none"
       transform="scale(1.3333333)"
       opacity="0.5"
       id="path19" />
    <text
       id="text19"
       xml:space="preserve"
       transform="matrix(1.3333333,0,0,1.3333333,436.09375,367.26595)"><tspan
         id="tspan19"
         style="font-variant:normal;font-weight:normal;font-size:13.5px;font-family:'Trebuchet MS';writing-mode:lr-tb;fill:#333333;fill-opacity:1;fill-rule:nonzero;stroke:none"
         x="0"
         y="0">No</tspan></text>
    <path
       d="m 201.07,507.902 h 24.234 v 20.25 H 201.07 Z"
       style="fill:#ffffff;fill-opacity:1;fill-rule:nonzero;stroke:none"
       transform="scale(1.3333333)"
       opacity="0.5"
       id="path20" />
    <text
       id="text20"
       xml:space="preserve"
       transform="matrix(1.3333333,0,0,1.3333333,270.09375,696.20345)"><tspan
         id="tspan20"
         style="font-variant:normal;font-weight:normal;font-size:13.5px;font-family:'Trebuchet MS';writing-mode:lr-tb;fill:#333333;fill-opacity:1;fill-rule:nonzero;stroke:none"
         x="0"
         dx="0 -1.4175"
         y="0">Yes</tspan></text>
    <path
       d="m 448.266,507.902 h 20.625 v 20.25 h -20.625 z"
       style="fill:#ffffff;fill-opacity:1;fill-rule:nonzero;stroke:none"
       transform="scale(1.3333333)"
       opacity="0.5"
       id="path21" />
    <text
       id="text21"
       xml:space="preserve"
       transform="matrix(1.3333333,0,0,1.3333333,599.6875,696.20345)"><tspan
         id="tspan21"
         style="font-variant:normal;font-weight:normal;font-size:13.5px;font-family:'Trebuchet MS';writing-mode:lr-tb;fill:#333333;fill-opacity:1;fill-rule:nonzero;stroke:none"
         x="0"
         y="0">No</tspan></text>
    <path
       id="path22"
       d="m 234,17.52 c 0,6.363 -5.156,11.519 -11.52,11.519 -6.363,0 -11.519,-5.156 -11.519,-11.519 C 210.961,11.156 216.117,6 222.48,6 228.844,6 234,11.156 234,17.52 Z"
       style="fill:#ececff;fill-opacity:1;fill-rule:nonzero;stroke:#9370db;stroke-width:1.875;stroke-linecap:butt;stroke-linejoin:miter;stroke-miterlimit:4;stroke-dasharray:none;stroke-opacity:1"
       transform="scale(1.3333333)" />
    <text
       id="text22"
       xml:space="preserve"
       transform="matrix(1.3333333,0,0,1.3333333,291.28646,31.857421)"><tspan
         id="tspan22"
         style="font-variant:normal;font-weight:normal;font-size:15px;font-family:'Trebuchet MS';writing-mode:lr-tb;fill:#333333;fill-opacity:1;fill-rule:nonzero;stroke:none"
         x="0"
         y="0">E</tspan></text>
    <path
       id="path23"
       d="M 222.48,231.949 293.938,160.492 222.48,89.039 151.023,160.492 Z"
       style="fill:#ececff;fill-opacity:1;fill-rule:nonzero;stroke:#9370db;stroke-width:1.875;stroke-linecap:butt;stroke-linejoin:miter;stroke-miterlimit:4;stroke-dasharray:none;stroke-opacity:1"
       transform="scale(1.3333333)" />
    <text
       id="text23"
       xml:space="preserve"
       transform="matrix(1.3333333,0,0,1.3333333,246.33854,211.49284)"><tspan
         id="tspan23"
         style="font-variant:normal;font-weight:normal;font-size:15px;font-family:'Trebuchet MS';writing-mode:lr-tb;fill:#333333;fill-opacity:1;fill-rule:nonzero;stroke:none"
         x="0"
         y="0">HasAmount</tspan><tspan
         id="tspan24"
         style="font-variant:normal;font-weight:normal;font-size:15px;font-family:'Trebuchet MS';writing-mode:lr-tb;fill:#333333;fill-opacity:1;fill-rule:nonzero;stroke:none"
         x="10.601565"
         y="16.5">column?</tspan></text>
    <path
       id="path24"
       d="m 6,355.234 h 203.156 v 80.383 H 6 Z"
       style="fill:#ececff;fill-opacity:1;fill-rule:nonzero;stroke:#9370db;stroke-width:1.875;stroke-linecap:butt;stroke-linejoin:miter;stroke-miterlimit:4;stroke-dasharray:none;stroke-opacity:1"
       transform="scale(1.3333333)" />
    <text
       id="text24"
       xml:space="preserve"
       transform="matrix(1.3333333,0,0,1.3333333,48.005208,513.64388)"><tspan
         id="tspan25"
         style="font-variant:normal;font-weight:normal;font-size:15px;font-family:'Trebuchet MS';writing-mode:lr-tb;fill:#333333;fill-opacity:1;fill-rule:nonzero;stroke:none"
         x="0"
         y="0">AMOUNT_DESCRIPTIO</tspan><tspan
         id="tspan26"
         style="font-variant:normal;font-weight:normal;font-size:15px;font-family:'Trebuchet MS';writing-mode:lr-tb;fill:#333333;fill-opacity:1;fill-rule:nonzero;stroke:none"
         x="66.789062"
         y="16.5">N</tspan><tspan
         id="tspan27"
         style="font-variant:normal;font-weight:normal;font-size:15px;font-family:'Trebuchet MS';writing-mode:lr-tb;fill:#333333;fill-opacity:1;fill-rule:nonzero;stroke:none"
         x="5.3671799"
         y="33">(signedamountonly)</tspan></text>
    <path
       id="path27"
       d="m 337.383,478.652 83.226,-83.226 -83.226,-83.227 -83.227,83.227 z"
       style="fill:#ececff;fill-opacity:1;fill-rule:nonzero;stroke:#9370db;stroke-width:1.875;stroke-linecap:butt;stroke-linejoin:miter;stroke-miterlimit:4;stroke-dasharray:none;stroke-opacity:1"
       transform="scale(1.3333333)" />
    <text
       id="text27"
       xml:space="preserve"
       transform="matrix(1.3333333,0,0,1.3333333,373.39583,535.73242)"><tspan
         id="tspan28"
         style="font-variant:normal;font-weight:normal;font-size:15px;font-family:'Trebuchet MS';writing-mode:lr-tb;fill:#333333;fill-opacity:1;fill-rule:nonzero;stroke:none"
         x="0"
         y="0">HasDebit/Credit?</tspan></text>
    <path
       id="path28"
       d="m 110.445,558.902 h 208.484 v 80.387 H 110.445 Z"
       style="fill:#ececff;fill-opacity:1;fill-rule:nonzero;stroke:#9370db;stroke-width:1.875;stroke-linecap:butt;stroke-linejoin:miter;stroke-miterlimit:4;stroke-dasharray:none;stroke-opacity:1"
       transform="scale(1.3333333)" />
    <text
       id="text28"
       xml:space="preserve"
       transform="matrix(1.3333333,0,0,1.3333333,187.26042,785.20117)"><tspan
         id="tspan29"
         style="font-variant:normal;font-weight:normal;font-size:15px;font-family:'Trebuchet MS';writing-mode:lr-tb;fill:#333333;fill-opacity:1;fill-rule:nonzero;stroke:none"
         x="0"
         dx="0 0 0 0 0 0 0 0 0 0 0 0 0 -0.090000004"
         y="0">DEBIT_CREDIT_DESCRI</tspan><tspan
         id="tspan30"
         style="font-variant:normal;font-weight:normal;font-size:15px;font-family:'Trebuchet MS';writing-mode:lr-tb;fill:#333333;fill-opacity:1;fill-rule:nonzero;stroke:none"
         x="53.77734"
         y="16.5">PTION</tspan><tspan
         id="tspan31"
         style="font-variant:normal;font-weight:normal;font-size:15px;font-family:'Trebuchet MS';writing-mode:lr-tb;fill:#333333;fill-opacity:1;fill-rule:nonzero;stroke:none"
         x="10.06641"
         y="33">(nobalancecolumn)</tspan></text>
    <path
       id="path31"
       d="m 363.93,567.152 h 192.297 v 63.887 H 363.93 Z"
       style="fill:#ececff;fill-opacity:1;fill-rule:nonzero;stroke:#9370db;stroke-width:1.875;stroke-linecap:butt;stroke-linejoin:miter;stroke-miterlimit:4;stroke-dasharray:none;stroke-opacity:1"
       transform="scale(1.3333333)" />
    <text
       id="text31"
       xml:space="preserve"
       transform="matrix(1.3333333,0,0,1.3333333,525.24479,796.20117)"><tspan
         id="tspan32"
         style="font-variant:normal;font-weight:normal;font-size:15px;font-family:'Trebuchet MS';writing-mode:lr-tb;fill:#333333;fill-opacity:1;fill-rule:nonzero;stroke:none"
         x="0"
         dx="0 -1.455 0 0 0 0 -0.090000004"
         y="0">TABLE_EXTRACTION</tspan><tspan
         id="tspan33"
         style="font-variant:normal;font-weight:normal;font-size:15px;font-family:'Trebuchet MS';writing-mode:lr-tb;fill:#333333;fill-opacity:1;fill-rule:nonzero;stroke:none"
         x="8.7812548"
         y="16.5">(schemafallback)</tspan></text>
  </g>
</svg>
