<?xml version="1.0" encoding="UTF-8" standalone="no"?>
<!-- Created with Inkscape (http://www.inkscape.org/) -->

<svg
   version="1.1"
   id="svg1"
   width="530.84375"
   height="573.875"
   viewBox="0 0 530.84375 573.875"
   xmlns="http://www.w3.org/2000/svg"
   xmlns:svg="http://www.w3.org/2000/svg">
  <defs
     id="defs1">
    <clipPath
       clipPathUnits="userSpaceOnUse"
       id="clipPath2">
      <path
         d="m 193.941,107.723 0.075,6 -6,0.074 -0.075,-6 z"
         id="path2" />
    </clipPath>
    <clipPath
       clipPathUnits="userSpaceOnUse"
       id="clipPath4">
      <path
         d="m 110.09744,-192.58357 6.00002,-0.001 2e-5,6 -6.00001,0.001 z"
         id="path4" />
    </clipPath>
    <clipPath
       clipPathUnits="userSpaceOnUse"
       id="clipPath6">
      <path
         d="M 249.33333,142.66667 H 260 V 152 h -10.66667 z"
         id="path6" />
    </clipPath>
    <clipPath
       clipPathUnits="userSpaceOnUse"
       id="clipPath9">
      <path
         d="m 279.57801,-79.859002 v -6 h 6 v 6 z"
         id="path9" />
    </clipPath>
    <clipPath
       clipPathUnits="userSpaceOnUse"
       id="clipPath12">
      <path
         d="m 271.26201,-295.42201 v -6 h 6 v 6 z"
         id="path12" />
    </clipPath>
    <clipPath
       clipPathUnits="userSpaceOnUse"
       id="clipPath15">
      <path
         d="m 395.14501,-295.42201 v -6 h 6 v 6 z"
         id="path15" />
    </clipPath>
  </defs>
  <g
     id="g1">
    <path
       id="path1"
       d="m 190.641,53.387 v 4.996 c 0,5 0,15 0.054,24.562 0.059,9.563 0.172,18.688 0.227,23.254 l 0.055,4.563"
       style="fill:none;stroke:#333333;stroke-width:2.25;stroke-linecap:butt;stroke-linejoin:miter;stroke-miterlimit:4;stroke-dasharray:none;stroke-opacity:1"
       transform="scale(1.3333333)" />
    <g
       id="g3">
      <path
         d="m 193.941,107.723 -2.925,6.039 -3.075,-5.965 z"
         style="fill:#333333;fill-opacity:1;fill-rule:nonzero;stroke:none"
         transform="scale(1.3333333)"
         clip-path="url(#clipPath2)"
         id="path3" />
    </g>
    <g
       id="g5"
       clip-path="url(#clipPath6)">
      <path
         d="m 110.097,-192.584 6.002,3 -6.002,3 z"
         style="fill:none;stroke:#333333;stroke-width:1.79986;stroke-linecap:butt;stroke-linejoin:miter;stroke-miterlimit:4;stroke-dasharray:none;stroke-opacity:1"
         transform="matrix(0.0164392,1.3333333,-1.3333333,0.0164392,0,0)"
         clip-path="url(#clipPath4)"
         id="path5" />
    </g>
    <path
       id="path7"
       d="m 167.262,173.629 -14.067,10.586 c -14.07,10.582 -42.203,31.754 -56.269,49.91 -14.067,18.156 -14.067,33.305 -14.067,40.879 v 7.574"
       style="fill:none;stroke:#333333;stroke-width:2.25;stroke-linecap:butt;stroke-linejoin:miter;stroke-miterlimit:4;stroke-dasharray:none;stroke-opacity:1"
       transform="scale(1.3333333)" />
    <path
       id="path8"
       d="m 279.578,-85.859 6,3 -6,3 z"
       style="fill:#333333;fill-opacity:1;fill-rule:nonzero;stroke:#333333;stroke-width:1.8;stroke-linecap:butt;stroke-linejoin:miter;stroke-miterlimit:4;stroke-dasharray:none;stroke-opacity:1"
       transform="matrix(0,1.3333333,-1.3333333,0,0,0)"
       clip-path="url(#clipPath9)" />
    <path
       id="path10"
       d="m 214.77,173.629 13.941,10.586 c 13.941,10.582 41.828,31.754 55.769,48.523 13.942,16.774 13.942,29.149 13.942,35.336 v 6.188"
       style="fill:none;stroke:#333333;stroke-width:2.25;stroke-linecap:butt;stroke-linejoin:miter;stroke-miterlimit:4;stroke-dasharray:none;stroke-opacity:1"
       transform="scale(1.3333333)" />
    <path
       id="path11"
       d="m 271.262,-301.422 6,3 -6,3 z"
       style="fill:#333333;fill-opacity:1;fill-rule:nonzero;stroke:#333333;stroke-width:1.8;stroke-linecap:butt;stroke-linejoin:miter;stroke-miterlimit:4;stroke-dasharray:none;stroke-opacity:1"
       transform="matrix(0,1.3333333,-1.3333333,0,0,0)"
       clip-path="url(#clipPath12)" />
    <path
       id="path13"
       d="m 298.422,341.145 v 5 c 0,5 0,15 0,24.5 0,9.5 0,18.5 0,23 v 4.5"
       style="fill:none;stroke:#333333;stroke-width:2.25;stroke-linecap:butt;stroke-linejoin:miter;stroke-miterlimit:4;stroke-dasharray:none;stroke-opacity:1"
       transform="scale(1.3333333)" />
    <path
       id="path14"
       d="m 395.145,-301.422 6,3 -6,3 z"
       style="fill:#333333;fill-opacity:1;fill-rule:nonzero;stroke:#333333;stroke-width:1.8;stroke-linecap:butt;stroke-linejoin:miter;stroke-miterlimit:4;stroke-dasharray:none;stroke-opacity:1"
       transform="matrix(0,1.3333333,-1.3333333,0,0,0)"
       clip-path="url(#clipPath15)" />
    <path
       d="m 71.047,226.258 h 20.625 v 20.25 H 71.047 Z"
       style="fill:#ffffff;fill-opacity:1;fill-rule:nonzero;stroke:none"
       transform="scale(1.3333333)"
       opacity="0.5"
       id="path16" />
    <text
       id="text16"
       xml:space="preserve"
       transform="matrix(1.3333333,0,0,1.3333333,96.729167,320.67741)"><tspan
         id="tspan16"
         style="font-variant:normal;font-weight:normal;font-size:13.5px;font-family:'Trebuchet MS';writing-mode:lr-tb;fill:#333333;fill-opacity:1;fill-rule:nonzero;stroke:none"
         x="0"
         y="0">No</tspan></text>
    <path
       d="m 284.805,226.258 h 24.234 v 20.25 h -24.234 z"
       style="fill:#ffffff;fill-opacity:1;fill-rule:nonzero;stroke:none"
       transform="scale(1.3333333)"
       opacity="0.5"
       id="path17" />
    <text
       id="text17"
       xml:space="preserve"
       transform="matrix(1.3333333,0,0,1.3333333,381.73958,320.67741)"><tspan
         id="tspan17"
         style="font-variant:normal;font-weight:normal;font-size:13.5px;font-family:'Trebuchet MS';writing-mode:lr-tb;fill:#333333;fill-opacity:1;fill-rule:nonzero;stroke:none"
         x="0"
         dx="0 -1.4175"
         y="0">Yes</tspan></text>
    <path
       id="path18"
       d="M 87.32,6 H 293.961 V 53.383 H 87.32 Z"
       style="fill:#ececff;fill-opacity:1;fill-rule:nonzero;stroke:#9370db;stroke-width:1.875;stroke-linecap:butt;stroke-linejoin:miter;stroke-miterlimit:4;stroke-dasharray:none;stroke-opacity:1"
       transform="scale(1.3333333)" />
    <text
       id="text18"
       xml:space="preserve"
       transform="matrix(1.3333333,0,0,1.3333333,159.45313,47.998047)"><tspan
         id="tspan18"
         style="font-variant:normal;font-weight:normal;font-size:15px;font-family:'Trebuchet MS';writing-mode:lr-tb;fill:#333333;fill-opacity:1;fill-rule:nonzero;stroke:none"
         x="0"
         y="0">batch_chat(Nimages)</tspan></text>
    <path
       id="path19"
       d="m 190.641,197.008 41.812,-41.813 -41.812,-41.812 -41.813,41.812 z"
       style="fill:#ececff;fill-opacity:1;fill-rule:nonzero;stroke:#9370db;stroke-width:1.875;stroke-linecap:butt;stroke-linejoin:miter;stroke-miterlimit:4;stroke-dasharray:none;stroke-opacity:1"
       transform="scale(1.3333333)" />
    <text
       id="text19"
       xml:space="preserve"
       transform="matrix(1.3333333,0,0,1.3333333,229.94271,215.43034)"><tspan
         id="tspan19"
         style="font-variant:normal;font-weight:normal;font-size:15px;font-family:'Trebuchet MS';writing-mode:lr-tb;fill:#333333;fill-opacity:1;fill-rule:nonzero;stroke:none"
         x="0"
         y="0">OOM?</tspan></text>
    <path
       id="path20"
       d="m 6,285.578 h 153.715 v 47.25 H 6 Z"
       style="fill:#ececff;fill-opacity:1;fill-rule:nonzero;stroke:#9370db;stroke-width:1.875;stroke-linecap:butt;stroke-linejoin:miter;stroke-miterlimit:4;stroke-dasharray:none;stroke-opacity:1"
       transform="scale(1.3333333)" />
    <text
       id="text20"
       xml:space="preserve"
       transform="matrix(1.3333333,0,0,1.3333333,51.015625,420.76888)"><tspan
         id="tspan20"
         style="font-variant:normal;font-weight:normal;font-size:15px;font-family:'Trebuchet MS';writing-mode:lr-tb;fill:#333333;fill-opacity:1;fill-rule:nonzero;stroke:none"
         x="0"
         dx="0 -0.61500001"
         y="0">Returnresults</tspan></text>
    <path
       id="path21"
       d="m 204.715,277.258 h 187.418 v 63.887 H 204.715 Z"
       style="fill:#ffeeee;fill-opacity:1;fill-rule:nonzero;stroke:#cc0000;stroke-width:1.875;stroke-linecap:butt;stroke-linejoin:miter;stroke-miterlimit:4;stroke-dasharray:none;stroke-opacity:1"
       transform="scale(1.3333333)" />
    <text
       id="text21"
       xml:space="preserve"
       transform="matrix(1.3333333,0,0,1.3333333,339.88021,409.68034)"><tspan
         id="tspan21"
         style="font-variant:normal;font-weight:normal;font-size:15px;font-family:'Trebuchet MS';writing-mode:lr-tb;fill:#333333;fill-opacity:1;fill-rule:nonzero;stroke:none"
         x="0"
         dx="0 0 0 0 0 0 0 0 -1.65"
         y="0">Setoom=True</tspan><tspan
         id="tspan22"
         style="font-variant:normal;font-weight:normal;font-size:15px;font-family:'Trebuchet MS';writing-mode:lr-tb;fill:#333333;fill-opacity:1;fill-rule:nonzero;stroke:none"
         x="-15.667965"
         y="16.5">(exitexceptblock)</tspan></text>
    <path
       id="path22"
       d="m 310.055,412.773 c 0,6.426 -5.207,11.633 -11.633,11.633 -6.422,0 -11.629,-5.207 -11.629,-11.633 0,-6.421 5.207,-11.628 11.629,-11.628 6.426,0 11.633,5.207 11.633,11.628 z"
       style="fill:#ececff;fill-opacity:1;fill-rule:nonzero;stroke:#9370db;stroke-width:1.875;stroke-linecap:butt;stroke-linejoin:miter;stroke-miterlimit:4;stroke-dasharray:none;stroke-opacity:1"
       transform="scale(1.3333333)" />
    <text
       id="text22"
       xml:space="preserve"
       transform="matrix(1.3333333,0,0,1.3333333,392.39583,558.86784)"><tspan
         id="tspan23"
         style="font-variant:normal;font-weight:normal;font-size:15px;font-family:'Trebuchet MS';writing-mode:lr-tb;fill:#333333;fill-opacity:1;fill-rule:nonzero;stroke:none"
         x="0"
         y="0">Z</tspan></text>
  </g>
</svg>
