<?xml version="1.0" encoding="UTF-8" standalone="no"?>
<!-- Created with Inkscape (http://www.inkscape.org/) -->

<svg
   version="1.1"
   id="svg1"
   width="1213.5781"
   height="214.32031"
   viewBox="0 0 1213.5781 214.32031"
   xmlns="http://www.w3.org/2000/svg"
   xmlns:svg="http://www.w3.org/2000/svg">
  <defs
     id="defs1">
    <clipPath
       clipPathUnits="userSpaceOnUse"
       id="clipPath3">
      <path
         d="m 83.262002,91.629002 h 6 v 6 h -6 z"
         id="path3" />
    </clipPath>
    <clipPath
       clipPathUnits="userSpaceOnUse"
       id="clipPath5">
      <path
         d="m 304.01201,91.930002 6,0.074 -0.074,6 -6,-0.074 z"
         id="path5" />
    </clipPath>
    <clipPath
       clipPathUnits="userSpaceOnUse"
       id="clipPath7">
      <path
         d="m 305.11294,88.117982 5.99998,-9.62e-4 9.7e-4,5.999988 -5.99999,9.62e-4 z"
         id="path7" />
    </clipPath>
    <clipPath
       clipPathUnits="userSpaceOnUse"
       id="clipPath9">
      <path
         d="m 404,121.33333 h 10.66667 V 132 H 404 Z"
         id="path9" />
    </clipPath>
    <clipPath
       clipPathUnits="userSpaceOnUse"
       id="clipPath12">
      <path
         d="m 474.93801,43.191001 h 6 v 6 h -6 z"
         id="path12" />
    </clipPath>
    <clipPath
       clipPathUnits="userSpaceOnUse"
       id="clipPath15">
      <path
         d="m 744.46902,43.191001 h 6 v 6 h -6 z"
         id="path15" />
    </clipPath>
    <clipPath
       clipPathUnits="userSpaceOnUse"
       id="clipPath18">
      <path
         d="m 568.02301,140.062 h 6 v 6 h -6 z"
         id="path18" />
    </clipPath>
  </defs>
  <g
     id="g1">
    <path
       id="path1"
       d="m 29.262,94.629 h 5 c 5,0 15,0 24.5,0 9.5,0 18.5,0 23,0 h 4.5"
       style="fill:none;stroke:#333333;stroke-width:2.25;stroke-linecap:butt;stroke-linejoin:miter;stroke-miterlimit:4;stroke-dasharray:none;stroke-opacity:1"
       transform="scale(1.3333333)" />
    <path
       id="path2"
       d="m 83.262,91.629 6,3 -6,3 z"
       style="fill:#333333;fill-opacity:1;fill-rule:nonzero;stroke:#333333;stroke-width:1.8;stroke-linecap:butt;stroke-linejoin:miter;stroke-miterlimit:4;stroke-dasharray:none;stroke-opacity:1"
       transform="scale(1.3333333)"
       clip-path="url(#clipPath3)" />
    <path
       id="path4"
       d="m 249.598,94.629 h 5 c 5,0 15,0 24.562,0.055 9.563,0.054 18.688,0.168 23.25,0.226 l 4.563,0.055"
       style="fill:none;stroke:#333333;stroke-width:2.25;stroke-linecap:butt;stroke-linejoin:miter;stroke-miterlimit:4;stroke-dasharray:none;stroke-opacity:1"
       transform="scale(1.3333333)" />
    <g
       id="g6">
      <path
         d="m 304.012,91.93 5.961,3.074 -6.039,2.926 z"
         style="fill:#333333;fill-opacity:1;fill-rule:nonzero;stroke:none"
         transform="scale(1.3333333)"
         clip-path="url(#clipPath5)"
         id="path6" />
    </g>
    <g
       id="g8"
       clip-path="url(#clipPath9)">
      <path
         d="m 305.113,88.118 5.998,2.999 -6.002,3.001 z"
         style="fill:none;stroke:#333333;stroke-width:1.79986;stroke-linecap:butt;stroke-linejoin:miter;stroke-miterlimit:4;stroke-dasharray:none;stroke-opacity:1"
         transform="matrix(1.3333333,0.0166584,-0.0166584,1.3333333,0,0)"
         clip-path="url(#clipPath7)"
         id="path8" />
    </g>
    <path
       id="path10"
       d="m 381.348,79.273 9.578,-5.515 c 9.578,-5.512 28.738,-16.539 44.836,-22.051 16.097,-5.516 29.136,-5.516 35.656,-5.516 h 6.52"
       style="fill:none;stroke:#333333;stroke-width:2.25;stroke-linecap:butt;stroke-linejoin:miter;stroke-miterlimit:4;stroke-dasharray:none;stroke-opacity:1"
       transform="scale(1.3333333)" />
    <path
       id="path11"
       d="m 474.938,43.191 6,3 -6,3 z"
       style="fill:#333333;fill-opacity:1;fill-rule:nonzero;stroke:#333333;stroke-width:1.8;stroke-linecap:butt;stroke-linejoin:miter;stroke-miterlimit:4;stroke-dasharray:none;stroke-opacity:1"
       transform="scale(1.3333333)"
       clip-path="url(#clipPath12)" />
    <path
       id="path13"
       d="m 690.469,46.191 h 5 c 5,0 15,0 24.5,0 9.5,0 18.5,0 23,0 h 4.5"
       style="fill:none;stroke:#333333;stroke-width:2.25;stroke-linecap:butt;stroke-linejoin:miter;stroke-miterlimit:4;stroke-dasharray:none;stroke-opacity:1"
       transform="scale(1.3333333)" />
    <path
       id="path14"
       d="m 744.469,43.191 6,3 -6,3 z"
       style="fill:#333333;fill-opacity:1;fill-rule:nonzero;stroke:#333333;stroke-width:1.8;stroke-linecap:butt;stroke-linejoin:miter;stroke-miterlimit:4;stroke-dasharray:none;stroke-opacity:1"
       transform="scale(1.3333333)"
       clip-path="url(#clipPath15)" />
    <path
       id="path16"
       d="m 381.348,110.73 9.578,5.391 c 9.578,5.387 28.738,16.164 60.351,21.555 31.614,5.386 75.68,5.386 97.715,5.386 h 22.031"
       style="fill:none;stroke:#333333;stroke-width:2.25;stroke-linecap:butt;stroke-linejoin:miter;stroke-miterlimit:4;stroke-dasharray:none;stroke-opacity:1"
       transform="scale(1.3333333)" />
    <path
       id="path17"
       d="m 568.023,140.062 6,3 -6,3 z"
       style="fill:#333333;fill-opacity:1;fill-rule:nonzero;stroke:#333333;stroke-width:1.8;stroke-linecap:butt;stroke-linejoin:miter;stroke-miterlimit:4;stroke-dasharray:none;stroke-opacity:1"
       transform="scale(1.3333333)"
       clip-path="url(#clipPath18)" />
    <path
       d="m 427.008,35.316 h 20.625 v 20.25 h -20.625 z"
       style="fill:#ffffff;fill-opacity:1;fill-rule:nonzero;stroke:none"
       transform="scale(1.3333333)"
       opacity="0.5"
       id="path19" />
    <text
       id="text19"
       xml:space="preserve"
       transform="matrix(1.3333333,0,0,1.3333333,571.34375,66.088867)"><tspan
         id="tspan19"
         style="font-variant:normal;font-weight:normal;font-size:13.5px;font-family:'Trebuchet MS';writing-mode:lr-tb;fill:#333333;fill-opacity:1;fill-rule:nonzero;stroke:none"
         x="0"
         y="0">No</tspan></text>
    <path
       d="m 425.203,132.188 h 24.234 v 20.25 h -24.234 z"
       style="fill:#ffffff;fill-opacity:1;fill-rule:nonzero;stroke:none"
       transform="scale(1.3333333)"
       opacity="0.5"
       id="path20" />
    <text
       id="text20"
       xml:space="preserve"
       transform="matrix(1.3333333,0,0,1.3333333,568.9375,195.25033)"><tspan
         id="tspan20"
         style="font-variant:normal;font-weight:normal;font-size:13.5px;font-family:'Trebuchet MS';writing-mode:lr-tb;fill:#333333;fill-opacity:1;fill-rule:nonzero;stroke:none"
         x="0"
         dx="0 -1.4175"
         y="0">Yes</tspan></text>
    <path
       id="path21"
       d="m 29.262,94.629 c 0,6.422 -5.207,11.629 -11.629,11.629 C 11.207,106.258 6,101.051 6,94.629 6,88.203 11.207,82.996 17.633,82.996 c 6.422,0 11.629,5.207 11.629,11.633 z"
       style="fill:#ececff;fill-opacity:1;fill-rule:nonzero;stroke:#9370db;stroke-width:1.875;stroke-linecap:butt;stroke-linejoin:miter;stroke-miterlimit:4;stroke-dasharray:none;stroke-opacity:1"
       transform="scale(1.3333333)" />
    <text
       id="text21"
       xml:space="preserve"
       transform="matrix(1.3333333,0,0,1.3333333,18.005208,134.66992)"><tspan
         id="tspan21"
         style="font-variant:normal;font-weight:normal;font-size:15px;font-family:'Trebuchet MS';writing-mode:lr-tb;fill:#333333;fill-opacity:1;fill-rule:nonzero;stroke:none"
         x="0"
         y="0">Z</tspan></text>
    <path
       id="path22"
       d="m 89.262,54.434 h 160.336 v 80.387 H 89.262 Z"
       style="fill:#eeffee;fill-opacity:1;fill-rule:nonzero;stroke:#00aa00;stroke-width:1.875;stroke-linecap:butt;stroke-linejoin:miter;stroke-miterlimit:4;stroke-dasharray:none;stroke-opacity:1"
       transform="scale(1.3333333)" />
    <text
       id="text22"
       xml:space="preserve"
       transform="matrix(1.3333333,0,0,1.3333333,179.69792,112.58138)"><tspan
         id="tspan22"
         style="font-variant:normal;font-weight:normal;font-size:15px;font-family:'Trebuchet MS';writing-mode:lr-tb;fill:#333333;fill-opacity:1;fill-rule:nonzero;stroke:none"
         x="0"
         y="0">deltensors</tspan><tspan
         id="tspan23"
         style="font-variant:normal;font-weight:normal;font-size:15px;font-family:'Trebuchet MS';writing-mode:lr-tb;fill:#333333;fill-opacity:1;fill-rule:nonzero;stroke:none"
         x="-4.0234351"
         y="16.5">gc.collect()</tspan><tspan
         id="tspan24"
         style="font-variant:normal;font-weight:normal;font-size:15px;font-family:'Trebuchet MS';writing-mode:lr-tb;fill:#333333;fill-opacity:1;fill-rule:nonzero;stroke:none"
         x="-15.50781"
         y="33">empty_cache()</tspan></text>
    <path
       id="path24"
       d="M 353.148,138.18 396.703,94.629 353.148,51.074 309.598,94.629 Z"
       style="fill:#ececff;fill-opacity:1;fill-rule:nonzero;stroke:#9370db;stroke-width:1.875;stroke-linecap:butt;stroke-linejoin:miter;stroke-miterlimit:4;stroke-dasharray:none;stroke-opacity:1"
       transform="scale(1.3333333)" />
    <text
       id="text24"
       xml:space="preserve"
       transform="matrix(1.3333333,0,0,1.3333333,450.32292,134.66992)"><tspan
         id="tspan25"
         style="font-variant:normal;font-weight:normal;font-size:15px;font-family:'Trebuchet MS';writing-mode:lr-tb;fill:#333333;fill-opacity:1;fill-rule:nonzero;stroke:none"
         x="0"
         y="0">N&gt;1?</tspan></text>
    <path
       id="path25"
       d="M 480.938,6 H 690.469 V 86.383 H 480.938 Z"
       style="fill:#ececff;fill-opacity:1;fill-rule:nonzero;stroke:#9370db;stroke-width:1.875;stroke-linecap:butt;stroke-linejoin:miter;stroke-miterlimit:4;stroke-dasharray:none;stroke-opacity:1"
       transform="scale(1.3333333)" />
    <text
       id="text25"
       xml:space="preserve"
       transform="matrix(1.3333333,0,0,1.3333333,698.03125,47.998047)"><tspan
         id="tspan26"
         style="font-variant:normal;font-weight:normal;font-size:15px;font-family:'Trebuchet MS';writing-mode:lr-tb;fill:#333333;fill-opacity:1;fill-rule:nonzero;stroke:none"
         x="0"
         y="0">Sequentialfallback</tspan><tspan
         id="tspan27"
         style="font-variant:normal;font-weight:normal;font-size:15px;font-family:'Trebuchet MS';writing-mode:lr-tb;fill:#333333;fill-opacity:1;fill-rule:nonzero;stroke:none"
         x="-12.58203"
         dx="0 0 0 0 0 0 0 0 0 0 0 -0.090000004 0 0 0 0 0 0 0 0 -0.075000003"
         y="16.5">detect_and_classify_d</tspan><tspan
         id="tspan28"
         style="font-variant:normal;font-weight:normal;font-size:15px;font-family:'Trebuchet MS';writing-mode:lr-tb;fill:#333333;fill-opacity:1;fill-rule:nonzero;stroke:none"
         x="27.449221"
         y="33">ocument()</tspan></text>
    <path
       id="path28"
       d="m 750.469,22.566 h 153.715 v 47.25 H 750.469 Z"
       style="fill:#ececff;fill-opacity:1;fill-rule:nonzero;stroke:#9370db;stroke-width:1.875;stroke-linecap:butt;stroke-linejoin:miter;stroke-miterlimit:4;stroke-dasharray:none;stroke-opacity:1"
       transform="scale(1.3333333)" />
    <text
       id="text28"
       xml:space="preserve"
       transform="matrix(1.3333333,0,0,1.3333333,1043.6406,70.091797)"><tspan
         id="tspan29"
         style="font-variant:normal;font-weight:normal;font-size:15px;font-family:'Trebuchet MS';writing-mode:lr-tb;fill:#333333;fill-opacity:1;fill-rule:nonzero;stroke:none"
         x="0"
         dx="0 -0.61500001"
         y="0">Returnresults</tspan></text>
    <path
       id="path29"
       d="m 597.383,143.062 c 0,6.45 -5.231,11.68 -11.68,11.68 -6.449,0 -11.68,-5.23 -11.68,-11.68 0,-6.449 5.231,-11.679 11.68,-11.679 6.449,0 11.68,5.23 11.68,11.679 z"
       style="fill:#ececff;fill-opacity:1;fill-rule:nonzero;stroke:#9370db;stroke-width:1.875;stroke-linecap:butt;stroke-linejoin:miter;stroke-miterlimit:4;stroke-dasharray:none;stroke-opacity:1"
       transform="scale(1.3333333)" />
    <text
       id="text29"
       xml:space="preserve"
       transform="matrix(1.3333333,0,0,1.3333333,775.36979,199.24805)"><tspan
         id="tspan30"
         style="font-variant:normal;font-weight:normal;font-size:15px;font-family:'Trebuchet MS';writing-mode:lr-tb;fill:#333333;fill-opacity:1;fill-rule:nonzero;stroke:none"
         x="0"
         y="0">X</tspan></text>
  </g>
</svg>
