<?xml version="1.0" encoding="UTF-8" standalone="no"?>
<!-- Created with Inkscape (http://www.inkscape.org/) -->

<svg
   version="1.1"
   id="svg1"
   width="597.73438"
   height="717.02344"
   viewBox="0 0 597.73438 717.02344"
   xmlns="http://www.w3.org/2000/svg"
   xmlns:svg="http://www.w3.org/2000/svg">
  <defs
     id="defs1">
    <clipPath
       clipPathUnits="userSpaceOnUse"
       id="clipPath3">
      <path
         d="m 83.355002,-225.52001 v -6 h 6 v 6 z"
         id="path3" />
    </clipPath>
    <clipPath
       clipPathUnits="userSpaceOnUse"
       id="clipPath6">
      <path
         d="m 198.93,-105.195 v -6 h 6.00001 v 6 z"
         id="path6" />
    </clipPath>
    <clipPath
       clipPathUnits="userSpaceOnUse"
       id="clipPath9">
      <path
         d="m 190.68,-345.84401 v -6 h 6 v 6 z"
         id="path9" />
    </clipPath>
    <clipPath
       clipPathUnits="userSpaceOnUse"
       id="clipPath11">
      <path
         d="m 199.102,341.47301 5.14801,3.082 -3.082,5.148 -5.14801,-3.082 z"
         id="path11" />
    </clipPath>
    <clipPath
       clipPathUnits="userSpaceOnUse"
       id="clipPath13">
      <path
         d="m 297.06493,163.6936 5.14852,8.6e-4 -8.6e-4,5.14851 -5.14851,-8.5e-4 z"
         id="path13" />
    </clipPath>
    <clipPath
       clipPathUnits="userSpaceOnUse"
       id="clipPath15">
      <path
         d="m 261.33333,454.66667 h 12 v 10.66666 h -12 z"
         id="path15" />
    </clipPath>
    <clipPath
       clipPathUnits="userSpaceOnUse"
       id="clipPath17">
      <path
         d="m 261.76601,346.59801 -5.137,3.097 -3.098,-5.136 5.137,-3.098 z"
         id="path17" />
    </clipPath>
    <clipPath
       clipPathUnits="userSpaceOnUse"
       id="clipPath19">
      <path
         d="m -38.631415,-369.90152 5.136214,0.001 -1.27e-4,5.13592 -5.136657,-5.7e-4 z"
         id="path19" />
    </clipPath>
    <clipPath
       clipPathUnits="userSpaceOnUse"
       id="clipPath21">
      <path
         d="m 337.33333,454.66667 h 12 v 10.66666 h -12 z"
         id="path21" />
    </clipPath>
    <clipPath
       clipPathUnits="userSpaceOnUse"
       id="clipPath24">
      <path
         d="m 478.48001,-115 v -6 h 6 v 6 z"
         id="path24" />
    </clipPath>
    <clipPath
       clipPathUnits="userSpaceOnUse"
       id="clipPath27">
      <path
         d="m 478.44101,-336.03901 v -6 h 6 v 6 z"
         id="path27" />
    </clipPath>
  </defs>
  <g
     id="g1">
    <path
       id="path1"
       d="m 228.52,29.355 v 5 c 0,5 0,15 0,24.5 0,9.5 0,18.5 0,23 v 4.5"
       style="fill:none;stroke:#333333;stroke-width:2.25;stroke-linecap:butt;stroke-linejoin:miter;stroke-miterlimit:4;stroke-dasharray:none;stroke-opacity:1"
       transform="scale(1.3333333)" />
    <path
       id="path2"
       d="m 83.355,-231.52 6,3 -6,3 z"
       style="fill:#333333;fill-opacity:1;fill-rule:nonzero;stroke:#333333;stroke-width:1.8;stroke-linecap:butt;stroke-linejoin:miter;stroke-miterlimit:4;stroke-dasharray:none;stroke-opacity:1"
       transform="matrix(0,1.3333333,-1.3333333,0,0,0)"
       clip-path="url(#clipPath3)" />
    <path
       id="path4"
       d="m 175.461,136.68 -11.211,5.004 c -11.211,5 -33.633,15 -44.844,25.875 -11.211,10.875 -11.211,22.625 -11.211,28.5 v 5.871"
       style="fill:none;stroke:#333333;stroke-width:2.25;stroke-linecap:butt;stroke-linejoin:miter;stroke-miterlimit:4;stroke-dasharray:none;stroke-opacity:1"
       transform="scale(1.3333333)" />
    <path
       id="path5"
       d="m 198.93,-111.195 6,3 -6,3 z"
       style="fill:#333333;fill-opacity:1;fill-rule:nonzero;stroke:#333333;stroke-width:1.8;stroke-linecap:butt;stroke-linejoin:miter;stroke-miterlimit:4;stroke-dasharray:none;stroke-opacity:1"
       transform="matrix(0,1.3333333,-1.3333333,0,0,0)"
       clip-path="url(#clipPath6)" />
    <path
       id="path7"
       d="m 281.578,136.68 11.211,5.004 c 11.211,5 33.633,15 44.844,24.5 11.211,9.496 11.211,18.496 11.211,22.996 v 4.5"
       style="fill:none;stroke:#333333;stroke-width:2.25;stroke-linecap:butt;stroke-linejoin:miter;stroke-miterlimit:4;stroke-dasharray:none;stroke-opacity:1"
       transform="scale(1.3333333)" />
    <path
       id="path8"
       d="m 190.68,-351.844 6,3 -6,3 z"
       style="fill:#333333;fill-opacity:1;fill-rule:nonzero;stroke:#333333;stroke-width:1.8;stroke-linecap:butt;stroke-linejoin:miter;stroke-miterlimit:4;stroke-dasharray:none;stroke-opacity:1"
       transform="matrix(0,1.3333333,-1.3333333,0,0,0)"
       clip-path="url(#clipPath9)" />
    <path
       id="path10"
       d="m 108.195,252.316 v 6.375 c 0,6.375 0,19.125 15.321,34.668 15.324,15.547 45.972,33.887 61.296,43.055 l 15.321,9.172"
       style="fill:none;stroke:#333333;stroke-width:2.25;stroke-linecap:butt;stroke-linejoin:miter;stroke-miterlimit:4;stroke-dasharray:none;stroke-opacity:1"
       transform="scale(1.3333333)" />
    <g
       id="g12">
      <path
         d="m 199.102,341.473 3.605,5.652 -6.687,-0.504 z"
         style="fill:#333333;fill-opacity:1;fill-rule:nonzero;stroke:none"
         transform="scale(1.3333333)"
         clip-path="url(#clipPath11)"
         id="path12" />
    </g>
    <g
       id="g14"
       clip-path="url(#clipPath15)">
      <path
         d="m 297.064,163.693 5.146,2.574 -5.146,2.575 z"
         style="fill:none;stroke:#333333;stroke-width:1.54454;stroke-linecap:butt;stroke-linejoin:miter;stroke-miterlimit:4;stroke-dasharray:none;stroke-opacity:1"
         transform="matrix(1.3333333,0.79793733,-0.79793733,1.3333333,0,0)"
         clip-path="url(#clipPath13)"
         id="path14" />
    </g>
    <path
       id="path16"
       d="m 348.844,260.566 v 5 c 0,5 0,15 -15.199,29.168 -15.2,14.168 -45.598,32.504 -60.797,41.672 l -15.2,9.172"
       style="fill:none;stroke:#333333;stroke-width:2.25;stroke-linecap:butt;stroke-linejoin:miter;stroke-miterlimit:4;stroke-dasharray:none;stroke-opacity:1"
       transform="scale(1.3333333)" />
    <g
       id="g18">
      <path
         d="m 261.766,346.598 -6.688,0.527 3.59,-5.668 z"
         style="fill:#333333;fill-opacity:1;fill-rule:nonzero;stroke:none"
         transform="scale(1.3333333)"
         clip-path="url(#clipPath17)"
         id="path18" />
    </g>
    <g
       id="g20"
       clip-path="url(#clipPath21)">
      <path
         d="m -38.631,-369.901 5.136,2.571 -5.139,2.568 z"
         style="fill:none;stroke:#333333;stroke-width:1.54129;stroke-linecap:butt;stroke-linejoin:miter;stroke-miterlimit:4;stroke-dasharray:none;stroke-opacity:1"
         transform="matrix(-1.3333333,0.80430267,-0.80430267,-1.3333333,0,0)"
         clip-path="url(#clipPath19)"
         id="path20" />
    </g>
    <path
       id="path22"
       d="m 204.883,380.555 -14.481,10.629 c -14.48,10.625 -43.441,31.878 -57.922,48.699 C 118,456.703 118,469.094 118,475.285 v 6.195"
       style="fill:none;stroke:#333333;stroke-width:2.25;stroke-linecap:butt;stroke-linejoin:miter;stroke-miterlimit:4;stroke-dasharray:none;stroke-opacity:1"
       transform="scale(1.3333333)" />
    <path
       id="path23"
       d="m 478.48,-121 6,3 -6,3 z"
       style="fill:#333333;fill-opacity:1;fill-rule:nonzero;stroke:#333333;stroke-width:1.8;stroke-linecap:butt;stroke-linejoin:miter;stroke-miterlimit:4;stroke-dasharray:none;stroke-opacity:1"
       transform="matrix(0,1.3333333,-1.3333333,0,0,0)"
       clip-path="url(#clipPath24)" />
    <path
       id="path25"
       d="m 252.906,380.555 14.356,10.629 c 14.355,10.625 43.066,31.878 57.422,48.695 14.355,16.812 14.355,29.187 14.355,35.375 v 6.187"
       style="fill:none;stroke:#333333;stroke-width:2.25;stroke-linecap:butt;stroke-linejoin:miter;stroke-miterlimit:4;stroke-dasharray:none;stroke-opacity:1"
       transform="scale(1.3333333)" />
    <path
       id="path26"
       d="m 478.441,-342.039 6,3 -6,3 z"
       style="fill:#333333;fill-opacity:1;fill-rule:nonzero;stroke:#333333;stroke-width:1.8;stroke-linecap:butt;stroke-linejoin:miter;stroke-miterlimit:4;stroke-dasharray:none;stroke-opacity:1"
       transform="matrix(0,1.3333333,-1.3333333,0,0,0)"
       clip-path="url(#clipPath27)" />
    <path
       d="m 106.188,433.441 h 20.625 v 20.25 h -20.625 z"
       style="fill:#ffffff;fill-opacity:1;fill-rule:nonzero;stroke:none"
       transform="scale(1.3333333)"
       opacity="0.5"
       id="path28" />
    <text
       id="text28"
       xml:space="preserve"
       transform="matrix(1.3333333,0,0,1.3333333,143.58333,596.9222)"><tspan
         id="tspan28"
         style="font-variant:normal;font-weight:normal;font-size:13.5px;font-family:'Trebuchet MS';writing-mode:lr-tb;fill:#333333;fill-opacity:1;fill-rule:nonzero;stroke:none"
         x="0"
         y="0">No</tspan></text>
    <path
       d="m 325.422,433.441 h 24.234 v 20.25 h -24.234 z"
       style="fill:#ffffff;fill-opacity:1;fill-rule:nonzero;stroke:none"
       transform="scale(1.3333333)"
       opacity="0.5"
       id="path29" />
    <text
       id="text29"
       xml:space="preserve"
       transform="matrix(1.3333333,0,0,1.3333333,435.89583,596.9222)"><tspan
         id="tspan29"
         style="font-variant:normal;font-weight:normal;font-size:13.5px;font-family:'Trebuchet MS';writing-mode:lr-tb;fill:#333333;fill-opacity:1;fill-rule:nonzero;stroke:none"
         x="0"
         dx="0 -1.4175"
         y="0">Yes</tspan></text>
    <path
       id="path30"
       d="m 240.195,17.68 c 0,6.449 -5.226,11.675 -11.675,11.675 -6.45,0 -11.68,-5.226 -11.68,-11.675 0,-6.453 5.23,-11.68 11.68,-11.68 6.449,0 11.675,5.227 11.675,11.68 z"
       style="fill:#ececff;fill-opacity:1;fill-rule:nonzero;stroke:#9370db;stroke-width:1.875;stroke-linecap:butt;stroke-linejoin:miter;stroke-miterlimit:4;stroke-dasharray:none;stroke-opacity:1"
       transform="scale(1.3333333)" />
    <text
       id="text30"
       xml:space="preserve"
       transform="matrix(1.3333333,0,0,1.3333333,299.125,32.070964)"><tspan
         id="tspan30"
         style="font-variant:normal;font-weight:normal;font-size:15px;font-family:'Trebuchet MS';writing-mode:lr-tb;fill:#333333;fill-opacity:1;fill-rule:nonzero;stroke:none"
         x="0"
         y="0">X</tspan></text>
    <path
       id="path31"
       d="m 144.637,89.355 h 167.766 v 47.324 H 144.637 Z"
       style="fill:#ececff;fill-opacity:1;fill-rule:nonzero;stroke:#9370db;stroke-width:1.875;stroke-linecap:butt;stroke-linejoin:miter;stroke-miterlimit:4;stroke-dasharray:none;stroke-opacity:1"
       transform="scale(1.3333333)" />
    <text
       id="text31"
       xml:space="preserve"
       transform="matrix(1.3333333,0,0,1.3333333,241.89063,159.13867)"><tspan
         id="tspan31"
         style="font-variant:normal;font-weight:normal;font-size:15px;font-family:'Trebuchet MS';writing-mode:lr-tb;fill:#333333;fill-opacity:1;fill-rule:nonzero;stroke:none"
         x="0"
         y="0">Split:N/2+N/2</tspan></text>
    <path
       id="path32"
       d="m 6,204.93 h 204.387 v 47.387 H 6 Z"
       style="fill:#ececff;fill-opacity:1;fill-rule:nonzero;stroke:#9370db;stroke-width:1.875;stroke-linecap:butt;stroke-linejoin:miter;stroke-miterlimit:4;stroke-dasharray:none;stroke-opacity:1"
       transform="scale(1.3333333)" />
    <text
       id="text32"
       xml:space="preserve"
       transform="matrix(1.3333333,0,0,1.3333333,51.020833,313.24284)"><tspan
         id="tspan32"
         style="font-variant:normal;font-weight:normal;font-size:15px;font-family:'Trebuchet MS';writing-mode:lr-tb;fill:#333333;fill-opacity:1;fill-rule:nonzero;stroke:none"
         x="0"
         y="0">batch_chat(firsthalf)</tspan></text>
    <path
       id="path33"
       d="m 255.387,196.68 h 186.914 v 63.887 H 255.387 Z"
       style="fill:#ececff;fill-opacity:1;fill-rule:nonzero;stroke:#9370db;stroke-width:1.875;stroke-linecap:butt;stroke-linejoin:miter;stroke-miterlimit:4;stroke-dasharray:none;stroke-opacity:1"
       transform="scale(1.3333333)" />
    <text
       id="text33"
       xml:space="preserve"
       transform="matrix(1.3333333,0,0,1.3333333,380.51563,302.24284)"><tspan
         id="tspan33"
         style="font-variant:normal;font-weight:normal;font-size:15px;font-family:'Trebuchet MS';writing-mode:lr-tb;fill:#333333;fill-opacity:1;fill-rule:nonzero;stroke:none"
         x="0"
         y="0">batch_chat(second</tspan><tspan
         id="tspan34"
         style="font-variant:normal;font-weight:normal;font-size:15px;font-family:'Trebuchet MS';writing-mode:lr-tb;fill:#333333;fill-opacity:1;fill-rule:nonzero;stroke:none"
         x="47.679691"
         y="16.5">half)</tspan></text>
    <path
       id="path34"
       d="m 228.52,404.191 41.812,-41.812 -41.812,-41.813 -41.813,41.813 z"
       style="fill:#ececff;fill-opacity:1;fill-rule:nonzero;stroke:#9370db;stroke-width:1.875;stroke-linecap:butt;stroke-linejoin:miter;stroke-miterlimit:4;stroke-dasharray:none;stroke-opacity:1"
       transform="scale(1.3333333)" />
    <text
       id="text34"
       xml:space="preserve"
       transform="matrix(1.3333333,0,0,1.3333333,280.44792,491.66992)"><tspan
         id="tspan35"
         style="font-variant:normal;font-weight:normal;font-size:15px;font-family:'Trebuchet MS';writing-mode:lr-tb;fill:#333333;fill-opacity:1;fill-rule:nonzero;stroke:none"
         x="0"
         y="0">OOM?</tspan></text>
    <path
       id="path35"
       d="m 41.141,484.48 h 153.715 v 47.25 H 41.141 Z"
       style="fill:#ececff;fill-opacity:1;fill-rule:nonzero;stroke:#9370db;stroke-width:1.875;stroke-linecap:butt;stroke-linejoin:miter;stroke-miterlimit:4;stroke-dasharray:none;stroke-opacity:1"
       transform="scale(1.3333333)" />
    <text
       id="text35"
       xml:space="preserve"
       transform="matrix(1.3333333,0,0,1.3333333,97.869792,685.97201)"><tspan
         id="tspan36"
         style="font-variant:normal;font-weight:normal;font-size:15px;font-family:'Trebuchet MS';writing-mode:lr-tb;fill:#333333;fill-opacity:1;fill-rule:nonzero;stroke:none"
         x="0"
         dx="0 -0.61500001"
         y="0">Returnresults</tspan></text>
    <path
       id="path36"
       d="m 239.855,484.441 h 198.363 v 47.324 H 239.855 Z"
       style="fill:#ececff;fill-opacity:1;fill-rule:nonzero;stroke:#9370db;stroke-width:1.875;stroke-linecap:butt;stroke-linejoin:miter;stroke-miterlimit:4;stroke-dasharray:none;stroke-opacity:1"
       transform="scale(1.3333333)" />
    <text
       id="text36"
       xml:space="preserve"
       transform="matrix(1.3333333,0,0,1.3333333,365.84375,685.91992)"><tspan
         id="tspan37"
         style="font-variant:normal;font-weight:normal;font-size:15px;font-family:'Trebuchet MS';writing-mode:lr-tb;fill:#333333;fill-opacity:1;fill-rule:nonzero;stroke:none"
         x="0"
         dx="0 -0.61500001"
         y="0">Recurse:halveagain</tspan></text>
  </g>
</svg>
