<?xml version="1.0" encoding="UTF-8" standalone="no"?>
<!-- Created with Inkscape (http://www.inkscape.org/) -->

<svg
   version="1.1"
   id="svg1"
   width="410.78125"
   height="1702.8984"
   viewBox="0 0 410.78125 1702.8984"
   xmlns="http://www.w3.org/2000/svg"
   xmlns:svg="http://www.w3.org/2000/svg">
  <defs
     id="defs1">
    <clipPath
       clipPathUnits="userSpaceOnUse"
       id="clipPath7">
      <path
         d="m 221.38701,-151.043 v -6 h 6 v 6 z"
         id="path7" />
    </clipPath>
    <clipPath
       clipPathUnits="userSpaceOnUse"
       id="clipPath10">
      <path
         d="m 380.52001,-151.043 v -6 h 6 v 6 z"
         id="path10" />
    </clipPath>
    <clipPath
       clipPathUnits="userSpaceOnUse"
       id="clipPath13">
      <path
         d="m 562.52701,-151.043 v -6 h 6 v 6 z"
         id="path13" />
    </clipPath>
    <clipPath
       clipPathUnits="userSpaceOnUse"
       id="clipPath16">
      <path
         d="m 870.53902,-151.043 v -6 h 6 v 6 z"
         id="path16" />
    </clipPath>
    <clipPath
       clipPathUnits="userSpaceOnUse"
       id="clipPath19">
      <path
         d="m 996.53902,-151.043 v -6 h 5.99998 v 6 z"
         id="path19" />
    </clipPath>
    <clipPath
       clipPathUnits="userSpaceOnUse"
       id="clipPath22">
      <path
         d="m 727.90202,-151.043 v -6 h 6 v 6 z"
         id="path22" />
    </clipPath>
    <clipPath
       clipPathUnits="userSpaceOnUse"
       id="clipPath25">
      <path
         d="m 1178.547,-151.043 v -6 h 6 v 6 z"
         id="path25" />
    </clipPath>
  </defs>
  <g
     id="g1">
    <path
       id="path1"
       d="M 6,6 H 302.086 V 1271.172 H 6 Z"
       style="fill:#ffffde;fill-opacity:1;fill-rule:nonzero;stroke:#aaaa33;stroke-width:1.875;stroke-linecap:butt;stroke-linejoin:miter;stroke-miterlimit:4;stroke-dasharray:none;stroke-opacity:1"
       transform="scale(1.3333333)" />
    <text
       id="text1"
       xml:space="preserve"
       transform="matrix(1.3333333,0,0,1.3333333,106.07292,27.998047)"><tspan
         id="tspan1"
         style="font-variant:normal;font-weight:normal;font-size:15px;font-family:'Trebuchet MS';writing-mode:lr-tb;fill:#333333;fill-opacity:1;fill-rule:nonzero;stroke:none"
         x="0"
         dx="0 0 0 0 -1.65"
         y="0">OneTransformer</tspan><tspan
         id="tspan2"
         style="font-variant:normal;font-weight:normal;font-size:15px;font-family:'Trebuchet MS';writing-mode:lr-tb;fill:#333333;fill-opacity:1;fill-rule:nonzero;stroke:none"
         x="0"
         y="16.5">Layer(repeated~64x)</tspan></text>
    <path
       id="path2"
       d="m 23.648,694.531 h 260.789 v 411.266 H 23.648 Z"
       style="fill:#ffffde;fill-opacity:1;fill-rule:nonzero;stroke:#aaaa33;stroke-width:1.875;stroke-linecap:butt;stroke-linejoin:miter;stroke-miterlimit:4;stroke-dasharray:none;stroke-opacity:1"
       transform="scale(1.3333333)" />
    <text
       id="text2"
       xml:space="preserve"
       transform="matrix(1.3333333,0,0,1.3333333,143.32813,946.03971)"><tspan
         id="tspan3"
         style="font-variant:normal;font-weight:normal;font-size:15px;font-family:'Trebuchet MS';writing-mode:lr-tb;fill:#333333;fill-opacity:1;fill-rule:nonzero;stroke:none"
         x="0"
         y="0">Feed-Forward</tspan><tspan
         id="tspan4"
         style="font-variant:normal;font-weight:normal;font-size:15px;font-family:'Trebuchet MS';writing-mode:lr-tb;fill:#333333;fill-opacity:1;fill-rule:nonzero;stroke:none"
         x="0"
         y="16.5">Network</tspan></text>
    <path
       id="path4"
       d="M 21,45.375 H 287.086 V 489.781 H 21 Z"
       style="fill:#ffffde;fill-opacity:1;fill-rule:nonzero;stroke:#aaaa33;stroke-width:1.875;stroke-linecap:butt;stroke-linejoin:miter;stroke-miterlimit:4;stroke-dasharray:none;stroke-opacity:1"
       transform="scale(1.3333333)" />
    <text
       id="text4"
       xml:space="preserve"
       transform="matrix(1.3333333,0,0,1.3333333,111.70833,80.498047)"><tspan
         id="tspan5"
         style="font-variant:normal;font-weight:normal;font-size:15px;font-family:'Trebuchet MS';writing-mode:lr-tb;fill:#333333;fill-opacity:1;fill-rule:nonzero;stroke:none"
         x="0"
         y="0">Multi-HeadAttention</tspan></text>
    <path
       id="path5"
       d="m 154.043,148.637 v 6.562 c 0,6.563 0,19.688 0,32.309 0,12.625 0,24.75 0,30.812 v 6.067"
       style="fill:none;stroke:#333333;stroke-width:2.25;stroke-linecap:butt;stroke-linejoin:miter;stroke-miterlimit:4;stroke-dasharray:none;stroke-opacity:1"
       transform="scale(1.3333333)" />
    <path
       id="path6"
       d="m 221.387,-157.043 6,3 -6,3 z"
       style="fill:#333333;fill-opacity:1;fill-rule:nonzero;stroke:#333333;stroke-width:1.8;stroke-linecap:butt;stroke-linejoin:miter;stroke-miterlimit:4;stroke-dasharray:none;stroke-opacity:1"
       transform="matrix(0,1.3333333,-1.3333333,0,0,0)"
       clip-path="url(#clipPath7)" />
    <path
       id="path8"
       d="m 154.043,307.77 v 6.562 c 0,6.563 0,19.688 0,32.313 0,12.625 0,24.75 0,30.812 v 6.063"
       style="fill:none;stroke:#333333;stroke-width:2.25;stroke-linecap:butt;stroke-linejoin:miter;stroke-miterlimit:4;stroke-dasharray:none;stroke-opacity:1"
       transform="scale(1.3333333)" />
    <path
       id="path9"
       d="m 380.52,-157.043 6,3 -6,3 z"
       style="fill:#333333;fill-opacity:1;fill-rule:nonzero;stroke:#333333;stroke-width:1.8;stroke-linecap:butt;stroke-linejoin:miter;stroke-miterlimit:4;stroke-dasharray:none;stroke-opacity:1"
       transform="matrix(0,1.3333333,-1.3333333,0,0,0)"
       clip-path="url(#clipPath10)" />
    <path
       id="path11"
       d="m 154.043,450.402 v 6.563 c 0,6.562 0,19.687 0,32.812 0,13.125 0,26.25 0,38.875 0,12.629 0,24.75 0,30.817 v 6.058"
       style="fill:none;stroke:#333333;stroke-width:2.25;stroke-linecap:butt;stroke-linejoin:miter;stroke-miterlimit:4;stroke-dasharray:none;stroke-opacity:1"
       transform="scale(1.3333333)" />
    <path
       id="path12"
       d="m 562.527,-157.043 6,3 -6,3 z"
       style="fill:#333333;fill-opacity:1;fill-rule:nonzero;stroke:#333333;stroke-width:1.8;stroke-linecap:butt;stroke-linejoin:miter;stroke-miterlimit:4;stroke-dasharray:none;stroke-opacity:1"
       transform="matrix(0,1.3333333,-1.3333333,0,0,0)"
       clip-path="url(#clipPath13)" />
    <path
       id="path14"
       d="m 154.043,797.789 v 6.563 c 0,6.562 0,19.687 0,32.312 0,12.625 0,24.75 0,30.813 v 6.062"
       style="fill:none;stroke:#333333;stroke-width:2.25;stroke-linecap:butt;stroke-linejoin:miter;stroke-miterlimit:4;stroke-dasharray:none;stroke-opacity:1"
       transform="scale(1.3333333)" />
    <path
       id="path15"
       d="m 870.539,-157.043 6,3 -6,3 z"
       style="fill:#333333;fill-opacity:1;fill-rule:nonzero;stroke:#333333;stroke-width:1.8;stroke-linecap:butt;stroke-linejoin:miter;stroke-miterlimit:4;stroke-dasharray:none;stroke-opacity:1"
       transform="matrix(0,1.3333333,-1.3333333,0,0,0)"
       clip-path="url(#clipPath16)" />
    <path
       id="path17"
       d="m 154.043,923.789 v 6.563 c 0,6.562 0,19.687 0,32.312 0,12.625 0,24.75 0,30.813 v 6.062"
       style="fill:none;stroke:#333333;stroke-width:2.25;stroke-linecap:butt;stroke-linejoin:miter;stroke-miterlimit:4;stroke-dasharray:none;stroke-opacity:1"
       transform="scale(1.3333333)" />
    <path
       id="path18"
       d="m 996.539,-157.043 6,3 -6,3 z"
       style="fill:#333333;fill-opacity:1;fill-rule:nonzero;stroke:#333333;stroke-width:1.8;stroke-linecap:butt;stroke-linejoin:miter;stroke-miterlimit:4;stroke-dasharray:none;stroke-opacity:1"
       transform="matrix(0,1.3333333,-1.3333333,0,0,0)"
       clip-path="url(#clipPath19)" />
    <path
       id="path20"
       d="m 154.043,615.777 v 6.563 c 0,6.562 0,19.687 0,32.812 0,13.125 0,26.25 0,38.875 0,12.629 0,24.75 0,30.817 v 6.058"
       style="fill:none;stroke:#333333;stroke-width:2.25;stroke-linecap:butt;stroke-linejoin:miter;stroke-miterlimit:4;stroke-dasharray:none;stroke-opacity:1"
       transform="scale(1.3333333)" />
    <path
       id="path21"
       d="m 727.902,-157.043 6,3 -6,3 z"
       style="fill:#333333;fill-opacity:1;fill-rule:nonzero;stroke:#333333;stroke-width:1.8;stroke-linecap:butt;stroke-linejoin:miter;stroke-miterlimit:4;stroke-dasharray:none;stroke-opacity:1"
       transform="matrix(0,1.3333333,-1.3333333,0,0,0)"
       clip-path="url(#clipPath22)" />
    <path
       id="path23"
       d="m 154.043,1066.422 v 6.562 c 0,6.563 0,19.688 0,32.813 0,13.125 0,26.25 0,38.879 0,12.621 0,24.75 0,30.808 v 6.063"
       style="fill:none;stroke:#333333;stroke-width:2.25;stroke-linecap:butt;stroke-linejoin:miter;stroke-miterlimit:4;stroke-dasharray:none;stroke-opacity:1"
       transform="scale(1.3333333)" />
    <path
       id="path24"
       d="m 1178.547,-157.043 6,3 -6,3 z"
       style="fill:#333333;fill-opacity:1;fill-rule:nonzero;stroke:#333333;stroke-width:1.8;stroke-linecap:butt;stroke-linejoin:miter;stroke-miterlimit:4;stroke-dasharray:none;stroke-opacity:1"
       transform="matrix(0,1.3333333,-1.3333333,0,0,0)"
       clip-path="url(#clipPath25)" />
    <path
       id="path26"
       d="m 53.648,733.906 h 200.789 v 63.883 H 53.648 Z"
       style="fill:#ececff;fill-opacity:1;fill-rule:nonzero;stroke:#9370db;stroke-width:1.875;stroke-linecap:butt;stroke-linejoin:miter;stroke-miterlimit:4;stroke-dasharray:none;stroke-opacity:1"
       transform="scale(1.3333333)" />
    <text
       id="text26"
       xml:space="preserve"
       transform="matrix(1.3333333,0,0,1.3333333,120.57813,1018.5397)"><tspan
         id="tspan26"
         style="font-variant:normal;font-weight:normal;font-size:15px;font-family:'Trebuchet MS';writing-mode:lr-tb;fill:#333333;fill-opacity:1;fill-rule:nonzero;stroke:none"
         x="0"
         dx="0 0 0 0 0 0 0 0 -0.70499998"
         y="0">Gate+UpProjection</tspan><tspan
         id="tspan27"
         style="font-variant:normal;font-weight:normal;font-size:15px;font-family:'Trebuchet MS';writing-mode:lr-tb;fill:#333333;fill-opacity:1;fill-rule:nonzero;stroke:none"
         x="5.2773452"
         y="16.5">(column-parallel)</tspan></text>
    <path
       id="path27"
       d="m 60.363,84.75 h 187.359 v 63.883 H 60.363 Z"
       style="fill:#ececff;fill-opacity:1;fill-rule:nonzero;stroke:#9370db;stroke-width:1.875;stroke-linecap:butt;stroke-linejoin:miter;stroke-miterlimit:4;stroke-dasharray:none;stroke-opacity:1"
       transform="scale(1.3333333)" />
    <text
       id="text27"
       xml:space="preserve"
       transform="matrix(1.3333333,0,0,1.3333333,129.53125,152.99805)"><tspan
         id="tspan28"
         style="font-variant:normal;font-weight:normal;font-size:15px;font-family:'Trebuchet MS';writing-mode:lr-tb;fill:#333333;fill-opacity:1;fill-rule:nonzero;stroke:none"
         x="0"
         dx="0 -0.405 0 0 0 0 -0.70499998"
         y="0">Q,K,VProjections</tspan><tspan
         id="tspan29"
         style="font-variant:normal;font-weight:normal;font-size:15px;font-family:'Trebuchet MS';writing-mode:lr-tb;fill:#333333;fill-opacity:1;fill-rule:nonzero;stroke:none"
         x="-1.4374995"
         y="16.5">(column-parallel)</tspan></text>
    <path
       id="path29"
       d="M 51,227.383 H 257.086 V 307.77 H 51 Z"
       style="fill:#ececff;fill-opacity:1;fill-rule:nonzero;stroke:#9370db;stroke-width:1.875;stroke-linecap:butt;stroke-linejoin:miter;stroke-miterlimit:4;stroke-dasharray:none;stroke-opacity:1"
       transform="scale(1.3333333)" />
    <text
       id="text29"
       xml:space="preserve"
       transform="matrix(1.3333333,0,0,1.3333333,163,343.18034)"><tspan
         id="tspan30"
         style="font-variant:normal;font-weight:normal;font-size:15px;font-family:'Trebuchet MS';writing-mode:lr-tb;fill:#333333;fill-opacity:1;fill-rule:nonzero;stroke:none"
         x="0"
         y="0">Attention</tspan><tspan
         id="tspan31"
         style="font-variant:normal;font-weight:normal;font-size:15px;font-family:'Trebuchet MS';writing-mode:lr-tb;fill:#333333;fill-opacity:1;fill-rule:nonzero;stroke:none"
         x="-11.367195"
         y="16.5">Computation</tspan><tspan
         id="tspan32"
         style="font-variant:normal;font-weight:normal;font-size:15px;font-family:'Trebuchet MS';writing-mode:lr-tb;fill:#333333;fill-opacity:1;fill-rule:nonzero;stroke:none"
         x="-34.460941"
         y="33">(localheadsperGPU)</tspan></text>
    <path
       id="path32"
       d="m 63.844,386.52 h 180.398 v 63.887 H 63.844 Z"
       style="fill:#ececff;fill-opacity:1;fill-rule:nonzero;stroke:#9370db;stroke-width:1.875;stroke-linecap:butt;stroke-linejoin:miter;stroke-miterlimit:4;stroke-dasharray:none;stroke-opacity:1"
       transform="scale(1.3333333)" />
    <text
       id="text32"
       xml:space="preserve"
       transform="matrix(1.3333333,0,0,1.3333333,128.14583,555.35742)"><tspan
         id="tspan33"
         style="font-variant:normal;font-weight:normal;font-size:15px;font-family:'Trebuchet MS';writing-mode:lr-tb;fill:#333333;fill-opacity:1;fill-rule:nonzero;stroke:none"
         x="0"
         dx="0 0 0 0 0 0 0 -0.70499998"
         y="0">OutputProjection</tspan><tspan
         id="tspan34"
         style="font-variant:normal;font-weight:normal;font-size:15px;font-family:'Trebuchet MS';writing-mode:lr-tb;fill:#333333;fill-opacity:1;fill-rule:nonzero;stroke:none"
         x="11.449215"
         y="16.5">(row-parallel)</tspan></text>
    <path
       id="path34"
       d="m 80.828,568.531 h 146.43 v 47.25 H 80.828 Z"
       style="fill:#ff9966;fill-opacity:1;fill-rule:nonzero;stroke:#333333;stroke-width:1.875;stroke-linecap:butt;stroke-linejoin:miter;stroke-miterlimit:4;stroke-dasharray:none;stroke-opacity:1"
       transform="scale(1.3333333)" />
    <text
       id="text34"
       xml:space="preserve"
       transform="matrix(1.3333333,0,0,1.3333333,150.79687,798.03971)"><tspan
         id="tspan35"
         style="font-variant:normal;font-weight:normal;font-size:15px;font-family:'Trebuchet MS';writing-mode:lr-tb;fill:#333333;fill-opacity:1;fill-rule:nonzero;stroke:none"
         x="0"
         dx="0 0 0 0 -0.61500001"
         y="0">AllReduce#1</tspan></text>
    <path
       id="path35"
       d="m 73.688,876.539 h 160.711 v 47.25 H 73.688 Z"
       style="fill:#ececff;fill-opacity:1;fill-rule:nonzero;stroke:#9370db;stroke-width:1.875;stroke-linecap:butt;stroke-linejoin:miter;stroke-miterlimit:4;stroke-dasharray:none;stroke-opacity:1"
       transform="scale(1.3333333)" />
    <text
       id="text35"
       xml:space="preserve"
       transform="matrix(1.3333333,0,0,1.3333333,140.71875,1208.7168)"><tspan
         id="tspan36"
         style="font-variant:normal;font-weight:normal;font-size:15px;font-family:'Trebuchet MS';writing-mode:lr-tb;fill:#333333;fill-opacity:1;fill-rule:nonzero;stroke:none"
         x="0"
         y="0">SiLUActivation</tspan></text>
    <path
       id="path36"
       d="m 68.918,1002.539 h 170.25 v 63.883 H 68.918 Z"
       style="fill:#ececff;fill-opacity:1;fill-rule:nonzero;stroke:#9370db;stroke-width:1.875;stroke-linecap:butt;stroke-linejoin:miter;stroke-miterlimit:4;stroke-dasharray:none;stroke-opacity:1"
       transform="scale(1.3333333)" />
    <text
       id="text36"
       xml:space="preserve"
       transform="matrix(1.3333333,0,0,1.3333333,134.90625,1376.7168)"><tspan
         id="tspan37"
         style="font-variant:normal;font-weight:normal;font-size:15px;font-family:'Trebuchet MS';writing-mode:lr-tb;fill:#333333;fill-opacity:1;fill-rule:nonzero;stroke:none"
         x="0"
         dx="0 0 0 0 0 -0.70499998"
         y="0">DownProjection</tspan><tspan
         id="tspan38"
         style="font-variant:normal;font-weight:normal;font-size:15px;font-family:'Trebuchet MS';writing-mode:lr-tb;fill:#333333;fill-opacity:1;fill-rule:nonzero;stroke:none"
         x="6.3789001"
         y="16.5">(row-parallel)</tspan></text>
    <path
       id="path38"
       d="m 80.828,1184.547 h 146.43 v 47.25 H 80.828 Z"
       style="fill:#ff9966;fill-opacity:1;fill-rule:nonzero;stroke:#333333;stroke-width:1.875;stroke-linecap:butt;stroke-linejoin:miter;stroke-miterlimit:4;stroke-dasharray:none;stroke-opacity:1"
       transform="scale(1.3333333)" />
    <text
       id="text38"
       xml:space="preserve"
       transform="matrix(1.3333333,0,0,1.3333333,150.79687,1619.3991)"><tspan
         id="tspan39"
         style="font-variant:normal;font-weight:normal;font-size:15px;font-family:'Trebuchet MS';writing-mode:lr-tb;fill:#333333;fill-opacity:1;fill-rule:nonzero;stroke:none"
         x="0"
         dx="0 0 0 0 -0.61500001"
         y="0">AllReduce#2</tspan></text>
  </g>
</svg>
