<svg aria-roledescription="flowchart-v2" role="graphics-document document" viewBox="-2 0 961.203125 938.5" style="max-width: 961.203px; background-color: transparent;" class="flowchart" xmlns:xlink="http://www.w3.org/1999/xlink" xmlns="http://www.w3.org/2000/svg" width="100%" id="my-svg"><style>#my-svg{font-family:"trebuchet ms",verdana,arial,sans-serif;font-size:18px;fill:#333;}@keyframes edge-animation-frame{from{stroke-dashoffset:0;}}@keyframes dash{to{stroke-dashoffset:0;}}#my-svg .edge-animation-slow{stroke-dasharray:9,5!important;stroke-dashoffset:900;animation:dash 50s linear infinite;stroke-linecap:round;}#my-svg .edge-animation-fast{stroke-dasharray:9,5!important;stroke-dashoffset:900;animation:dash 20s linear infinite;stroke-linecap:round;}#my-svg .error-icon{fill:#552222;}#my-svg .error-text{fill:#552222;stroke:#552222;}#my-svg .edge-thickness-normal{stroke-width:3.5px;}#my-svg .edge-thickness-thick{stroke-width:5px;}#my-svg .edge-pattern-solid{stroke-dasharray:0;}#my-svg .edge-thickness-invisible{stroke-width: 2.5;fill:none;}#my-svg .edge-pattern-dashed{stroke-dasharray:3;}#my-svg .edge-pattern-dotted{stroke-dasharray:2;}#my-svg .marker{fill:#333333;stroke:#333333;}#my-svg .marker.cross{stroke:#333333;}#my-svg svg{font-family:"trebuchet ms",verdana,arial,sans-serif;font-size:18px;}#my-svg p{margin:0;}#my-svg .label{font-family:"trebuchet ms",verdana,arial,sans-serif;color:#333;}#my-svg .cluster-label text{fill:#333;}#my-svg .cluster-label span{color:#333;}#my-svg .cluster-label span p{background-color:transparent;}#my-svg .label text,#my-svg span{fill:#333;color:#333;}#my-svg .node rect,#my-svg .node circle,#my-svg .node ellipse,#my-svg .node polygon,#my-svg .node path{fill:#ECECFF;stroke:#9370DB;stroke-width:2.5px;}#my-svg .rough-node .label text,#my-svg .node .label text,#my-svg .image-shape .label,#my-svg .icon-shape .label{text-anchor:middle;}#my-svg .node .katex path{fill:#000;stroke:#000;stroke-width:2.5px;}#my-svg .rough-node .label,#my-svg .node .label,#my-svg .image-shape .label,#my-svg .icon-shape .label{text-align:center;}#my-svg .node.clickable{cursor:pointer;}#my-svg .root .anchor path{fill:#333333!important;stroke-width: 2.5;stroke:#333333;}#my-svg .arrowheadPath{fill:#333333;}#my-svg .edgePath .path{stroke:#333333;stroke-width:3.5px;}#my-svg .flowchart-link{stroke:#333333;fill:none;}#my-svg .edgeLabel{background-color:#ffffff;text-align:center;}#my-svg .edgeLabel p{background-color:#ffffff;}#my-svg .edgeLabel rect{opacity:0.5;background-color:#ffffff;fill:#ffffff;}#my-svg .labelBkg{background-color:rgba(255, 255, 255, 0.5);}#my-svg .cluster rect{fill:#ffffde;stroke:#aaaa33;stroke-width:2.5px;}#my-svg .cluster text{fill:#333;}#my-svg .cluster span{color:#333;}#my-svg div.mermaidTooltip{position:absolute;text-align:center;max-width:200px;padding:2px;font-family:"trebuchet ms",verdana,arial,sans-serif;font-size:12px;background:hsl(80, 100%, 96.2745098039%);border:1px solid #aaaa33;border-radius:2px;pointer-events:none;z-index:100;}#my-svg .flowchartTitleText{text-anchor:middle;font-size:18px;fill:#333;}#my-svg rect.text{fill:none;stroke-width: 2.5;}#my-svg .icon-shape,#my-svg .image-shape{background-color:#ffffff;text-align:center;}#my-svg .icon-shape p,#my-svg .image-shape p{background-color:#ffffff;padding:2px;}#my-svg .icon-shape rect,#my-svg .image-shape rect{opacity:0.5;background-color:#ffffff;fill:#ffffff;}#my-svg .label-icon{display:inline-block;height:1em;overflow:visible;vertical-align:-0.125em;}#my-svg .node .label-icon path{fill:currentColor;stroke:revert;stroke-width:revert;}#my-svg :root{--mermaid-font-family:"trebuchet ms",verdana,arial,sans-serif;}</style><g><marker orient="auto" markerHeight="8" markerWidth="8" markerUnits="userSpaceOnUse" refY="5" refX="5" viewBox="0 0 10 10" class="marker flowchart-v2" id="my-svg_flowchart-v2-pointEnd"><path style="stroke-width: 2.5; stroke-dasharray: 1, 0;" class="arrowMarkerPath" d="M 0 0 L 10 5 L 0 10 z"/></marker><marker orient="auto" markerHeight="8" markerWidth="8" markerUnits="userSpaceOnUse" refY="5" refX="4.5" viewBox="0 0 10 10" class="marker flowchart-v2" id="my-svg_flowchart-v2-pointStart"><path style="stroke-width: 2.5; stroke-dasharray: 1, 0;" class="arrowMarkerPath" d="M 0 5 L 10 10 L 10 0 z"/></marker><marker orient="auto" markerHeight="11" markerWidth="11" markerUnits="userSpaceOnUse" refY="5" refX="11" viewBox="0 0 10 10" class="marker flowchart-v2" id="my-svg_flowchart-v2-circleEnd"><circle style="stroke-width: 2.5; stroke-dasharray: 1, 0;" class="arrowMarkerPath" r="5" cy="5" cx="5"/></marker><marker orient="auto" markerHeight="11" markerWidth="11" markerUnits="userSpaceOnUse" refY="5" refX="-1" viewBox="0 0 10 10" class="marker flowchart-v2" id="my-svg_flowchart-v2-circleStart"><circle style="stroke-width: 2.5; stroke-dasharray: 1, 0;" class="arrowMarkerPath" r="5" cy="5" cx="5"/></marker><marker orient="auto" markerHeight="11" markerWidth="11" markerUnits="userSpaceOnUse" refY="5.2" refX="12" viewBox="0 0 11 11" class="marker cross flowchart-v2" id="my-svg_flowchart-v2-crossEnd"><path style="stroke-width: 2; stroke-dasharray: 1, 0;" class="arrowMarkerPath" d="M 1,1 l 9,9 M 10,1 l -9,9"/></marker><marker orient="auto" markerHeight="11" markerWidth="11" markerUnits="userSpaceOnUse" refY="5.2" refX="-1" viewBox="0 0 11 11" class="marker cross flowchart-v2" id="my-svg_flowchart-v2-crossStart"><path style="stroke-width: 2; stroke-dasharray: 1, 0;" class="arrowMarkerPath" d="M 1,1 l 9,9 M 10,1 l -9,9"/></marker><g class="root"><g class="clusters"/><g class="edgePaths"><path marker-end="url(#my-svg_flowchart-v2-pointEnd)" style="" class="edge-thickness-normal edge-pattern-solid edge-thickness-normal edge-pattern-solid flowchart-link" id="L_A_B_0" style="stroke:#333333;stroke-width:3px;fill:none;" d="M392.141,59L392.141,63.167C392.141,67.333,392.141,75.667,392.211,83.417C392.281,91.167,392.422,98.334,392.492,101.917L392.562,105.501"/><path marker-end="url(#my-svg_flowchart-v2-pointEnd)" style="" class="edge-thickness-normal edge-pattern-solid edge-thickness-normal edge-pattern-solid flowchart-link" id="L_B_C_0" style="stroke:#333333;stroke-width:3px;fill:none;" d="M354.115,165.615L298.525,178.203C242.936,190.79,131.757,215.965,76.168,240.703C20.578,265.441,20.578,289.741,20.578,311.957C20.578,334.174,20.578,354.307,20.578,376.091C20.578,397.874,20.578,421.307,20.578,446.824C20.578,472.341,20.578,499.941,20.578,528.229C20.578,556.517,20.578,585.494,20.578,614.47C20.578,643.447,20.578,672.423,20.578,700.712C20.578,729,20.578,756.6,20.578,782.117C20.578,807.633,20.578,831.067,26.776,846.6C32.974,862.134,45.37,869.768,51.568,873.585L57.766,877.402"/><path marker-end="url(#my-svg_flowchart-v2-pointEnd)" style="" class="edge-thickness-normal edge-pattern-solid edge-thickness-normal edge-pattern-solid flowchart-link" id="L_B_D_0" style="stroke:#333333;stroke-width:3px;fill:none;" d="M371.124,182.624L362.839,192.377C354.554,202.13,337.984,221.635,329.699,236.971C321.414,252.307,321.414,263.474,321.414,269.057L321.414,274.641"/><path marker-end="url(#my-svg_flowchart-v2-pointEnd)" style="" class="edge-thickness-normal edge-pattern-solid edge-thickness-normal edge-pattern-solid flowchart-link" id="L_D_E_0" style="stroke:#333333;stroke-width:3px;fill:none;" d="M321.414,349.441L321.414,353.607C321.414,357.774,321.414,366.107,321.414,373.774C321.414,381.441,321.414,388.441,321.414,391.941L321.414,395.441"/><path marker-end="url(#my-svg_flowchart-v2-pointEnd)" style="" class="edge-thickness-normal edge-pattern-solid edge-thickness-normal edge-pattern-solid flowchart-link" id="L_E_F_0" style="stroke:#333333;stroke-width:3px;fill:none;" d="M321.414,490.041L321.414,496.291C321.414,502.541,321.414,515.041,321.489,526.957C321.563,538.874,321.712,550.208,321.787,555.874L321.861,561.541"/><path marker-end="url(#my-svg_flowchart-v2-pointEnd)" style="" class="edge-thickness-normal edge-pattern-solid edge-thickness-normal edge-pattern-solid flowchart-link" id="L_F_G_0" style="stroke:#333333;stroke-width:3px;fill:none;" d="M352.141,634.173L369.826,645.378C387.511,656.582,422.88,678.991,440.565,699.079C458.25,719.167,458.25,736.933,458.25,745.817L458.25,754.7"/><path marker-end="url(#my-svg_flowchart-v2-pointEnd)" style="" class="edge-thickness-normal edge-pattern-solid edge-thickness-normal edge-pattern-solid flowchart-link" id="L_G_H_0" style="stroke:#333333;stroke-width:3px;fill:none;" d="M458.25,809.7L458.25,817.167C458.25,824.633,458.25,839.567,463.543,850.813C468.836,862.059,479.422,869.617,484.715,873.396L490.008,877.176"/><path marker-end="url(#my-svg_flowchart-v2-pointEnd)" style="" class="edge-thickness-normal edge-pattern-solid edge-thickness-normal edge-pattern-solid flowchart-link" id="L_G_I_0" style="stroke:#333333;stroke-width:3px;fill:none;" d="M540.931,809.7L565.141,817.167C589.351,824.633,637.771,839.567,672.677,850.97C707.583,862.373,728.974,870.246,739.67,874.182L750.366,878.118"/><path marker-end="url(#my-svg_flowchart-v2-pointEnd)" style="" class="edge-thickness-normal edge-pattern-solid edge-thickness-normal edge-pattern-solid flowchart-link" id="L_H_B_0" style="stroke:#333333;stroke-width:3px;fill:none;" d="M598.263,879.5L609.585,875.333C620.906,871.167,643.549,862.833,654.87,846.95C666.191,831.067,666.191,807.633,666.191,782.117C666.191,756.6,666.191,729,666.191,700.712C666.191,672.423,666.191,643.447,666.191,614.47C666.191,585.494,666.191,556.517,666.191,528.229C666.191,499.941,666.191,472.341,666.191,446.824C666.191,421.307,666.191,397.874,666.191,376.091C666.191,354.307,666.191,334.174,666.191,311.957C666.191,289.741,666.191,265.441,627.259,241.298C588.327,217.154,510.463,193.168,471.531,181.175L432.599,169.182"/><path marker-end="url(#my-svg_flowchart-v2-pointEnd)" style="" class="edge-thickness-normal edge-pattern-solid edge-thickness-normal edge-pattern-solid flowchart-link" id="L_I_B_0" style="stroke:#333333;stroke-width:3px;fill:none;" d="M828.456,879.5L829.281,875.333C830.106,871.167,831.756,862.833,832.581,846.95C833.406,831.067,833.406,807.633,833.406,782.117C833.406,756.6,833.406,729,833.406,700.712C833.406,672.423,833.406,643.447,833.406,614.47C833.406,585.494,833.406,556.517,833.406,528.229C833.406,499.941,833.406,472.341,833.406,446.824C833.406,421.307,833.406,397.874,833.406,376.091C833.406,354.307,833.406,334.174,833.406,311.957C833.406,289.741,833.406,265.441,767.215,240.634C701.024,215.827,568.642,190.514,502.451,177.858L436.26,165.201"/><path marker-end="url(#my-svg_flowchart-v2-pointEnd)" style="" class="edge-thickness-normal edge-pattern-solid edge-thickness-normal edge-pattern-solid flowchart-link" id="L_F_J_0" style="stroke:#333333;stroke-width:3px;fill:none;" d="M291.687,634.173L273.836,645.378C255.984,656.582,220.281,678.991,202.43,695.779C184.578,712.567,184.578,723.733,184.578,729.317L184.578,734.9"/><path marker-end="url(#my-svg_flowchart-v2-pointEnd)" style="" class="edge-thickness-normal edge-pattern-solid edge-thickness-normal edge-pattern-solid flowchart-link" id="L_J_C_0" style="stroke:#333333;stroke-width:3px;fill:none;" d="M184.578,829.5L184.578,833.667C184.578,837.833,184.578,846.167,178.38,854.15C172.182,862.134,159.786,869.768,153.588,873.585L147.39,877.402"/></g><g class="edgeLabels"><g><rect style="stroke: none" class="background"/></g><g><rect style="stroke: none" class="background"/></g><g><rect style="stroke: none" class="background"/></g><g><rect style="stroke: none" class="background"/></g><g><rect style="stroke: none" class="background"/></g><g><rect style="stroke: none" class="background"/></g><g><rect style="stroke: none" class="background"/></g><g><rect style="stroke: none" class="background"/></g><g class="edgeLabel"><g transform="translate(0, 0)" class="label"><text y="-10.1"><tspan dy="1.1em" y="-0.1em" x="0" class="text-outer-tspan"/></text></g></g><g transform="translate(20.578125, 527.5406265258789)" class="edgeLabel"><g transform="translate(-12.578125, -12.5)" class="label"><g><rect height="25" width="25.15625" y="-0.9999980926513672" x="-2" style="" class="background"/><text style="" y="-10.1"><tspan dy="1.1em" y="-0.1em" x="0" class="text-outer-tspan"><tspan font-weight="normal" class="text-inner-tspan" font-style="normal">No</tspan></tspan></text></g></g></g><g transform="translate(321.4140625, 241.140625)" class="edgeLabel"><g transform="translate(-14.7421875, -12.5)" class="label"><g><rect height="25" width="29.484375" y="-0.9999980926513672" x="-2" style="" class="background"/><text style="" y="-10.1"><tspan dy="1.1em" y="-0.1em" x="0" class="text-outer-tspan"><tspan font-weight="normal" class="text-inner-tspan" font-style="normal">Yes</tspan></tspan></text></g></g></g><g class="edgeLabel"><g transform="translate(0, 0)" class="label"><text y="-10.1"><tspan dy="1.1em" y="-0.1em" x="0" class="text-outer-tspan"/></text></g></g><g class="edgeLabel"><g transform="translate(0, 0)" class="label"><text y="-10.1"><tspan dy="1.1em" y="-0.1em" x="0" class="text-outer-tspan"/></text></g></g><g transform="translate(458.25, 701.4000015258789)" class="edgeLabel"><g transform="translate(-14.7421875, -12.5)" class="label"><g><rect height="25" width="29.484375" y="-0.9999980926513672" x="-2" style="" class="background"/><text style="" y="-10.1"><tspan dy="1.1em" y="-0.1em" x="0" class="text-outer-tspan"><tspan font-weight="normal" class="text-inner-tspan" font-style="normal">Yes</tspan></tspan></text></g></g></g><g class="edgeLabel"><g transform="translate(0, 0)" class="label"><text y="-10.1"><tspan dy="1.1em" y="-0.1em" x="0" class="text-outer-tspan"/></text></g></g><g class="edgeLabel"><g transform="translate(0, 0)" class="label"><text y="-10.1"><tspan dy="1.1em" y="-0.1em" x="0" class="text-outer-tspan"/></text></g></g><g class="edgeLabel"><g transform="translate(0, 0)" class="label"><text y="-10.1"><tspan dy="1.1em" y="-0.1em" x="0" class="text-outer-tspan"/></text></g></g><g class="edgeLabel"><g transform="translate(0, 0)" class="label"><text y="-10.1"><tspan dy="1.1em" y="-0.1em" x="0" class="text-outer-tspan"/></text></g></g><g transform="translate(184.578125, 701.4000015258789)" class="edgeLabel"><g transform="translate(-12.578125, -12.5)" class="label"><g><rect height="25" width="25.15625" y="-0.9999980926513672" x="-2" style="" class="background"/><text style="" y="-10.1"><tspan dy="1.1em" y="-0.1em" x="0" class="text-outer-tspan"><tspan font-weight="normal" class="text-inner-tspan" font-style="normal">No</tspan></tspan></text></g></g></g><g class="edgeLabel"><g transform="translate(0, 0)" class="label"><text y="-10.1"><tspan dy="1.1em" y="-0.1em" x="0" class="text-outer-tspan"/></text></g></g></g><g class="nodes"><g transform="translate(392.140625, 33.5)" id="flowchart-A-0" class="node default"><rect height="51" width="235.953125" y="-25.5" x="-117.9765625" style="" class="basic label-container" style="stroke-width:2.5px;"/><g transform="translate(0, -10.5)" style="" class="label"><rect/><g><rect style="stroke: none" class="background"/><text style="" y="-10.1"><tspan dy="1.1em" y="-0.1em" x="0" class="text-outer-tspan"><tspan font-weight="normal" class="text-inner-tspan" font-style="normal">batch_chat(N</tspan><tspan font-weight="normal" class="text-inner-tspan" font-style="normal"> images)</tspan></tspan></text></g></g></g><g transform="translate(392.140625, 156.3203125)" id="flowchart-B-1" class="node default"><polygon transform="translate(-47.3203125,47.3203125)" class="label-container" style="stroke-width:2.5px;" points="47.3203125,0 94.640625,-47.3203125 47.3203125,-94.640625 0,-47.3203125"/><g transform="translate(0, -10.5)" style="" class="label"><rect/><g><rect style="stroke: none" class="background"/><text style="" y="-10.1"><tspan dy="1.1em" y="-0.1em" x="0" class="text-outer-tspan"><tspan font-weight="normal" class="text-inner-tspan" font-style="normal">OOM?</tspan></tspan></text></g></g></g><g transform="translate(102.578125, 905)" id="flowchart-C-3" class="node default"><rect height="51" width="172.46875" y="-25.5" x="-86.234375" style="" class="basic label-container" style="stroke-width:2.5px;"/><g transform="translate(0, -10.5)" style="" class="label"><rect/><g><rect style="stroke: none" class="background"/><text style="" y="-10.1"><tspan dy="1.1em" y="-0.1em" x="0" class="text-outer-tspan"><tspan font-weight="normal" class="text-inner-tspan" font-style="normal">Return</tspan><tspan font-weight="normal" class="text-inner-tspan" font-style="normal"> results</tspan></tspan></text></g></g></g><g transform="translate(321.4140625, 314.0406265258789)" id="flowchart-D-5" class="node default"><rect height="70.80000305175781" width="212.90625" y="-35.400001525878906" x="-106.453125" style="fill:#fee !important;stroke:#c00 !important" class="basic label-container" style="stroke-width:2.5px;"/><g transform="translate(0, -20.400001525878906)" style="" class="label"><rect/><g><rect style="stroke: none" class="background"/><text style="" y="-10.1"><tspan dy="1.1em" y="-0.1em" x="0" class="text-outer-tspan"><tspan font-weight="normal" class="text-inner-tspan" font-style="normal">Set</tspan><tspan font-weight="normal" class="text-inner-tspan" font-style="normal"> oom=True</tspan></tspan><tspan dy="1.1em" y="1em" x="0" class="text-outer-tspan"><tspan font-weight="normal" class="text-inner-tspan" font-style="normal">(exit</tspan><tspan font-weight="normal" class="text-inner-tspan" font-style="normal"> except</tspan><tspan font-weight="normal" class="text-inner-tspan" font-style="normal"> block)</tspan></tspan></text></g></g></g><g transform="translate(321.4140625, 444.74062728881836)" id="flowchart-E-7" class="node default"><rect height="90.5999984741211" width="180.40625" y="-45.29999923706055" x="-90.203125" style="fill:#efe !important;stroke:#0a0 !important" class="basic label-container" style="stroke-width:2.5px;"/><g transform="translate(0, -30.299999237060547)" style="" class="label"><rect/><g><rect style="stroke: none" class="background"/><text style="" y="-10.1"><tspan dy="1.1em" y="-0.1em" x="0" class="text-outer-tspan"><tspan font-weight="normal" class="text-inner-tspan" font-style="normal">del</tspan><tspan font-weight="normal" class="text-inner-tspan" font-style="normal"> tensors</tspan></tspan><tspan dy="1.1em" y="1em" x="0" class="text-outer-tspan"><tspan font-weight="normal" class="text-inner-tspan" font-style="normal">gc.collect()</tspan></tspan><tspan dy="1.1em" y="2.1em" x="0" class="text-outer-tspan"><tspan font-weight="normal" class="text-inner-tspan" font-style="normal">empty_cache()</tspan></tspan></text></g></g></g><g transform="translate(321.4140625, 614.4703140258789)" id="flowchart-F-9" class="node default"><polygon transform="translate(-49.4296875,49.4296875)" class="label-container" style="stroke-width:2.5px;" points="49.4296875,0 98.859375,-49.4296875 49.4296875,-98.859375 0,-49.4296875"/><g transform="translate(0, -10.5)" style="" class="label"><rect/><g><rect style="stroke: none" class="background"/><text style="" y="-10.1"><tspan dy="1.1em" y="-0.1em" x="0" class="text-outer-tspan"><tspan font-weight="normal" class="text-inner-tspan" font-style="normal">N</tspan><tspan font-weight="normal" class="text-inner-tspan" font-style="normal"> &gt;</tspan><tspan font-weight="normal" class="text-inner-tspan" font-style="normal"> 1?</tspan></tspan></text></g></g></g><g transform="translate(458.25, 784.2000007629395)" id="flowchart-G-11" class="node default"><rect height="51" width="189.34375" y="-25.5" x="-94.671875" style="" class="basic label-container" style="stroke-width:2.5px;"/><g transform="translate(0, -10.5)" style="" class="label"><rect/><g><rect style="stroke: none" class="background"/><text style="" y="-10.1"><tspan dy="1.1em" y="-0.1em" x="0" class="text-outer-tspan"><tspan font-weight="normal" class="text-inner-tspan" font-style="normal">Split:</tspan><tspan font-weight="normal" class="text-inner-tspan" font-style="normal"> N/2</tspan><tspan font-weight="normal" class="text-inner-tspan" font-style="normal"> +</tspan><tspan font-weight="normal" class="text-inner-tspan" font-style="normal"> N/2</tspan></tspan></text></g></g></g><g transform="translate(528.9765625, 905)" id="flowchart-H-13" class="node default"><rect height="51" width="233.265625" y="-25.5" x="-116.6328125" style="" class="basic label-container" style="stroke-width:2.5px;"/><g transform="translate(0, -10.5)" style="" class="label"><rect/><g><rect style="stroke: none" class="background"/><text style="" y="-10.1"><tspan dy="1.1em" y="-0.1em" x="0" class="text-outer-tspan"><tspan font-weight="normal" class="text-inner-tspan" font-style="normal">batch_chat(first</tspan><tspan font-weight="normal" class="text-inner-tspan" font-style="normal"> half)</tspan></tspan></text></g></g></g><g transform="translate(823.40625, 905)" id="flowchart-I-15" class="node default"><rect height="51" width="255.59375" y="-25.5" x="-127.796875" style="" class="basic label-container" style="stroke-width:2.5px;"/><g transform="translate(0, -10.5)" style="" class="label"><rect/><g><rect style="stroke: none" class="background"/><text style="" y="-10.1"><tspan dy="1.1em" y="-0.1em" x="0" class="text-outer-tspan"><tspan font-weight="normal" class="text-inner-tspan" font-style="normal">batch_chat(second</tspan><tspan font-weight="normal" class="text-inner-tspan" font-style="normal"> half)</tspan></tspan></text></g></g></g><g transform="translate(184.578125, 784.2000007629395)" id="flowchart-J-21" class="node default"><rect height="90.5999984741211" width="258" y="-45.29999923706055" x="-129" style="" class="basic label-container" style="stroke-width:2.5px;"/><g transform="translate(0, -30.299999237060547)" style="" class="label"><rect/><g><rect style="stroke: none" class="background"/><text style="" y="-10.1"><tspan dy="1.1em" y="-0.1em" x="0" class="text-outer-tspan"><tspan font-weight="normal" class="text-inner-tspan" font-style="normal">Sequential</tspan><tspan font-weight="normal" class="text-inner-tspan" font-style="normal"> fallback</tspan></tspan><tspan dy="1.1em" y="1em" x="0" class="text-outer-tspan"><tspan font-weight="normal" class="text-inner-tspan" font-style="normal">detect_and_classify_doc</tspan></tspan><tspan dy="1.1em" y="2.1em" x="0" class="text-outer-tspan"><tspan font-weight="normal" class="text-inner-tspan" font-style="normal">ument()</tspan></tspan></text></g></g></g></g></g></g><style>/* Presentation-quality overrides: thick lines, large text */

/* Force all strokes thicker via SVG attribute selectors */
.edge-thickness-normal { stroke-width: 3px !important; }
.edge-thickness-thick { stroke-width: 5px !important; }
.flowchart-link { stroke-width: 3px !important; }
.edgePath .path { stroke-width: 3px !important; }

.marker { stroke-width:3.5px !important; }
.arrowMarkerPath { stroke-width:3.5px !important; }

.node rect, .node circle, .node ellipse, .node polygon, .node path {
  stroke-width: 2.5px !important;
}

/* Sequence diagram */
.messageLine0, .messageLine1 { stroke-width: 2.5px !important; }
.actor-line { stroke-width: 2.5px !important; }
.actor { stroke-width: 2.5px !important; }
.activation0, .activation1, .activation2 { stroke-width:3.5px !important; }
.loopLine { stroke-width: 2.5px !important; }

/* Subgraph borders */
.cluster rect { stroke-width: 2.5px !important; }

/* Font sizes */
text { font-size: 18px !important; }
</style></svg>